M48
;Layer_Color=9474304
;FILE_FORMAT=2:4
INCH,LZ
;TYPE=PLATED
T1F00S00C0.0280
T2F00S00C0.0360
%
T01
X06609Y02173
X06612Y02439
X06526Y02436
X06472Y02561
X06281Y02559
X06378Y027559
X06526Y02803
X06473Y02977
X06378Y030709
X0708Y0308
X07074Y02985
X0707Y02859
X07Y02557
X07133Y02492
X06891Y02334
X062Y0256
X0614
X0608
X0602
X0596
X059
X0584
X0578
X0572
X058661Y027559
X061417
Y030709
X058661
X0556Y0306
X05315Y030709
X050394
X047638
Y027559
X050394
X05315
X0556Y0276
X04826Y02492
X049213Y02395
X0477Y02072
X06203Y01971
X04477Y01919
X04541Y02143
X04353Y02329
X04253Y02249
X04155Y02379
X042Y0256
X0426
X04404Y02535
X044882Y027559
X042126
X03937
X03957Y02595
X03803Y0248
X0384Y0234
Y0228
X0376
Y0234
X0366
Y0228
X0358
Y0234
X035
Y0228
Y0214
Y0208
X0358
Y0214
X0366
Y0208
X0364Y02207
X03903
X04057Y02164
X033Y0214
X0324
X0318
Y0208
X0324
X033
Y0202
X0324
X0318
X0326Y0221
X0314Y0266
Y0272
Y0278
X036614Y027559
Y030709
X03937
X042126
X044882
X0308Y0278
Y0272
Y0266
X0302
X0296
Y0272
X0302
Y0278
X0296
X03122Y02484
X0312Y0214
Y0208
Y0202
X0297Y01873
X0296Y0318
Y0324
Y033
X0302
X0308
Y0324
X0302
Y0318
X0308
X02991Y03507
X02926Y03491
X0314Y033
Y0324
Y0318
X03422Y03605
X0343Y0392
X036614Y040157
X03937
X042126
X044882
Y037008
X042126
X03937
X036614
Y033858
X03937
X042126
X04269Y03198
X044882Y033858
Y043307
X042126
X03937
X036614
X03445Y04238
X0331Y0424
X036614Y046457
X03937
X042126
X044882
X047638
X050394
X05315
X0556Y0464
X058661Y046457
X061417
Y043307
X058661
Y040157
X05927Y039193
X058661Y037008
X061417
Y033858
X058661
X0556Y0338
X05315Y033858
X050394
X047638
Y037008
X050394
X05315
X0556Y037
Y0402
X05315Y040157
X050394
X047638
Y043307
X050394
X05315
X0556Y0432
X061417Y040157
X064Y0402
X0647Y04102
Y04166
X064Y0432
X06544Y04323
X06475Y04457
X064Y0464
X06476Y03821
X064Y037
X06444Y03569
X06558Y03491
X0668Y0352
Y0358
X0674
X068
X0686
Y0352
X068
X0674
X0704
Y0358
X071
X0716
Y0352
X071
Y0346
X0716
Y034
X0708Y0326
Y032
Y0314
X07002Y03307
X071Y0364
X0716
Y037
X06972Y03731
X06854Y03821
X068Y039
Y0396
Y0402
X0674
X0668
Y0396
X0674
Y039
X0668
X06956Y04102
X06955Y0419
X06441Y03329
X06378Y033858
X064Y0496
X0668Y0498
Y0504
Y051
Y0516
X0674
Y0522
X0668
X0674Y051
Y0504
Y0498
X06716Y05412
X06557Y05367
X065606Y054656
X06559Y05717
X064Y0558
X0642Y0534
X064Y0528
Y059
X06625Y05989
X066Y0624
X0654
X0648
X06992Y06221
X0694Y0608
Y06
X06999Y0595
X06921Y05667
X06998Y05239
X061417Y052756
X058661
X0556Y0528
X05315Y052756
X050394
X047638
Y055906
X050394
X05315
X0556Y0558
X058661Y055906
X05921Y05661
X061417Y055906
Y059055
X058661
X05558Y059123
X05548Y06076
X05614Y06074
X0532Y06073
X05315Y059055
X050394
X047638
Y049606
X050394
X05315
X0556Y0496
X058661Y049606
X061417
X0588Y0624
X0582
X0576
X04646Y06073
X044882Y059055
X042126
X03937
X03935Y06075
X03654Y06048
X036614Y059055
X0342Y0584
Y0577
X0337Y05692
X032926Y057156
X0331Y0584
X032185Y059755
X03446Y06094
X036614Y055906
X03937
X042126
X044882
Y052756
X042126
X03937
X036614
X035433Y053993
X03292Y05433
X03142Y05521
X032Y05091
X035433Y050933
X036614Y049606
X03937
X042126
X044882
X03089Y05361
X02722Y05362
X02586Y05373
X02666Y05509
X02661Y05669
X02767Y05612
X027774Y058156
X03012Y05764
X02943Y06226
X0278Y0642
Y0648
Y0654
X027
Y0648
Y0642
X0262
Y0648
Y0654
X05597Y06418
X0576Y0642
Y0636
Y063
X0582
Y0636
Y0642
X0588
Y0636
Y063
X0648
Y0636
Y0642
X0654
X066
Y0636
X0654
Y063
X066
X07057Y06297
X07078Y06421
T02
X06301Y02143
X06201
X06101
X06001
X05901
M30
