G04 Layer_Color=255*
%FSTAX24Y24*%
%MOIN*%
G70*
G01*
G75*
%ADD10R,0.0500X0.0550*%
%ADD11R,0.0768X0.0906*%
%ADD12R,0.0906X0.0768*%
%ADD13R,0.0550X0.0500*%
%ADD14R,0.0232X0.0591*%
%ADD15R,0.0591X0.0232*%
%ADD18O,0.0650X0.0900*%
%ADD19R,0.0650X0.0900*%
D10*
X06678Y02388D02*
D03*
X06768D02*
D03*
X04199Y02008D02*
D03*
X04109D02*
D03*
X07102Y05585D02*
D03*
X07192D02*
D03*
X07102Y056655D02*
D03*
X07192D02*
D03*
X06852Y06094D02*
D03*
X06762D02*
D03*
D11*
X048845Y06418D02*
D03*
X04981D02*
D03*
X029045Y021654D02*
D03*
X03001D02*
D03*
X030042Y06417D02*
D03*
X029078D02*
D03*
X069815Y02164D02*
D03*
X06885D02*
D03*
X06976Y06422D02*
D03*
X068795D02*
D03*
D12*
X062992Y027559D02*
D03*
Y026594D02*
D03*
X060236Y027559D02*
D03*
Y026594D02*
D03*
X05748Y027559D02*
D03*
Y026594D02*
D03*
X054724Y027559D02*
D03*
Y026594D02*
D03*
X051968Y027559D02*
D03*
Y026594D02*
D03*
X049213Y027559D02*
D03*
Y026594D02*
D03*
X046457Y027559D02*
D03*
Y026594D02*
D03*
X043701Y027559D02*
D03*
Y026594D02*
D03*
X040945Y027559D02*
D03*
Y026594D02*
D03*
X038189Y027559D02*
D03*
Y026594D02*
D03*
X035433Y027559D02*
D03*
Y026594D02*
D03*
X062992Y030709D02*
D03*
Y029744D02*
D03*
X060236Y030709D02*
D03*
Y029744D02*
D03*
X05748Y030709D02*
D03*
Y029744D02*
D03*
X054724Y030709D02*
D03*
Y029744D02*
D03*
X051968Y030709D02*
D03*
Y029744D02*
D03*
X049213Y030709D02*
D03*
Y029744D02*
D03*
X046457Y030709D02*
D03*
Y029744D02*
D03*
X043701Y030709D02*
D03*
Y029744D02*
D03*
X040945Y030709D02*
D03*
Y029744D02*
D03*
X038189Y030709D02*
D03*
Y029744D02*
D03*
X035433Y030709D02*
D03*
Y029744D02*
D03*
X062992Y033858D02*
D03*
Y032894D02*
D03*
X060236Y033858D02*
D03*
Y032894D02*
D03*
X05748Y033858D02*
D03*
Y032894D02*
D03*
X054724Y033858D02*
D03*
Y032894D02*
D03*
X051968Y033858D02*
D03*
Y032894D02*
D03*
X049213Y033858D02*
D03*
Y032894D02*
D03*
X046457Y033858D02*
D03*
Y032894D02*
D03*
X043701Y033858D02*
D03*
Y032894D02*
D03*
X040945Y033858D02*
D03*
Y032894D02*
D03*
X038189Y033858D02*
D03*
Y032894D02*
D03*
X035433Y033858D02*
D03*
Y032894D02*
D03*
X062992Y037008D02*
D03*
Y036043D02*
D03*
X060236Y037008D02*
D03*
Y036043D02*
D03*
X05748Y037008D02*
D03*
Y036043D02*
D03*
X054724Y037008D02*
D03*
Y036043D02*
D03*
X051968Y037008D02*
D03*
Y036043D02*
D03*
X049213Y037008D02*
D03*
Y036043D02*
D03*
X046457Y037008D02*
D03*
Y036043D02*
D03*
X043701Y037008D02*
D03*
Y036043D02*
D03*
X040945Y037008D02*
D03*
Y036043D02*
D03*
X038189Y037008D02*
D03*
Y036043D02*
D03*
X035433Y037008D02*
D03*
Y036043D02*
D03*
X062992Y040157D02*
D03*
Y039193D02*
D03*
X060236Y040157D02*
D03*
Y039193D02*
D03*
X05748Y040157D02*
D03*
Y039193D02*
D03*
X054724Y040157D02*
D03*
Y039193D02*
D03*
X051968Y040157D02*
D03*
Y039193D02*
D03*
X049213Y040157D02*
D03*
Y039193D02*
D03*
X046457Y040157D02*
D03*
Y039193D02*
D03*
X043701Y040157D02*
D03*
Y039193D02*
D03*
X040945Y040157D02*
D03*
Y039193D02*
D03*
X038189Y040157D02*
D03*
Y039193D02*
D03*
X035433Y040157D02*
D03*
Y039193D02*
D03*
X062992Y043307D02*
D03*
Y042343D02*
D03*
X060236Y043307D02*
D03*
Y042343D02*
D03*
X05748Y043307D02*
D03*
Y042343D02*
D03*
X054724Y043307D02*
D03*
Y042343D02*
D03*
X051968Y043307D02*
D03*
Y042343D02*
D03*
X049213Y043307D02*
D03*
Y042343D02*
D03*
X046457Y043307D02*
D03*
Y042343D02*
D03*
X043701Y043307D02*
D03*
Y042343D02*
D03*
X040945Y043307D02*
D03*
Y042343D02*
D03*
X038189Y043307D02*
D03*
Y042343D02*
D03*
X035433Y043307D02*
D03*
Y042343D02*
D03*
X062992Y046457D02*
D03*
Y045492D02*
D03*
X060236Y046457D02*
D03*
Y045492D02*
D03*
X05748Y046457D02*
D03*
Y045492D02*
D03*
X054724Y046457D02*
D03*
Y045492D02*
D03*
X051968Y046457D02*
D03*
Y045492D02*
D03*
X049213Y046457D02*
D03*
Y045492D02*
D03*
X046457Y046457D02*
D03*
Y045492D02*
D03*
X043701Y046457D02*
D03*
Y045492D02*
D03*
X040945Y046457D02*
D03*
Y045492D02*
D03*
X038189Y046457D02*
D03*
Y045492D02*
D03*
X035433Y046457D02*
D03*
Y045492D02*
D03*
X062992Y049606D02*
D03*
Y048642D02*
D03*
X060236Y049606D02*
D03*
Y048642D02*
D03*
X05748Y049606D02*
D03*
Y048642D02*
D03*
X054724Y049606D02*
D03*
Y048642D02*
D03*
X051968Y049606D02*
D03*
Y048642D02*
D03*
X049213Y049606D02*
D03*
Y048642D02*
D03*
X046457Y049606D02*
D03*
Y048642D02*
D03*
X043701Y049606D02*
D03*
Y048642D02*
D03*
X040945Y049606D02*
D03*
Y048642D02*
D03*
X038189Y049606D02*
D03*
Y048642D02*
D03*
X035433Y049606D02*
D03*
Y048642D02*
D03*
X062992Y052756D02*
D03*
Y051791D02*
D03*
X060236Y052756D02*
D03*
Y051791D02*
D03*
X05748Y052756D02*
D03*
Y051791D02*
D03*
X054724Y052756D02*
D03*
Y051791D02*
D03*
X051968Y052756D02*
D03*
Y051791D02*
D03*
X049213Y052756D02*
D03*
Y051791D02*
D03*
X046457Y052756D02*
D03*
Y051791D02*
D03*
X043701Y052756D02*
D03*
Y051791D02*
D03*
X040945Y052756D02*
D03*
Y051791D02*
D03*
X038189Y052756D02*
D03*
Y051791D02*
D03*
X035433Y052756D02*
D03*
Y051791D02*
D03*
X062992Y055906D02*
D03*
Y054941D02*
D03*
X060236Y055906D02*
D03*
Y054941D02*
D03*
X05748Y055906D02*
D03*
Y054941D02*
D03*
X054724Y055906D02*
D03*
Y054941D02*
D03*
X051968Y055906D02*
D03*
Y054941D02*
D03*
X049213Y055906D02*
D03*
Y054941D02*
D03*
X046457Y055906D02*
D03*
Y054941D02*
D03*
X043701Y055906D02*
D03*
Y054941D02*
D03*
X040945Y055906D02*
D03*
Y054941D02*
D03*
X038189Y055906D02*
D03*
Y054941D02*
D03*
X035433Y055906D02*
D03*
Y054941D02*
D03*
X062992Y059055D02*
D03*
Y058091D02*
D03*
X060236Y059055D02*
D03*
Y058091D02*
D03*
X05748Y059055D02*
D03*
Y058091D02*
D03*
X054724Y059055D02*
D03*
Y058091D02*
D03*
X051968Y059055D02*
D03*
Y058091D02*
D03*
X049213Y059055D02*
D03*
Y058091D02*
D03*
X046457Y059055D02*
D03*
Y058091D02*
D03*
X043701Y059055D02*
D03*
Y058091D02*
D03*
X040945Y059055D02*
D03*
Y058091D02*
D03*
X038189Y059055D02*
D03*
Y058091D02*
D03*
X035433Y059055D02*
D03*
Y058091D02*
D03*
D13*
X0428Y02D02*
D03*
Y0191D02*
D03*
X0438Y02D02*
D03*
Y0191D02*
D03*
X03304Y05613D02*
D03*
Y05523D02*
D03*
D14*
X03905Y02094D02*
D03*
X03955D02*
D03*
X04005D02*
D03*
X04055D02*
D03*
X04105D02*
D03*
X04155D02*
D03*
X04205D02*
D03*
X04255D02*
D03*
X04305D02*
D03*
X04355D02*
D03*
X04405D02*
D03*
X04455D02*
D03*
X03905Y02468D02*
D03*
X03955D02*
D03*
X04005D02*
D03*
X04055D02*
D03*
X04105D02*
D03*
X04155D02*
D03*
X04205D02*
D03*
X04255D02*
D03*
X04305D02*
D03*
X04355D02*
D03*
X04405D02*
D03*
X04455D02*
D03*
D15*
X06619Y03232D02*
D03*
Y03182D02*
D03*
Y03132D02*
D03*
Y03082D02*
D03*
Y03032D02*
D03*
Y02982D02*
D03*
Y02932D02*
D03*
Y02882D02*
D03*
Y02832D02*
D03*
Y02782D02*
D03*
Y02732D02*
D03*
Y02682D02*
D03*
X06993Y03232D02*
D03*
Y03182D02*
D03*
Y03132D02*
D03*
Y03082D02*
D03*
Y03032D02*
D03*
Y02982D02*
D03*
Y02932D02*
D03*
Y02882D02*
D03*
Y02832D02*
D03*
Y02782D02*
D03*
Y02732D02*
D03*
Y02682D02*
D03*
X06998Y053156D02*
D03*
Y053656D02*
D03*
Y054156D02*
D03*
Y054656D02*
D03*
Y055156D02*
D03*
Y055656D02*
D03*
Y056156D02*
D03*
Y056656D02*
D03*
Y057156D02*
D03*
Y057656D02*
D03*
Y058156D02*
D03*
Y058656D02*
D03*
X06624Y053156D02*
D03*
Y053656D02*
D03*
Y054156D02*
D03*
Y054656D02*
D03*
Y055156D02*
D03*
Y055656D02*
D03*
Y056156D02*
D03*
Y056656D02*
D03*
Y057156D02*
D03*
Y057656D02*
D03*
Y058156D02*
D03*
Y058656D02*
D03*
X032185Y053156D02*
D03*
Y053656D02*
D03*
Y054156D02*
D03*
Y054656D02*
D03*
Y055156D02*
D03*
Y055656D02*
D03*
Y056156D02*
D03*
Y056656D02*
D03*
Y057156D02*
D03*
Y057656D02*
D03*
Y058156D02*
D03*
Y058656D02*
D03*
X028445Y053156D02*
D03*
Y053656D02*
D03*
Y054156D02*
D03*
Y054656D02*
D03*
Y055156D02*
D03*
Y055656D02*
D03*
Y056156D02*
D03*
Y056656D02*
D03*
Y057156D02*
D03*
Y057656D02*
D03*
Y058156D02*
D03*
Y058656D02*
D03*
D18*
X06301Y02143D02*
D03*
X06001D02*
D03*
X06101D02*
D03*
X06201D02*
D03*
D19*
X05901D02*
D03*
M02*
