G04 Layer_Color=128*
%FSTAX24Y24*%
%MOIN*%
G70*
G01*
G75*
%ADD43C,0.0020*%
D43*
X06283Y02143D02*
X06319D01*
X06301Y02125D02*
Y02161D01*
X05883Y02143D02*
X05919D01*
X05901Y02125D02*
Y02161D01*
X05983Y02143D02*
X06019D01*
X06001Y02125D02*
Y02161D01*
X06083Y02143D02*
X06119D01*
X06101Y02125D02*
Y02161D01*
X06183Y02143D02*
X06219D01*
X06201Y02125D02*
Y02161D01*
X05583Y06418D02*
X05611D01*
X05597Y06404D02*
Y06432D01*
X056Y06074D02*
X05628D01*
X05614Y0606D02*
Y06088D01*
X05534Y06076D02*
X05562D01*
X05548Y06062D02*
Y0609D01*
X02572Y05373D02*
X026D01*
X02586Y05359D02*
Y05387D01*
X04463Y01919D02*
X04491D01*
X04477Y01905D02*
Y01933D01*
X06459Y02977D02*
X06487D01*
X06473Y02963D02*
Y02991D01*
X03108Y02484D02*
X03136D01*
X03122Y0247D02*
Y02498D01*
X02652Y05509D02*
X0268D01*
X02666Y05495D02*
Y05523D01*
X05306Y06073D02*
X05334D01*
X0532Y06059D02*
Y06087D01*
X04632Y06073D02*
X0466D01*
X04646Y06059D02*
Y06087D01*
X03921Y06075D02*
X03949D01*
X03935Y06061D02*
Y06089D01*
X02647Y05669D02*
X02675D01*
X02661Y05655D02*
Y05683D01*
X02912Y03491D02*
X0294D01*
X02926Y03477D02*
Y03505D01*
X02929Y06226D02*
X02957D01*
X02943Y06212D02*
Y0624D01*
X06611Y05989D02*
X06639D01*
X06625Y05975D02*
Y06003D01*
X0364Y06048D02*
X03668D01*
X03654Y06034D02*
Y06062D01*
X03432Y06094D02*
X0346D01*
X03446Y0608D02*
Y06108D01*
X02977Y03507D02*
X03005D01*
X02991Y03493D02*
Y03521D01*
X03278Y05433D02*
X03306D01*
X03292Y05419D02*
Y05447D01*
X02753Y05612D02*
X02781D01*
X02767Y05598D02*
Y05626D01*
X02708Y05362D02*
X02736D01*
X02722Y05348D02*
Y05376D01*
X027634Y058156D02*
X027914D01*
X027774Y058016D02*
Y058296D01*
X035293Y053993D02*
X035573D01*
X035433Y053853D02*
Y054133D01*
X032786Y057156D02*
X033066D01*
X032926Y057016D02*
Y057296D01*
X03408Y03605D02*
X03436D01*
X03422Y03591D02*
Y03619D01*
X03128Y05521D02*
X03156D01*
X03142Y05507D02*
Y05535D01*
X06985Y0595D02*
X07013D01*
X06999Y05936D02*
Y05964D01*
X04812Y02492D02*
X0484D01*
X04826Y02478D02*
Y02506D01*
X07119Y02492D02*
X07147D01*
X07133Y02478D02*
Y02506D01*
X06978Y06221D02*
X07006D01*
X06992Y06207D02*
Y06235D01*
X06512Y02436D02*
X0654D01*
X06526Y02422D02*
Y0245D01*
X04527Y02143D02*
X04555D01*
X04541Y02129D02*
Y02157D01*
X049073Y02395D02*
X049353D01*
X049213Y02381D02*
Y02409D01*
X04239Y02249D02*
X04267D01*
X04253Y02235D02*
Y02263D01*
X03889Y02207D02*
X03917D01*
X03903Y02193D02*
Y02221D01*
X03789Y0248D02*
X03817D01*
X03803Y02466D02*
Y02494D01*
X04255Y03198D02*
X04283D01*
X04269Y03184D02*
Y03212D01*
X04339Y02329D02*
X04367D01*
X04353Y02315D02*
Y02343D01*
X04141Y02379D02*
X04169D01*
X04155Y02365D02*
Y02393D01*
X03943Y02595D02*
X03971D01*
X03957Y02581D02*
Y02609D01*
X032045Y059755D02*
X032325D01*
X032185Y059615D02*
Y059895D01*
X06941Y0419D02*
X06969D01*
X06955Y04176D02*
Y04204D01*
X06456Y04166D02*
X06484D01*
X0647Y04152D02*
Y0418D01*
X06456Y04102D02*
X06484D01*
X0647Y04088D02*
Y04116D01*
X06942Y04102D02*
X0697D01*
X06956Y04088D02*
Y04116D01*
X06907Y05667D02*
X06935D01*
X06921Y05653D02*
Y05681D01*
X0684Y03821D02*
X06868D01*
X06854Y03807D02*
Y03835D01*
X06462Y03821D02*
X0649D01*
X06476Y03807D02*
Y03835D01*
X0643Y03569D02*
X06458D01*
X06444Y03555D02*
Y03583D01*
X0653Y04323D02*
X06558D01*
X06544Y04309D02*
Y04337D01*
X06461Y04457D02*
X06489D01*
X06475Y04443D02*
Y04471D01*
X06543Y05367D02*
X06571D01*
X06557Y05353D02*
Y05381D01*
X06986Y02557D02*
X07014D01*
X07Y02543D02*
Y02571D01*
X06984Y05239D02*
X07012D01*
X06998Y05225D02*
Y05253D01*
X06427Y03329D02*
X06455D01*
X06441Y03315D02*
Y03343D01*
X06364Y027559D02*
X06392D01*
X06378Y027419D02*
Y027699D01*
X06458Y02561D02*
X06486D01*
X06472Y02547D02*
Y02575D01*
X06267Y02559D02*
X06295D01*
X06281Y02545D02*
Y02573D01*
X06512Y02803D02*
X0654D01*
X06526Y02789D02*
Y02817D01*
X06877Y02334D02*
X06905D01*
X06891Y0232D02*
Y02348D01*
X07064Y06421D02*
X07092D01*
X07078Y06407D02*
Y06435D01*
X06364Y030709D02*
X06392D01*
X06378Y030569D02*
Y030849D01*
X06364Y033858D02*
X06392D01*
X06378Y033718D02*
Y033998D01*
X061277Y027559D02*
X061557D01*
X061417Y027419D02*
Y027699D01*
X061277Y030709D02*
X061557D01*
X061417Y030569D02*
Y030849D01*
X061277Y033858D02*
X061557D01*
X061417Y033718D02*
Y033998D01*
X061277Y037008D02*
X061557D01*
X061417Y036868D02*
Y037148D01*
X061277Y040157D02*
X061557D01*
X061417Y040017D02*
Y040297D01*
X061277Y043307D02*
X061557D01*
X061417Y043167D02*
Y043447D01*
X061277Y046457D02*
X061557D01*
X061417Y046317D02*
Y046597D01*
X061277Y049606D02*
X061557D01*
X061417Y049466D02*
Y049746D01*
X061277Y052756D02*
X061557D01*
X061417Y052616D02*
Y052896D01*
X061277Y055906D02*
X061557D01*
X061417Y055766D02*
Y056046D01*
X061277Y059055D02*
X061557D01*
X061417Y058915D02*
Y059195D01*
X058521Y027559D02*
X058801D01*
X058661Y027419D02*
Y027699D01*
X058521Y030709D02*
X058801D01*
X058661Y030569D02*
Y030849D01*
X058521Y033858D02*
X058801D01*
X058661Y033718D02*
Y033998D01*
X058521Y037008D02*
X058801D01*
X058661Y036868D02*
Y037148D01*
X058521Y040157D02*
X058801D01*
X058661Y040017D02*
Y040297D01*
X058521Y043307D02*
X058801D01*
X058661Y043167D02*
Y043447D01*
X058521Y046457D02*
X058801D01*
X058661Y046317D02*
Y046597D01*
X058521Y049606D02*
X058801D01*
X058661Y049466D02*
Y049746D01*
X058521Y052756D02*
X058801D01*
X058661Y052616D02*
Y052896D01*
X058521Y055906D02*
X058801D01*
X058661Y055766D02*
Y056046D01*
X058521Y059055D02*
X058801D01*
X058661Y058915D02*
Y059195D01*
X05301Y027559D02*
X05329D01*
X05315Y027419D02*
Y027699D01*
X05301Y030709D02*
X05329D01*
X05315Y030569D02*
Y030849D01*
X05301Y033858D02*
X05329D01*
X05315Y033718D02*
Y033998D01*
X05301Y037008D02*
X05329D01*
X05315Y036868D02*
Y037148D01*
X05301Y040157D02*
X05329D01*
X05315Y040017D02*
Y040297D01*
X05301Y043307D02*
X05329D01*
X05315Y043167D02*
Y043447D01*
X05301Y046457D02*
X05329D01*
X05315Y046317D02*
Y046597D01*
X05301Y049606D02*
X05329D01*
X05315Y049466D02*
Y049746D01*
X05301Y052756D02*
X05329D01*
X05315Y052616D02*
Y052896D01*
X05301Y055906D02*
X05329D01*
X05315Y055766D02*
Y056046D01*
X05301Y059055D02*
X05329D01*
X05315Y058915D02*
Y059195D01*
X050254Y027559D02*
X050534D01*
X050394Y027419D02*
Y027699D01*
X050254Y030709D02*
X050534D01*
X050394Y030569D02*
Y030849D01*
X050254Y033858D02*
X050534D01*
X050394Y033718D02*
Y033998D01*
X050254Y037008D02*
X050534D01*
X050394Y036868D02*
Y037148D01*
X050254Y040157D02*
X050534D01*
X050394Y040017D02*
Y040297D01*
X050254Y043307D02*
X050534D01*
X050394Y043167D02*
Y043447D01*
X050254Y046457D02*
X050534D01*
X050394Y046317D02*
Y046597D01*
X050254Y049606D02*
X050534D01*
X050394Y049466D02*
Y049746D01*
X050254Y052756D02*
X050534D01*
X050394Y052616D02*
Y052896D01*
X050254Y055906D02*
X050534D01*
X050394Y055766D02*
Y056046D01*
X050254Y059055D02*
X050534D01*
X050394Y058915D02*
Y059195D01*
X047498Y027559D02*
X047778D01*
X047638Y027419D02*
Y027699D01*
X047498Y030709D02*
X047778D01*
X047638Y030569D02*
Y030849D01*
X047498Y033858D02*
X047778D01*
X047638Y033718D02*
Y033998D01*
X047498Y037008D02*
X047778D01*
X047638Y036868D02*
Y037148D01*
X047498Y040157D02*
X047778D01*
X047638Y040017D02*
Y040297D01*
X047498Y043307D02*
X047778D01*
X047638Y043167D02*
Y043447D01*
X047498Y046457D02*
X047778D01*
X047638Y046317D02*
Y046597D01*
X047498Y049606D02*
X047778D01*
X047638Y049466D02*
Y049746D01*
X047498Y052756D02*
X047778D01*
X047638Y052616D02*
Y052896D01*
X047498Y055906D02*
X047778D01*
X047638Y055766D02*
Y056046D01*
X047498Y059055D02*
X047778D01*
X047638Y058915D02*
Y059195D01*
X044742Y027559D02*
X045022D01*
X044882Y027419D02*
Y027699D01*
X044742Y030709D02*
X045022D01*
X044882Y030569D02*
Y030849D01*
X044742Y033858D02*
X045022D01*
X044882Y033718D02*
Y033998D01*
X044742Y037008D02*
X045022D01*
X044882Y036868D02*
Y037148D01*
X044742Y040157D02*
X045022D01*
X044882Y040017D02*
Y040297D01*
X044742Y043307D02*
X045022D01*
X044882Y043167D02*
Y043447D01*
X044742Y046457D02*
X045022D01*
X044882Y046317D02*
Y046597D01*
X044742Y049606D02*
X045022D01*
X044882Y049466D02*
Y049746D01*
X044742Y052756D02*
X045022D01*
X044882Y052616D02*
Y052896D01*
X044742Y055906D02*
X045022D01*
X044882Y055766D02*
Y056046D01*
X044742Y059055D02*
X045022D01*
X044882Y058915D02*
Y059195D01*
X041986Y027559D02*
X042266D01*
X042126Y027419D02*
Y027699D01*
X041986Y030709D02*
X042266D01*
X042126Y030569D02*
Y030849D01*
X041986Y033858D02*
X042266D01*
X042126Y033718D02*
Y033998D01*
X041986Y037008D02*
X042266D01*
X042126Y036868D02*
Y037148D01*
X041986Y040157D02*
X042266D01*
X042126Y040017D02*
Y040297D01*
X041986Y043307D02*
X042266D01*
X042126Y043167D02*
Y043447D01*
X041986Y046457D02*
X042266D01*
X042126Y046317D02*
Y046597D01*
X041986Y049606D02*
X042266D01*
X042126Y049466D02*
Y049746D01*
X041986Y052756D02*
X042266D01*
X042126Y052616D02*
Y052896D01*
X041986Y055906D02*
X042266D01*
X042126Y055766D02*
Y056046D01*
X041986Y059055D02*
X042266D01*
X042126Y058915D02*
Y059195D01*
X03923Y027559D02*
X03951D01*
X03937Y027419D02*
Y027699D01*
X03923Y030709D02*
X03951D01*
X03937Y030569D02*
Y030849D01*
X03923Y033858D02*
X03951D01*
X03937Y033718D02*
Y033998D01*
X03923Y037008D02*
X03951D01*
X03937Y036868D02*
Y037148D01*
X03923Y040157D02*
X03951D01*
X03937Y040017D02*
Y040297D01*
X03923Y043307D02*
X03951D01*
X03937Y043167D02*
Y043447D01*
X03923Y046457D02*
X03951D01*
X03937Y046317D02*
Y046597D01*
X03923Y049606D02*
X03951D01*
X03937Y049466D02*
Y049746D01*
X03923Y052756D02*
X03951D01*
X03937Y052616D02*
Y052896D01*
X03923Y055906D02*
X03951D01*
X03937Y055766D02*
Y056046D01*
X03923Y059055D02*
X03951D01*
X03937Y058915D02*
Y059195D01*
X036474Y027559D02*
X036754D01*
X036614Y027419D02*
Y027699D01*
X036474Y030709D02*
X036754D01*
X036614Y030569D02*
Y030849D01*
X036474Y033858D02*
X036754D01*
X036614Y033718D02*
Y033998D01*
X036474Y037008D02*
X036754D01*
X036614Y036868D02*
Y037148D01*
X036474Y040157D02*
X036754D01*
X036614Y040017D02*
Y040297D01*
X036474Y043307D02*
X036754D01*
X036614Y043167D02*
Y043447D01*
X036474Y046457D02*
X036754D01*
X036614Y046317D02*
Y046597D01*
X036474Y049606D02*
X036754D01*
X036614Y049466D02*
Y049746D01*
X036474Y052756D02*
X036754D01*
X036614Y052616D02*
Y052896D01*
X036474Y055906D02*
X036754D01*
X036614Y055766D02*
Y056046D01*
X036474Y059055D02*
X036754D01*
X036614Y058915D02*
Y059195D01*
X06189Y01971D02*
X06217D01*
X06203Y01957D02*
Y01985D01*
X04756Y02072D02*
X04784D01*
X0477Y02058D02*
Y02086D01*
X04043Y02164D02*
X04071D01*
X04057Y0215D02*
Y02178D01*
X06988Y03307D02*
X07016D01*
X07002Y03293D02*
Y03321D01*
X06544Y03491D02*
X06572D01*
X06558Y03477D02*
Y03505D01*
X07056Y02859D02*
X07084D01*
X0707Y02845D02*
Y02873D01*
X0706Y02985D02*
X07088D01*
X07074Y02971D02*
Y02999D01*
X02956Y01873D02*
X02984D01*
X0297Y01859D02*
Y01887D01*
X07043Y06297D02*
X07071D01*
X07057Y06283D02*
Y06311D01*
X06958Y03731D02*
X06986D01*
X06972Y03717D02*
Y03745D01*
X06598Y02439D02*
X06626D01*
X06612Y02425D02*
Y02453D01*
X06595Y02173D02*
X06623D01*
X06609Y02159D02*
Y02187D01*
X02998Y05764D02*
X03026D01*
X03012Y0575D02*
Y05778D01*
X035293Y050933D02*
X035573D01*
X035433Y050793D02*
Y051073D01*
X03431Y04238D02*
X03459D01*
X03445Y04224D02*
Y04252D01*
X03075Y05361D02*
X03103D01*
X03089Y05347D02*
Y05375D01*
X03186Y05091D02*
X03214D01*
X032Y05077D02*
Y05105D01*
X05913Y039193D02*
X05941D01*
X05927Y039053D02*
Y039333D01*
X05907Y05661D02*
X05935D01*
X05921Y05647D02*
Y05675D01*
X03416Y0392D02*
X03444D01*
X0343Y03906D02*
Y03934D01*
X03296Y0424D02*
X03324D01*
X0331Y04226D02*
Y04254D01*
X03246Y0221D02*
X03274D01*
X0326Y02196D02*
Y02224D01*
X03356Y05692D02*
X03384D01*
X0337Y05678D02*
Y05706D01*
X03406Y0584D02*
X03434D01*
X0342Y05826D02*
Y05854D01*
X03406Y0577D02*
X03434D01*
X0342Y05756D02*
Y05784D01*
X03296Y0584D02*
X03324D01*
X0331Y05826D02*
Y05854D01*
X06926Y0608D02*
X06954D01*
X0694Y06066D02*
Y06094D01*
X06926Y06D02*
X06954D01*
X0694Y05986D02*
Y06014D01*
X06726Y0516D02*
X06754D01*
X0674Y05146D02*
Y05174D01*
X06666Y0516D02*
X06694D01*
X0668Y05146D02*
Y05174D01*
X06726Y0522D02*
X06754D01*
X0674Y05206D02*
Y05234D01*
X06726Y051D02*
X06754D01*
X0674Y05086D02*
Y05114D01*
X06666Y051D02*
X06694D01*
X0668Y05086D02*
Y05114D01*
X06666Y0504D02*
X06694D01*
X0668Y05026D02*
Y05054D01*
X06726Y0504D02*
X06754D01*
X0674Y05026D02*
Y05054D01*
X06666Y0498D02*
X06694D01*
X0668Y04966D02*
Y04994D01*
X06726Y0498D02*
X06754D01*
X0674Y04966D02*
Y04994D01*
X06666Y0522D02*
X06694D01*
X0668Y05206D02*
Y05234D01*
X05706Y0256D02*
X05734D01*
X0572Y02546D02*
Y02574D01*
X03486Y0234D02*
X03514D01*
X035Y02326D02*
Y02354D01*
X03566Y0234D02*
X03594D01*
X0358Y02326D02*
Y02354D01*
X03646Y0234D02*
X03674D01*
X0366Y02326D02*
Y02354D01*
X03486Y0228D02*
X03514D01*
X035Y02266D02*
Y02294D01*
X03566Y0228D02*
X03594D01*
X0358Y02266D02*
Y02294D01*
X03646Y0228D02*
X03674D01*
X0366Y02266D02*
Y02294D01*
X07066Y0314D02*
X07094D01*
X0708Y03126D02*
Y03154D01*
X07066Y032D02*
X07094D01*
X0708Y03186D02*
Y03214D01*
X07066Y0326D02*
X07094D01*
X0708Y03246D02*
Y03274D01*
X07066Y0308D02*
X07094D01*
X0708Y03066D02*
Y03094D01*
X06702Y05412D02*
X0673D01*
X06716Y05398D02*
Y05426D01*
X065466Y054656D02*
X065746D01*
X065606Y054516D02*
Y054796D01*
X06545Y05717D02*
X06573D01*
X06559Y05703D02*
Y05731D01*
X05886Y0256D02*
X05914D01*
X059Y02546D02*
Y02574D01*
X05766Y0256D02*
X05794D01*
X0578Y02546D02*
Y02574D01*
X05826Y0256D02*
X05854D01*
X0584Y02546D02*
Y02574D01*
X05946Y0256D02*
X05974D01*
X0596Y02546D02*
Y02574D01*
X06006Y0256D02*
X06034D01*
X0602Y02546D02*
Y02574D01*
X06066Y0256D02*
X06094D01*
X0608Y02546D02*
Y02574D01*
X06126Y0256D02*
X06154D01*
X0614Y02546D02*
Y02574D01*
X06186Y0256D02*
X06214D01*
X062Y02546D02*
Y02574D01*
X0439Y02535D02*
X04418D01*
X04404Y02521D02*
Y02549D01*
X04186Y0256D02*
X04214D01*
X042Y02546D02*
Y02574D01*
X04246Y0256D02*
X04274D01*
X0426Y02546D02*
Y02574D01*
X03746Y0234D02*
X03774D01*
X0376Y02326D02*
Y02354D01*
X03746Y0228D02*
X03774D01*
X0376Y02266D02*
Y02294D01*
X03826Y0228D02*
X03854D01*
X0384Y02266D02*
Y02294D01*
X03826Y0234D02*
X03854D01*
X0384Y02326D02*
Y02354D01*
X03626Y02207D02*
X03654D01*
X0364Y02193D02*
Y02221D01*
X03486Y0214D02*
X03514D01*
X035Y02126D02*
Y02154D01*
X03566Y0214D02*
X03594D01*
X0358Y02126D02*
Y02154D01*
X03646Y0208D02*
X03674D01*
X0366Y02066D02*
Y02094D01*
X03566Y0208D02*
X03594D01*
X0358Y02066D02*
Y02094D01*
X03486Y0208D02*
X03514D01*
X035Y02066D02*
Y02094D01*
X03106Y0214D02*
X03134D01*
X0312Y02126D02*
Y02154D01*
X03166Y0214D02*
X03194D01*
X0318Y02126D02*
Y02154D01*
X03226Y0214D02*
X03254D01*
X0324Y02126D02*
Y02154D01*
X03286Y0214D02*
X03314D01*
X033Y02126D02*
Y02154D01*
X03106Y0208D02*
X03134D01*
X0312Y02066D02*
Y02094D01*
X03166Y0208D02*
X03194D01*
X0318Y02066D02*
Y02094D01*
X03226Y0208D02*
X03254D01*
X0324Y02066D02*
Y02094D01*
X03286Y0208D02*
X03314D01*
X033Y02066D02*
Y02094D01*
X03106Y0202D02*
X03134D01*
X0312Y02006D02*
Y02034D01*
X03166Y0202D02*
X03194D01*
X0318Y02006D02*
Y02034D01*
X03226Y0202D02*
X03254D01*
X0324Y02006D02*
Y02034D01*
X03286Y0202D02*
X03314D01*
X033Y02006D02*
Y02034D01*
X02946Y033D02*
X02974D01*
X0296Y03286D02*
Y03314D01*
X03006Y033D02*
X03034D01*
X0302Y03286D02*
Y03314D01*
X03066Y033D02*
X03094D01*
X0308Y03286D02*
Y03314D01*
X03126Y033D02*
X03154D01*
X0314Y03286D02*
Y03314D01*
X02946Y0324D02*
X02974D01*
X0296Y03226D02*
Y03254D01*
X03006Y0324D02*
X03034D01*
X0302Y03226D02*
Y03254D01*
X03066Y0324D02*
X03094D01*
X0308Y03226D02*
Y03254D01*
X03126Y0324D02*
X03154D01*
X0314Y03226D02*
Y03254D01*
X02946Y0318D02*
X02974D01*
X0296Y03166D02*
Y03194D01*
X03006Y0318D02*
X03034D01*
X0302Y03166D02*
Y03194D01*
X03066Y0318D02*
X03094D01*
X0308Y03166D02*
Y03194D01*
X03126Y0318D02*
X03154D01*
X0314Y03166D02*
Y03194D01*
X02946Y0266D02*
X02974D01*
X0296Y02646D02*
Y02674D01*
X03006Y0266D02*
X03034D01*
X0302Y02646D02*
Y02674D01*
X03066Y0266D02*
X03094D01*
X0308Y02646D02*
Y02674D01*
X03126Y0266D02*
X03154D01*
X0314Y02646D02*
Y02674D01*
X02946Y0272D02*
X02974D01*
X0296Y02706D02*
Y02734D01*
X03006Y0272D02*
X03034D01*
X0302Y02706D02*
Y02734D01*
X03066Y0272D02*
X03094D01*
X0308Y02706D02*
Y02734D01*
X03126Y0272D02*
X03154D01*
X0314Y02706D02*
Y02734D01*
X02946Y0278D02*
X02974D01*
X0296Y02766D02*
Y02794D01*
X03006Y0278D02*
X03034D01*
X0302Y02766D02*
Y02794D01*
X03066Y0278D02*
X03094D01*
X0308Y02766D02*
Y02794D01*
X03126Y0278D02*
X03154D01*
X0314Y02766D02*
Y02794D01*
X07026Y0358D02*
X07054D01*
X0704Y03566D02*
Y03594D01*
X07086Y0358D02*
X07114D01*
X071Y03566D02*
Y03594D01*
X07146Y0358D02*
X07174D01*
X0716Y03566D02*
Y03594D01*
X07026Y0352D02*
X07054D01*
X0704Y03506D02*
Y03534D01*
X07086Y0352D02*
X07114D01*
X071Y03506D02*
Y03534D01*
X07146Y0352D02*
X07174D01*
X0716Y03506D02*
Y03534D01*
X07086Y0346D02*
X07114D01*
X071Y03446D02*
Y03474D01*
X07146Y0346D02*
X07174D01*
X0716Y03446D02*
Y03474D01*
X07146Y034D02*
X07174D01*
X0716Y03386D02*
Y03414D01*
X06666Y0358D02*
X06694D01*
X0668Y03566D02*
Y03594D01*
X06726Y0358D02*
X06754D01*
X0674Y03566D02*
Y03594D01*
X06786Y0358D02*
X06814D01*
X068Y03566D02*
Y03594D01*
X06846Y0358D02*
X06874D01*
X0686Y03566D02*
Y03594D01*
X06666Y0352D02*
X06694D01*
X0668Y03506D02*
Y03534D01*
X06726Y0352D02*
X06754D01*
X0674Y03506D02*
Y03534D01*
X06786Y0352D02*
X06814D01*
X068Y03506D02*
Y03534D01*
X06846Y0352D02*
X06874D01*
X0686Y03506D02*
Y03534D01*
X06666Y0402D02*
X06694D01*
X0668Y04006D02*
Y04034D01*
X06726Y0402D02*
X06754D01*
X0674Y04006D02*
Y04034D01*
X06786Y0402D02*
X06814D01*
X068Y04006D02*
Y04034D01*
X06666Y0396D02*
X06694D01*
X0668Y03946D02*
Y03974D01*
X06726Y0396D02*
X06754D01*
X0674Y03946D02*
Y03974D01*
X06786Y0396D02*
X06814D01*
X068Y03946D02*
Y03974D01*
X06666Y039D02*
X06694D01*
X0668Y03886D02*
Y03914D01*
X06726Y039D02*
X06754D01*
X0674Y03886D02*
Y03914D01*
X06786Y039D02*
X06814D01*
X068Y03886D02*
Y03914D01*
X05746Y0642D02*
X05774D01*
X0576Y06406D02*
Y06434D01*
X05746Y0636D02*
X05774D01*
X0576Y06346D02*
Y06374D01*
X05746Y063D02*
X05774D01*
X0576Y06286D02*
Y06314D01*
X05746Y0624D02*
X05774D01*
X0576Y06226D02*
Y06254D01*
X05806Y0624D02*
X05834D01*
X0582Y06226D02*
Y06254D01*
X05806Y063D02*
X05834D01*
X0582Y06286D02*
Y06314D01*
X05806Y0636D02*
X05834D01*
X0582Y06346D02*
Y06374D01*
X05806Y0642D02*
X05834D01*
X0582Y06406D02*
Y06434D01*
X05866Y0642D02*
X05894D01*
X0588Y06406D02*
Y06434D01*
X05866Y0636D02*
X05894D01*
X0588Y06346D02*
Y06374D01*
X05866Y063D02*
X05894D01*
X0588Y06286D02*
Y06314D01*
X05866Y0624D02*
X05894D01*
X0588Y06226D02*
Y06254D01*
X06466Y0642D02*
X06494D01*
X0648Y06406D02*
Y06434D01*
X06526Y0642D02*
X06554D01*
X0654Y06406D02*
Y06434D01*
X06586Y0642D02*
X06614D01*
X066Y06406D02*
Y06434D01*
X06466Y0636D02*
X06494D01*
X0648Y06346D02*
Y06374D01*
X06526Y0636D02*
X06554D01*
X0654Y06346D02*
Y06374D01*
X06586Y0636D02*
X06614D01*
X066Y06346D02*
Y06374D01*
X06466Y063D02*
X06494D01*
X0648Y06286D02*
Y06314D01*
X06526Y063D02*
X06554D01*
X0654Y06286D02*
Y06314D01*
X06586Y063D02*
X06614D01*
X066Y06286D02*
Y06314D01*
X06466Y0624D02*
X06494D01*
X0648Y06226D02*
Y06254D01*
X06526Y0624D02*
X06554D01*
X0654Y06226D02*
Y06254D01*
X06586Y0624D02*
X06614D01*
X066Y06226D02*
Y06254D01*
X02606Y0654D02*
X02634D01*
X0262Y06526D02*
Y06554D01*
X02686Y0654D02*
X02714D01*
X027Y06526D02*
Y06554D01*
X02766Y0654D02*
X02794D01*
X0278Y06526D02*
Y06554D01*
X02766Y0648D02*
X02794D01*
X0278Y06466D02*
Y06494D01*
X02686Y0648D02*
X02714D01*
X027Y06466D02*
Y06494D01*
X02606Y0648D02*
X02634D01*
X0262Y06466D02*
Y06494D01*
X02606Y0642D02*
X02634D01*
X0262Y06406D02*
Y06434D01*
X02686Y0642D02*
X02714D01*
X027Y06406D02*
Y06434D01*
X02766Y0642D02*
X02794D01*
X0278Y06406D02*
Y06434D01*
X03646Y0214D02*
X03674D01*
X0366Y02126D02*
Y02154D01*
X07086Y0364D02*
X07114D01*
X071Y03626D02*
Y03654D01*
X07146Y0364D02*
X07174D01*
X0716Y03626D02*
Y03654D01*
X07146Y037D02*
X07174D01*
X0716Y03686D02*
Y03714D01*
X06386Y059D02*
X06414D01*
X064Y05886D02*
Y05914D01*
X06386Y0558D02*
X06414D01*
X064Y05566D02*
Y05594D01*
X06386Y0528D02*
X06414D01*
X064Y05266D02*
Y05294D01*
X06406Y0534D02*
X06434D01*
X0642Y05326D02*
Y05354D01*
X06386Y0496D02*
X06414D01*
X064Y04946D02*
Y04974D01*
X06386Y0464D02*
X06414D01*
X064Y04626D02*
Y04654D01*
X06386Y0432D02*
X06414D01*
X064Y04306D02*
Y04334D01*
X06386Y0402D02*
X06414D01*
X064Y04006D02*
Y04034D01*
X06386Y037D02*
X06414D01*
X064Y03686D02*
Y03714D01*
X05546Y0558D02*
X05574D01*
X0556Y05566D02*
Y05594D01*
X05544Y059123D02*
X05572D01*
X05558Y058983D02*
Y059263D01*
X05546Y0528D02*
X05574D01*
X0556Y05266D02*
Y05294D01*
X05546Y0496D02*
X05574D01*
X0556Y04946D02*
Y04974D01*
X05546Y0464D02*
X05574D01*
X0556Y04626D02*
Y04654D01*
X05546Y0432D02*
X05574D01*
X0556Y04306D02*
Y04334D01*
X05546Y0402D02*
X05574D01*
X0556Y04006D02*
Y04034D01*
X05546Y037D02*
X05574D01*
X0556Y03686D02*
Y03714D01*
X05546Y0338D02*
X05574D01*
X0556Y03366D02*
Y03394D01*
X05546Y0306D02*
X05574D01*
X0556Y03046D02*
Y03074D01*
X05546Y0276D02*
X05574D01*
X0556Y02746D02*
Y02774D01*
M02*
