G04 Layer_Color=65535*
%FSTAX24Y24*%
%MOIN*%
G70*
G01*
G75*
%ADD17C,0.0200*%
%ADD21C,0.0236*%
%ADD22C,0.0098*%
%ADD23C,0.0040*%
%ADD24C,0.0050*%
%ADD25C,0.0070*%
%ADD26C,0.0079*%
%ADD27C,0.0100*%
%ADD28C,0.0130*%
G36*
X05926Y02042D02*
X05876D01*
X05901Y02067D01*
X05926Y02042D01*
D02*
G37*
D17*
X0266Y02223D02*
X0276D01*
Y022896D01*
X0266Y023896D02*
Y02323D01*
X0276D01*
Y023896D01*
X0271Y02323D02*
Y023563D01*
X0266Y024229D02*
X0276D01*
Y024729D01*
X027433Y024896D01*
X026767D01*
X0266Y024729D01*
Y024229D01*
Y026229D02*
X0276D01*
Y026729D01*
X027433Y026895D01*
X027267D01*
X0271Y026729D01*
Y026229D01*
Y026729D01*
X026934Y026895D01*
X026767D01*
X0266Y026729D01*
Y026229D01*
Y027728D02*
Y027395D01*
X026767Y027228D01*
X027433D01*
X0276Y027395D01*
Y027728D01*
X027433Y027895D01*
X026767D01*
X0266Y027728D01*
X0276Y028228D02*
X026934D01*
X0266Y028561D01*
X026934Y028895D01*
X0276D01*
X0271D01*
Y028228D01*
X0276Y029228D02*
X0266D01*
Y029728D01*
X026767Y029894D01*
X0271D01*
X027267Y029728D01*
Y029228D01*
Y029561D02*
X0276Y029894D01*
X0266Y030227D02*
X0276D01*
Y030727D01*
X027433Y030894D01*
X026767D01*
X0266Y030727D01*
Y030227D01*
D21*
X044595Y023755D02*
G03*
X044595Y023755I-000118J0D01*
G01*
X069123Y026893D02*
G03*
X069123Y026893I-000118J0D01*
G01*
X067283Y058583D02*
G03*
X067283Y058583I-000118J0D01*
G01*
X029488D02*
G03*
X029488Y058583I-000118J0D01*
G01*
D22*
X044932Y02468D02*
G03*
X044932Y02468I-000049J0D01*
G01*
X069979Y026487D02*
G03*
X069979Y026487I-000049J0D01*
G01*
X066289Y058988D02*
G03*
X066289Y058988I-000049J0D01*
G01*
X028494D02*
G03*
X028494Y058988I-000049J0D01*
G01*
D23*
X06706Y02363D02*
X0674D01*
X06706Y02413D02*
X0674D01*
X04137Y02033D02*
X04171D01*
X04137Y01983D02*
X04171D01*
X04255Y01938D02*
Y01972D01*
X04305Y01938D02*
Y01972D01*
X04355Y01938D02*
Y01972D01*
X04405Y01938D02*
Y01972D01*
X0713Y0556D02*
X07164D01*
X0713Y0561D02*
X07164D01*
X0713Y056405D02*
X07164D01*
X0713Y056905D02*
X07164D01*
X0679Y06119D02*
X06824D01*
X0679Y06069D02*
X06824D01*
X03279Y05551D02*
Y05585D01*
X03329Y05551D02*
Y05585D01*
D24*
X06647Y02422D02*
X068D01*
X06647Y02355D02*
Y02422D01*
Y02355D02*
X068D01*
Y02422D01*
X04077Y01974D02*
X0423D01*
Y02041D01*
X04077D02*
X0423D01*
X04077Y01974D02*
Y02041D01*
X04314Y01878D02*
Y02031D01*
X04247D02*
X04314D01*
X04247Y01878D02*
Y02031D01*
Y01878D02*
X04314D01*
X04414D02*
Y02031D01*
X04347D02*
X04414D01*
X04347Y01878D02*
Y02031D01*
Y01878D02*
X04414D01*
X07071Y05619D02*
X07224D01*
X07071Y05552D02*
Y05619D01*
Y05552D02*
X07224D01*
Y05619D01*
X07071Y056995D02*
X07224D01*
X07071Y056325D02*
Y056995D01*
Y056325D02*
X07224D01*
Y056995D01*
X0673Y0606D02*
X06883D01*
Y06127D01*
X0673D02*
X06883D01*
X0673Y0606D02*
Y06127D01*
X03338Y05491D02*
Y05644D01*
X03271D02*
X03338D01*
X03271Y05491D02*
Y05644D01*
Y05491D02*
X03338D01*
D25*
X05844Y02203D02*
X06362D01*
X05844Y02081D02*
X06362D01*
X05844D02*
Y02203D01*
X06362Y02081D02*
Y02203D01*
X0595Y02083D02*
Y02201D01*
D26*
X048228Y06468D02*
X048428Y06488D01*
X049616D01*
X048599Y06353D02*
X050056D01*
X048228D02*
Y06468D01*
X049616Y06488D02*
X050378D01*
X050056Y06353D02*
X050378D01*
X048228D02*
X048599D01*
X050378D02*
Y06488D01*
X028428Y022154D02*
X028628Y022354D01*
X029816D01*
X028799Y021004D02*
X030256D01*
X028428D02*
Y022154D01*
X029816Y022354D02*
X030578D01*
X030256Y021004D02*
X030578D01*
X028428D02*
X028799D01*
X030578D02*
Y022354D01*
X03046Y06347D02*
X03066Y06367D01*
X029271Y06347D02*
X03046D01*
X028831Y06482D02*
X030289D01*
X03066Y06367D02*
Y06482D01*
X02851Y06347D02*
X029271D01*
X02851Y06482D02*
X028831D01*
X030289D02*
X03066D01*
X02851Y06347D02*
Y06482D01*
X063492Y028177D02*
X063692Y027977D01*
Y026788D02*
Y027977D01*
X062342Y026348D02*
Y027806D01*
Y028177D02*
X063492D01*
X063692Y026027D02*
Y026788D01*
X062342Y026027D02*
Y026348D01*
Y027806D02*
Y028177D01*
Y026027D02*
X063692D01*
X060736Y028177D02*
X060936Y027977D01*
Y026788D02*
Y027977D01*
X059586Y026348D02*
Y027806D01*
Y028177D02*
X060736D01*
X060936Y026027D02*
Y026788D01*
X059586Y026027D02*
Y026348D01*
Y027806D02*
Y028177D01*
Y026027D02*
X060936D01*
X05798Y028177D02*
X05818Y027977D01*
Y026788D02*
Y027977D01*
X05683Y026348D02*
Y027806D01*
Y028177D02*
X05798D01*
X05818Y026027D02*
Y026788D01*
X05683Y026027D02*
Y026348D01*
Y027806D02*
Y028177D01*
Y026027D02*
X05818D01*
X055224Y028177D02*
X055424Y027977D01*
Y026788D02*
Y027977D01*
X054074Y026348D02*
Y027806D01*
Y028177D02*
X055224D01*
X055424Y026027D02*
Y026788D01*
X054074Y026027D02*
Y026348D01*
Y027806D02*
Y028177D01*
Y026027D02*
X055424D01*
X052469Y028177D02*
X052668Y027977D01*
Y026788D02*
Y027977D01*
X051318Y026348D02*
Y027806D01*
Y028177D02*
X052469D01*
X052668Y026027D02*
Y026788D01*
X051318Y026027D02*
Y026348D01*
Y027806D02*
Y028177D01*
Y026027D02*
X052668D01*
X049713Y028177D02*
X049913Y027977D01*
Y026788D02*
Y027977D01*
X048563Y026348D02*
Y027806D01*
Y028177D02*
X049713D01*
X049913Y026027D02*
Y026788D01*
X048563Y026027D02*
Y026348D01*
Y027806D02*
Y028177D01*
Y026027D02*
X049913D01*
X046957Y028177D02*
X047157Y027977D01*
Y026788D02*
Y027977D01*
X045807Y026348D02*
Y027806D01*
Y028177D02*
X046957D01*
X047157Y026027D02*
Y026788D01*
X045807Y026027D02*
Y026348D01*
Y027806D02*
Y028177D01*
Y026027D02*
X047157D01*
X044201Y028177D02*
X044401Y027977D01*
Y026788D02*
Y027977D01*
X043051Y026348D02*
Y027806D01*
Y028177D02*
X044201D01*
X044401Y026027D02*
Y026788D01*
X043051Y026027D02*
Y026348D01*
Y027806D02*
Y028177D01*
Y026027D02*
X044401D01*
X041445Y028177D02*
X041645Y027977D01*
Y026788D02*
Y027977D01*
X040295Y026348D02*
Y027806D01*
Y028177D02*
X041445D01*
X041645Y026027D02*
Y026788D01*
X040295Y026027D02*
Y026348D01*
Y027806D02*
Y028177D01*
Y026027D02*
X041645D01*
X038689Y028177D02*
X038889Y027977D01*
Y026788D02*
Y027977D01*
X037539Y026348D02*
Y027806D01*
Y028177D02*
X038689D01*
X038889Y026027D02*
Y026788D01*
X037539Y026027D02*
Y026348D01*
Y027806D02*
Y028177D01*
Y026027D02*
X038889D01*
X035933Y028177D02*
X036133Y027977D01*
Y026788D02*
Y027977D01*
X034783Y026348D02*
Y027806D01*
Y028177D02*
X035933D01*
X036133Y026027D02*
Y026788D01*
X034783Y026027D02*
Y026348D01*
Y027806D02*
Y028177D01*
Y026027D02*
X036133D01*
X063492Y031326D02*
X063692Y031126D01*
Y029938D02*
Y031126D01*
X062342Y029498D02*
Y030955D01*
Y031326D02*
X063492D01*
X063692Y029176D02*
Y029938D01*
X062342Y029176D02*
Y029498D01*
Y030955D02*
Y031326D01*
Y029176D02*
X063692D01*
X060736Y031326D02*
X060936Y031126D01*
Y029938D02*
Y031126D01*
X059586Y029498D02*
Y030955D01*
Y031326D02*
X060736D01*
X060936Y029176D02*
Y029938D01*
X059586Y029176D02*
Y029498D01*
Y030955D02*
Y031326D01*
Y029176D02*
X060936D01*
X05798Y031326D02*
X05818Y031126D01*
Y029938D02*
Y031126D01*
X05683Y029498D02*
Y030955D01*
Y031326D02*
X05798D01*
X05818Y029176D02*
Y029938D01*
X05683Y029176D02*
Y029498D01*
Y030955D02*
Y031326D01*
Y029176D02*
X05818D01*
X055224Y031326D02*
X055424Y031126D01*
Y029938D02*
Y031126D01*
X054074Y029498D02*
Y030955D01*
Y031326D02*
X055224D01*
X055424Y029176D02*
Y029938D01*
X054074Y029176D02*
Y029498D01*
Y030955D02*
Y031326D01*
Y029176D02*
X055424D01*
X052469Y031326D02*
X052668Y031126D01*
Y029938D02*
Y031126D01*
X051318Y029498D02*
Y030955D01*
Y031326D02*
X052469D01*
X052668Y029176D02*
Y029938D01*
X051318Y029176D02*
Y029498D01*
Y030955D02*
Y031326D01*
Y029176D02*
X052668D01*
X049713Y031326D02*
X049913Y031126D01*
Y029938D02*
Y031126D01*
X048563Y029498D02*
Y030955D01*
Y031326D02*
X049713D01*
X049913Y029176D02*
Y029938D01*
X048563Y029176D02*
Y029498D01*
Y030955D02*
Y031326D01*
Y029176D02*
X049913D01*
X046957Y031326D02*
X047157Y031126D01*
Y029938D02*
Y031126D01*
X045807Y029498D02*
Y030955D01*
Y031326D02*
X046957D01*
X047157Y029176D02*
Y029938D01*
X045807Y029176D02*
Y029498D01*
Y030955D02*
Y031326D01*
Y029176D02*
X047157D01*
X044201Y031326D02*
X044401Y031126D01*
Y029938D02*
Y031126D01*
X043051Y029498D02*
Y030955D01*
Y031326D02*
X044201D01*
X044401Y029176D02*
Y029938D01*
X043051Y029176D02*
Y029498D01*
Y030955D02*
Y031326D01*
Y029176D02*
X044401D01*
X041445Y031326D02*
X041645Y031126D01*
Y029938D02*
Y031126D01*
X040295Y029498D02*
Y030955D01*
Y031326D02*
X041445D01*
X041645Y029176D02*
Y029938D01*
X040295Y029176D02*
Y029498D01*
Y030955D02*
Y031326D01*
Y029176D02*
X041645D01*
X038689Y031326D02*
X038889Y031126D01*
Y029938D02*
Y031126D01*
X037539Y029498D02*
Y030955D01*
Y031326D02*
X038689D01*
X038889Y029176D02*
Y029938D01*
X037539Y029176D02*
Y029498D01*
Y030955D02*
Y031326D01*
Y029176D02*
X038889D01*
X035933Y031326D02*
X036133Y031126D01*
Y029938D02*
Y031126D01*
X034783Y029498D02*
Y030955D01*
Y031326D02*
X035933D01*
X036133Y029176D02*
Y029938D01*
X034783Y029176D02*
Y029498D01*
Y030955D02*
Y031326D01*
Y029176D02*
X036133D01*
X063492Y034476D02*
X063692Y034276D01*
Y033087D02*
Y034276D01*
X062342Y032647D02*
Y034105D01*
Y034476D02*
X063492D01*
X063692Y032326D02*
Y033087D01*
X062342Y032326D02*
Y032647D01*
Y034105D02*
Y034476D01*
Y032326D02*
X063692D01*
X060736Y034476D02*
X060936Y034276D01*
Y033087D02*
Y034276D01*
X059586Y032647D02*
Y034105D01*
Y034476D02*
X060736D01*
X060936Y032326D02*
Y033087D01*
X059586Y032326D02*
Y032647D01*
Y034105D02*
Y034476D01*
Y032326D02*
X060936D01*
X05798Y034476D02*
X05818Y034276D01*
Y033087D02*
Y034276D01*
X05683Y032647D02*
Y034105D01*
Y034476D02*
X05798D01*
X05818Y032326D02*
Y033087D01*
X05683Y032326D02*
Y032647D01*
Y034105D02*
Y034476D01*
Y032326D02*
X05818D01*
X055224Y034476D02*
X055424Y034276D01*
Y033087D02*
Y034276D01*
X054074Y032647D02*
Y034105D01*
Y034476D02*
X055224D01*
X055424Y032326D02*
Y033087D01*
X054074Y032326D02*
Y032647D01*
Y034105D02*
Y034476D01*
Y032326D02*
X055424D01*
X052469Y034476D02*
X052668Y034276D01*
Y033087D02*
Y034276D01*
X051318Y032647D02*
Y034105D01*
Y034476D02*
X052469D01*
X052668Y032326D02*
Y033087D01*
X051318Y032326D02*
Y032647D01*
Y034105D02*
Y034476D01*
Y032326D02*
X052668D01*
X049713Y034476D02*
X049913Y034276D01*
Y033087D02*
Y034276D01*
X048563Y032647D02*
Y034105D01*
Y034476D02*
X049713D01*
X049913Y032326D02*
Y033087D01*
X048563Y032326D02*
Y032647D01*
Y034105D02*
Y034476D01*
Y032326D02*
X049913D01*
X046957Y034476D02*
X047157Y034276D01*
Y033087D02*
Y034276D01*
X045807Y032647D02*
Y034105D01*
Y034476D02*
X046957D01*
X047157Y032326D02*
Y033087D01*
X045807Y032326D02*
Y032647D01*
Y034105D02*
Y034476D01*
Y032326D02*
X047157D01*
X044201Y034476D02*
X044401Y034276D01*
Y033087D02*
Y034276D01*
X043051Y032647D02*
Y034105D01*
Y034476D02*
X044201D01*
X044401Y032326D02*
Y033087D01*
X043051Y032326D02*
Y032647D01*
Y034105D02*
Y034476D01*
Y032326D02*
X044401D01*
X041445Y034476D02*
X041645Y034276D01*
Y033087D02*
Y034276D01*
X040295Y032647D02*
Y034105D01*
Y034476D02*
X041445D01*
X041645Y032326D02*
Y033087D01*
X040295Y032326D02*
Y032647D01*
Y034105D02*
Y034476D01*
Y032326D02*
X041645D01*
X038689Y034476D02*
X038889Y034276D01*
Y033087D02*
Y034276D01*
X037539Y032647D02*
Y034105D01*
Y034476D02*
X038689D01*
X038889Y032326D02*
Y033087D01*
X037539Y032326D02*
Y032647D01*
Y034105D02*
Y034476D01*
Y032326D02*
X038889D01*
X035933Y034476D02*
X036133Y034276D01*
Y033087D02*
Y034276D01*
X034783Y032647D02*
Y034105D01*
Y034476D02*
X035933D01*
X036133Y032326D02*
Y033087D01*
X034783Y032326D02*
Y032647D01*
Y034105D02*
Y034476D01*
Y032326D02*
X036133D01*
X063492Y037626D02*
X063692Y037426D01*
Y036237D02*
Y037426D01*
X062342Y035797D02*
Y037254D01*
Y037626D02*
X063492D01*
X063692Y035476D02*
Y036237D01*
X062342Y035476D02*
Y035797D01*
Y037254D02*
Y037626D01*
Y035476D02*
X063692D01*
X060736Y037626D02*
X060936Y037426D01*
Y036237D02*
Y037426D01*
X059586Y035797D02*
Y037254D01*
Y037626D02*
X060736D01*
X060936Y035476D02*
Y036237D01*
X059586Y035476D02*
Y035797D01*
Y037254D02*
Y037626D01*
Y035476D02*
X060936D01*
X05798Y037626D02*
X05818Y037426D01*
Y036237D02*
Y037426D01*
X05683Y035797D02*
Y037254D01*
Y037626D02*
X05798D01*
X05818Y035476D02*
Y036237D01*
X05683Y035476D02*
Y035797D01*
Y037254D02*
Y037626D01*
Y035476D02*
X05818D01*
X055224Y037626D02*
X055424Y037426D01*
Y036237D02*
Y037426D01*
X054074Y035797D02*
Y037254D01*
Y037626D02*
X055224D01*
X055424Y035476D02*
Y036237D01*
X054074Y035476D02*
Y035797D01*
Y037254D02*
Y037626D01*
Y035476D02*
X055424D01*
X052469Y037626D02*
X052668Y037426D01*
Y036237D02*
Y037426D01*
X051318Y035797D02*
Y037254D01*
Y037626D02*
X052469D01*
X052668Y035476D02*
Y036237D01*
X051318Y035476D02*
Y035797D01*
Y037254D02*
Y037626D01*
Y035476D02*
X052668D01*
X049713Y037626D02*
X049913Y037426D01*
Y036237D02*
Y037426D01*
X048563Y035797D02*
Y037254D01*
Y037626D02*
X049713D01*
X049913Y035476D02*
Y036237D01*
X048563Y035476D02*
Y035797D01*
Y037254D02*
Y037626D01*
Y035476D02*
X049913D01*
X046957Y037626D02*
X047157Y037426D01*
Y036237D02*
Y037426D01*
X045807Y035797D02*
Y037254D01*
Y037626D02*
X046957D01*
X047157Y035476D02*
Y036237D01*
X045807Y035476D02*
Y035797D01*
Y037254D02*
Y037626D01*
Y035476D02*
X047157D01*
X044201Y037626D02*
X044401Y037426D01*
Y036237D02*
Y037426D01*
X043051Y035797D02*
Y037254D01*
Y037626D02*
X044201D01*
X044401Y035476D02*
Y036237D01*
X043051Y035476D02*
Y035797D01*
Y037254D02*
Y037626D01*
Y035476D02*
X044401D01*
X041445Y037626D02*
X041645Y037426D01*
Y036237D02*
Y037426D01*
X040295Y035797D02*
Y037254D01*
Y037626D02*
X041445D01*
X041645Y035476D02*
Y036237D01*
X040295Y035476D02*
Y035797D01*
Y037254D02*
Y037626D01*
Y035476D02*
X041645D01*
X038689Y037626D02*
X038889Y037426D01*
Y036237D02*
Y037426D01*
X037539Y035797D02*
Y037254D01*
Y037626D02*
X038689D01*
X038889Y035476D02*
Y036237D01*
X037539Y035476D02*
Y035797D01*
Y037254D02*
Y037626D01*
Y035476D02*
X038889D01*
X035933Y037626D02*
X036133Y037426D01*
Y036237D02*
Y037426D01*
X034783Y035797D02*
Y037254D01*
Y037626D02*
X035933D01*
X036133Y035476D02*
Y036237D01*
X034783Y035476D02*
Y035797D01*
Y037254D02*
Y037626D01*
Y035476D02*
X036133D01*
X063492Y040775D02*
X063692Y040575D01*
Y039387D02*
Y040575D01*
X062342Y038946D02*
Y040404D01*
Y040775D02*
X063492D01*
X063692Y038625D02*
Y039387D01*
X062342Y038625D02*
Y038946D01*
Y040404D02*
Y040775D01*
Y038625D02*
X063692D01*
X060736Y040775D02*
X060936Y040575D01*
Y039387D02*
Y040575D01*
X059586Y038946D02*
Y040404D01*
Y040775D02*
X060736D01*
X060936Y038625D02*
Y039387D01*
X059586Y038625D02*
Y038946D01*
Y040404D02*
Y040775D01*
Y038625D02*
X060936D01*
X05798Y040775D02*
X05818Y040575D01*
Y039387D02*
Y040575D01*
X05683Y038946D02*
Y040404D01*
Y040775D02*
X05798D01*
X05818Y038625D02*
Y039387D01*
X05683Y038625D02*
Y038946D01*
Y040404D02*
Y040775D01*
Y038625D02*
X05818D01*
X055224Y040775D02*
X055424Y040575D01*
Y039387D02*
Y040575D01*
X054074Y038946D02*
Y040404D01*
Y040775D02*
X055224D01*
X055424Y038625D02*
Y039387D01*
X054074Y038625D02*
Y038946D01*
Y040404D02*
Y040775D01*
Y038625D02*
X055424D01*
X052469Y040775D02*
X052668Y040575D01*
Y039387D02*
Y040575D01*
X051318Y038946D02*
Y040404D01*
Y040775D02*
X052469D01*
X052668Y038625D02*
Y039387D01*
X051318Y038625D02*
Y038946D01*
Y040404D02*
Y040775D01*
Y038625D02*
X052668D01*
X049713Y040775D02*
X049913Y040575D01*
Y039387D02*
Y040575D01*
X048563Y038946D02*
Y040404D01*
Y040775D02*
X049713D01*
X049913Y038625D02*
Y039387D01*
X048563Y038625D02*
Y038946D01*
Y040404D02*
Y040775D01*
Y038625D02*
X049913D01*
X046957Y040775D02*
X047157Y040575D01*
Y039387D02*
Y040575D01*
X045807Y038946D02*
Y040404D01*
Y040775D02*
X046957D01*
X047157Y038625D02*
Y039387D01*
X045807Y038625D02*
Y038946D01*
Y040404D02*
Y040775D01*
Y038625D02*
X047157D01*
X044201Y040775D02*
X044401Y040575D01*
Y039387D02*
Y040575D01*
X043051Y038946D02*
Y040404D01*
Y040775D02*
X044201D01*
X044401Y038625D02*
Y039387D01*
X043051Y038625D02*
Y038946D01*
Y040404D02*
Y040775D01*
Y038625D02*
X044401D01*
X041445Y040775D02*
X041645Y040575D01*
Y039387D02*
Y040575D01*
X040295Y038946D02*
Y040404D01*
Y040775D02*
X041445D01*
X041645Y038625D02*
Y039387D01*
X040295Y038625D02*
Y038946D01*
Y040404D02*
Y040775D01*
Y038625D02*
X041645D01*
X038689Y040775D02*
X038889Y040575D01*
Y039387D02*
Y040575D01*
X037539Y038946D02*
Y040404D01*
Y040775D02*
X038689D01*
X038889Y038625D02*
Y039387D01*
X037539Y038625D02*
Y038946D01*
Y040404D02*
Y040775D01*
Y038625D02*
X038889D01*
X035933Y040775D02*
X036133Y040575D01*
Y039387D02*
Y040575D01*
X034783Y038946D02*
Y040404D01*
Y040775D02*
X035933D01*
X036133Y038625D02*
Y039387D01*
X034783Y038625D02*
Y038946D01*
Y040404D02*
Y040775D01*
Y038625D02*
X036133D01*
X063492Y043925D02*
X063692Y043725D01*
Y042536D02*
Y043725D01*
X062342Y042096D02*
Y043554D01*
Y043925D02*
X063492D01*
X063692Y041775D02*
Y042536D01*
X062342Y041775D02*
Y042096D01*
Y043554D02*
Y043925D01*
Y041775D02*
X063692D01*
X060736Y043925D02*
X060936Y043725D01*
Y042536D02*
Y043725D01*
X059586Y042096D02*
Y043554D01*
Y043925D02*
X060736D01*
X060936Y041775D02*
Y042536D01*
X059586Y041775D02*
Y042096D01*
Y043554D02*
Y043925D01*
Y041775D02*
X060936D01*
X05798Y043925D02*
X05818Y043725D01*
Y042536D02*
Y043725D01*
X05683Y042096D02*
Y043554D01*
Y043925D02*
X05798D01*
X05818Y041775D02*
Y042536D01*
X05683Y041775D02*
Y042096D01*
Y043554D02*
Y043925D01*
Y041775D02*
X05818D01*
X055224Y043925D02*
X055424Y043725D01*
Y042536D02*
Y043725D01*
X054074Y042096D02*
Y043554D01*
Y043925D02*
X055224D01*
X055424Y041775D02*
Y042536D01*
X054074Y041775D02*
Y042096D01*
Y043554D02*
Y043925D01*
Y041775D02*
X055424D01*
X052469Y043925D02*
X052668Y043725D01*
Y042536D02*
Y043725D01*
X051318Y042096D02*
Y043554D01*
Y043925D02*
X052469D01*
X052668Y041775D02*
Y042536D01*
X051318Y041775D02*
Y042096D01*
Y043554D02*
Y043925D01*
Y041775D02*
X052668D01*
X049713Y043925D02*
X049913Y043725D01*
Y042536D02*
Y043725D01*
X048563Y042096D02*
Y043554D01*
Y043925D02*
X049713D01*
X049913Y041775D02*
Y042536D01*
X048563Y041775D02*
Y042096D01*
Y043554D02*
Y043925D01*
Y041775D02*
X049913D01*
X046957Y043925D02*
X047157Y043725D01*
Y042536D02*
Y043725D01*
X045807Y042096D02*
Y043554D01*
Y043925D02*
X046957D01*
X047157Y041775D02*
Y042536D01*
X045807Y041775D02*
Y042096D01*
Y043554D02*
Y043925D01*
Y041775D02*
X047157D01*
X044201Y043925D02*
X044401Y043725D01*
Y042536D02*
Y043725D01*
X043051Y042096D02*
Y043554D01*
Y043925D02*
X044201D01*
X044401Y041775D02*
Y042536D01*
X043051Y041775D02*
Y042096D01*
Y043554D02*
Y043925D01*
Y041775D02*
X044401D01*
X041445Y043925D02*
X041645Y043725D01*
Y042536D02*
Y043725D01*
X040295Y042096D02*
Y043554D01*
Y043925D02*
X041445D01*
X041645Y041775D02*
Y042536D01*
X040295Y041775D02*
Y042096D01*
Y043554D02*
Y043925D01*
Y041775D02*
X041645D01*
X038689Y043925D02*
X038889Y043725D01*
Y042536D02*
Y043725D01*
X037539Y042096D02*
Y043554D01*
Y043925D02*
X038689D01*
X038889Y041775D02*
Y042536D01*
X037539Y041775D02*
Y042096D01*
Y043554D02*
Y043925D01*
Y041775D02*
X038889D01*
X035933Y043925D02*
X036133Y043725D01*
Y042536D02*
Y043725D01*
X034783Y042096D02*
Y043554D01*
Y043925D02*
X035933D01*
X036133Y041775D02*
Y042536D01*
X034783Y041775D02*
Y042096D01*
Y043554D02*
Y043925D01*
Y041775D02*
X036133D01*
X063492Y047074D02*
X063692Y046874D01*
Y045686D02*
Y046874D01*
X062342Y045246D02*
Y046703D01*
Y047074D02*
X063492D01*
X063692Y044924D02*
Y045686D01*
X062342Y044924D02*
Y045246D01*
Y046703D02*
Y047074D01*
Y044924D02*
X063692D01*
X060736Y047074D02*
X060936Y046874D01*
Y045686D02*
Y046874D01*
X059586Y045246D02*
Y046703D01*
Y047074D02*
X060736D01*
X060936Y044924D02*
Y045686D01*
X059586Y044924D02*
Y045246D01*
Y046703D02*
Y047074D01*
Y044924D02*
X060936D01*
X05798Y047074D02*
X05818Y046874D01*
Y045686D02*
Y046874D01*
X05683Y045246D02*
Y046703D01*
Y047074D02*
X05798D01*
X05818Y044924D02*
Y045686D01*
X05683Y044924D02*
Y045246D01*
Y046703D02*
Y047074D01*
Y044924D02*
X05818D01*
X055224Y047074D02*
X055424Y046874D01*
Y045686D02*
Y046874D01*
X054074Y045246D02*
Y046703D01*
Y047074D02*
X055224D01*
X055424Y044924D02*
Y045686D01*
X054074Y044924D02*
Y045246D01*
Y046703D02*
Y047074D01*
Y044924D02*
X055424D01*
X052469Y047074D02*
X052668Y046874D01*
Y045686D02*
Y046874D01*
X051318Y045246D02*
Y046703D01*
Y047074D02*
X052469D01*
X052668Y044924D02*
Y045686D01*
X051318Y044924D02*
Y045246D01*
Y046703D02*
Y047074D01*
Y044924D02*
X052668D01*
X049713Y047074D02*
X049913Y046874D01*
Y045686D02*
Y046874D01*
X048563Y045246D02*
Y046703D01*
Y047074D02*
X049713D01*
X049913Y044924D02*
Y045686D01*
X048563Y044924D02*
Y045246D01*
Y046703D02*
Y047074D01*
Y044924D02*
X049913D01*
X046957Y047074D02*
X047157Y046874D01*
Y045686D02*
Y046874D01*
X045807Y045246D02*
Y046703D01*
Y047074D02*
X046957D01*
X047157Y044924D02*
Y045686D01*
X045807Y044924D02*
Y045246D01*
Y046703D02*
Y047074D01*
Y044924D02*
X047157D01*
X044201Y047074D02*
X044401Y046874D01*
Y045686D02*
Y046874D01*
X043051Y045246D02*
Y046703D01*
Y047074D02*
X044201D01*
X044401Y044924D02*
Y045686D01*
X043051Y044924D02*
Y045246D01*
Y046703D02*
Y047074D01*
Y044924D02*
X044401D01*
X041445Y047074D02*
X041645Y046874D01*
Y045686D02*
Y046874D01*
X040295Y045246D02*
Y046703D01*
Y047074D02*
X041445D01*
X041645Y044924D02*
Y045686D01*
X040295Y044924D02*
Y045246D01*
Y046703D02*
Y047074D01*
Y044924D02*
X041645D01*
X038689Y047074D02*
X038889Y046874D01*
Y045686D02*
Y046874D01*
X037539Y045246D02*
Y046703D01*
Y047074D02*
X038689D01*
X038889Y044924D02*
Y045686D01*
X037539Y044924D02*
Y045246D01*
Y046703D02*
Y047074D01*
Y044924D02*
X038889D01*
X035933Y047074D02*
X036133Y046874D01*
Y045686D02*
Y046874D01*
X034783Y045246D02*
Y046703D01*
Y047074D02*
X035933D01*
X036133Y044924D02*
Y045686D01*
X034783Y044924D02*
Y045246D01*
Y046703D02*
Y047074D01*
Y044924D02*
X036133D01*
X063492Y050224D02*
X063692Y050024D01*
Y048835D02*
Y050024D01*
X062342Y048395D02*
Y049853D01*
Y050224D02*
X063492D01*
X063692Y048074D02*
Y048835D01*
X062342Y048074D02*
Y048395D01*
Y049853D02*
Y050224D01*
Y048074D02*
X063692D01*
X060736Y050224D02*
X060936Y050024D01*
Y048835D02*
Y050024D01*
X059586Y048395D02*
Y049853D01*
Y050224D02*
X060736D01*
X060936Y048074D02*
Y048835D01*
X059586Y048074D02*
Y048395D01*
Y049853D02*
Y050224D01*
Y048074D02*
X060936D01*
X05798Y050224D02*
X05818Y050024D01*
Y048835D02*
Y050024D01*
X05683Y048395D02*
Y049853D01*
Y050224D02*
X05798D01*
X05818Y048074D02*
Y048835D01*
X05683Y048074D02*
Y048395D01*
Y049853D02*
Y050224D01*
Y048074D02*
X05818D01*
X055224Y050224D02*
X055424Y050024D01*
Y048835D02*
Y050024D01*
X054074Y048395D02*
Y049853D01*
Y050224D02*
X055224D01*
X055424Y048074D02*
Y048835D01*
X054074Y048074D02*
Y048395D01*
Y049853D02*
Y050224D01*
Y048074D02*
X055424D01*
X052469Y050224D02*
X052668Y050024D01*
Y048835D02*
Y050024D01*
X051318Y048395D02*
Y049853D01*
Y050224D02*
X052469D01*
X052668Y048074D02*
Y048835D01*
X051318Y048074D02*
Y048395D01*
Y049853D02*
Y050224D01*
Y048074D02*
X052668D01*
X049713Y050224D02*
X049913Y050024D01*
Y048835D02*
Y050024D01*
X048563Y048395D02*
Y049853D01*
Y050224D02*
X049713D01*
X049913Y048074D02*
Y048835D01*
X048563Y048074D02*
Y048395D01*
Y049853D02*
Y050224D01*
Y048074D02*
X049913D01*
X046957Y050224D02*
X047157Y050024D01*
Y048835D02*
Y050024D01*
X045807Y048395D02*
Y049853D01*
Y050224D02*
X046957D01*
X047157Y048074D02*
Y048835D01*
X045807Y048074D02*
Y048395D01*
Y049853D02*
Y050224D01*
Y048074D02*
X047157D01*
X044201Y050224D02*
X044401Y050024D01*
Y048835D02*
Y050024D01*
X043051Y048395D02*
Y049853D01*
Y050224D02*
X044201D01*
X044401Y048074D02*
Y048835D01*
X043051Y048074D02*
Y048395D01*
Y049853D02*
Y050224D01*
Y048074D02*
X044401D01*
X041445Y050224D02*
X041645Y050024D01*
Y048835D02*
Y050024D01*
X040295Y048395D02*
Y049853D01*
Y050224D02*
X041445D01*
X041645Y048074D02*
Y048835D01*
X040295Y048074D02*
Y048395D01*
Y049853D02*
Y050224D01*
Y048074D02*
X041645D01*
X038689Y050224D02*
X038889Y050024D01*
Y048835D02*
Y050024D01*
X037539Y048395D02*
Y049853D01*
Y050224D02*
X038689D01*
X038889Y048074D02*
Y048835D01*
X037539Y048074D02*
Y048395D01*
Y049853D02*
Y050224D01*
Y048074D02*
X038889D01*
X035933Y050224D02*
X036133Y050024D01*
Y048835D02*
Y050024D01*
X034783Y048395D02*
Y049853D01*
Y050224D02*
X035933D01*
X036133Y048074D02*
Y048835D01*
X034783Y048074D02*
Y048395D01*
Y049853D02*
Y050224D01*
Y048074D02*
X036133D01*
X063492Y053374D02*
X063692Y053174D01*
Y051985D02*
Y053174D01*
X062342Y051545D02*
Y053002D01*
Y053374D02*
X063492D01*
X063692Y051224D02*
Y051985D01*
X062342Y051224D02*
Y051545D01*
Y053002D02*
Y053374D01*
Y051224D02*
X063692D01*
X060736Y053374D02*
X060936Y053174D01*
Y051985D02*
Y053174D01*
X059586Y051545D02*
Y053002D01*
Y053374D02*
X060736D01*
X060936Y051224D02*
Y051985D01*
X059586Y051224D02*
Y051545D01*
Y053002D02*
Y053374D01*
Y051224D02*
X060936D01*
X05798Y053374D02*
X05818Y053174D01*
Y051985D02*
Y053174D01*
X05683Y051545D02*
Y053002D01*
Y053374D02*
X05798D01*
X05818Y051224D02*
Y051985D01*
X05683Y051224D02*
Y051545D01*
Y053002D02*
Y053374D01*
Y051224D02*
X05818D01*
X055224Y053374D02*
X055424Y053174D01*
Y051985D02*
Y053174D01*
X054074Y051545D02*
Y053002D01*
Y053374D02*
X055224D01*
X055424Y051224D02*
Y051985D01*
X054074Y051224D02*
Y051545D01*
Y053002D02*
Y053374D01*
Y051224D02*
X055424D01*
X052469Y053374D02*
X052668Y053174D01*
Y051985D02*
Y053174D01*
X051318Y051545D02*
Y053002D01*
Y053374D02*
X052469D01*
X052668Y051224D02*
Y051985D01*
X051318Y051224D02*
Y051545D01*
Y053002D02*
Y053374D01*
Y051224D02*
X052668D01*
X049713Y053374D02*
X049913Y053174D01*
Y051985D02*
Y053174D01*
X048563Y051545D02*
Y053002D01*
Y053374D02*
X049713D01*
X049913Y051224D02*
Y051985D01*
X048563Y051224D02*
Y051545D01*
Y053002D02*
Y053374D01*
Y051224D02*
X049913D01*
X046957Y053374D02*
X047157Y053174D01*
Y051985D02*
Y053174D01*
X045807Y051545D02*
Y053002D01*
Y053374D02*
X046957D01*
X047157Y051224D02*
Y051985D01*
X045807Y051224D02*
Y051545D01*
Y053002D02*
Y053374D01*
Y051224D02*
X047157D01*
X044201Y053374D02*
X044401Y053174D01*
Y051985D02*
Y053174D01*
X043051Y051545D02*
Y053002D01*
Y053374D02*
X044201D01*
X044401Y051224D02*
Y051985D01*
X043051Y051224D02*
Y051545D01*
Y053002D02*
Y053374D01*
Y051224D02*
X044401D01*
X041445Y053374D02*
X041645Y053174D01*
Y051985D02*
Y053174D01*
X040295Y051545D02*
Y053002D01*
Y053374D02*
X041445D01*
X041645Y051224D02*
Y051985D01*
X040295Y051224D02*
Y051545D01*
Y053002D02*
Y053374D01*
Y051224D02*
X041645D01*
X038689Y053374D02*
X038889Y053174D01*
Y051985D02*
Y053174D01*
X037539Y051545D02*
Y053002D01*
Y053374D02*
X038689D01*
X038889Y051224D02*
Y051985D01*
X037539Y051224D02*
Y051545D01*
Y053002D02*
Y053374D01*
Y051224D02*
X038889D01*
X035933Y053374D02*
X036133Y053174D01*
Y051985D02*
Y053174D01*
X034783Y051545D02*
Y053002D01*
Y053374D02*
X035933D01*
X036133Y051224D02*
Y051985D01*
X034783Y051224D02*
Y051545D01*
Y053002D02*
Y053374D01*
Y051224D02*
X036133D01*
X063492Y056523D02*
X063692Y056323D01*
Y055135D02*
Y056323D01*
X062342Y054694D02*
Y056152D01*
Y056523D02*
X063492D01*
X063692Y054373D02*
Y055135D01*
X062342Y054373D02*
Y054694D01*
Y056152D02*
Y056523D01*
Y054373D02*
X063692D01*
X060736Y056523D02*
X060936Y056323D01*
Y055135D02*
Y056323D01*
X059586Y054694D02*
Y056152D01*
Y056523D02*
X060736D01*
X060936Y054373D02*
Y055135D01*
X059586Y054373D02*
Y054694D01*
Y056152D02*
Y056523D01*
Y054373D02*
X060936D01*
X05798Y056523D02*
X05818Y056323D01*
Y055135D02*
Y056323D01*
X05683Y054694D02*
Y056152D01*
Y056523D02*
X05798D01*
X05818Y054373D02*
Y055135D01*
X05683Y054373D02*
Y054694D01*
Y056152D02*
Y056523D01*
Y054373D02*
X05818D01*
X055224Y056523D02*
X055424Y056323D01*
Y055135D02*
Y056323D01*
X054074Y054694D02*
Y056152D01*
Y056523D02*
X055224D01*
X055424Y054373D02*
Y055135D01*
X054074Y054373D02*
Y054694D01*
Y056152D02*
Y056523D01*
Y054373D02*
X055424D01*
X052469Y056523D02*
X052668Y056323D01*
Y055135D02*
Y056323D01*
X051318Y054694D02*
Y056152D01*
Y056523D02*
X052469D01*
X052668Y054373D02*
Y055135D01*
X051318Y054373D02*
Y054694D01*
Y056152D02*
Y056523D01*
Y054373D02*
X052668D01*
X049713Y056523D02*
X049913Y056323D01*
Y055135D02*
Y056323D01*
X048563Y054694D02*
Y056152D01*
Y056523D02*
X049713D01*
X049913Y054373D02*
Y055135D01*
X048563Y054373D02*
Y054694D01*
Y056152D02*
Y056523D01*
Y054373D02*
X049913D01*
X046957Y056523D02*
X047157Y056323D01*
Y055135D02*
Y056323D01*
X045807Y054694D02*
Y056152D01*
Y056523D02*
X046957D01*
X047157Y054373D02*
Y055135D01*
X045807Y054373D02*
Y054694D01*
Y056152D02*
Y056523D01*
Y054373D02*
X047157D01*
X044201Y056523D02*
X044401Y056323D01*
Y055135D02*
Y056323D01*
X043051Y054694D02*
Y056152D01*
Y056523D02*
X044201D01*
X044401Y054373D02*
Y055135D01*
X043051Y054373D02*
Y054694D01*
Y056152D02*
Y056523D01*
Y054373D02*
X044401D01*
X041445Y056523D02*
X041645Y056323D01*
Y055135D02*
Y056323D01*
X040295Y054694D02*
Y056152D01*
Y056523D02*
X041445D01*
X041645Y054373D02*
Y055135D01*
X040295Y054373D02*
Y054694D01*
Y056152D02*
Y056523D01*
Y054373D02*
X041645D01*
X038689Y056523D02*
X038889Y056323D01*
Y055135D02*
Y056323D01*
X037539Y054694D02*
Y056152D01*
Y056523D02*
X038689D01*
X038889Y054373D02*
Y055135D01*
X037539Y054373D02*
Y054694D01*
Y056152D02*
Y056523D01*
Y054373D02*
X038889D01*
X035933Y056523D02*
X036133Y056323D01*
Y055135D02*
Y056323D01*
X034783Y054694D02*
Y056152D01*
Y056523D02*
X035933D01*
X036133Y054373D02*
Y055135D01*
X034783Y054373D02*
Y054694D01*
Y056152D02*
Y056523D01*
Y054373D02*
X036133D01*
X063492Y059673D02*
X063692Y059473D01*
Y058284D02*
Y059473D01*
X062342Y057844D02*
Y059302D01*
Y059673D02*
X063492D01*
X063692Y057523D02*
Y058284D01*
X062342Y057523D02*
Y057844D01*
Y059302D02*
Y059673D01*
Y057523D02*
X063692D01*
X060736Y059673D02*
X060936Y059473D01*
Y058284D02*
Y059473D01*
X059586Y057844D02*
Y059302D01*
Y059673D02*
X060736D01*
X060936Y057523D02*
Y058284D01*
X059586Y057523D02*
Y057844D01*
Y059302D02*
Y059673D01*
Y057523D02*
X060936D01*
X05798Y059673D02*
X05818Y059473D01*
Y058284D02*
Y059473D01*
X05683Y057844D02*
Y059302D01*
Y059673D02*
X05798D01*
X05818Y057523D02*
Y058284D01*
X05683Y057523D02*
Y057844D01*
Y059302D02*
Y059673D01*
Y057523D02*
X05818D01*
X055224Y059673D02*
X055424Y059473D01*
Y058284D02*
Y059473D01*
X054074Y057844D02*
Y059302D01*
Y059673D02*
X055224D01*
X055424Y057523D02*
Y058284D01*
X054074Y057523D02*
Y057844D01*
Y059302D02*
Y059673D01*
Y057523D02*
X055424D01*
X052469Y059673D02*
X052668Y059473D01*
Y058284D02*
Y059473D01*
X051318Y057844D02*
Y059302D01*
Y059673D02*
X052469D01*
X052668Y057523D02*
Y058284D01*
X051318Y057523D02*
Y057844D01*
Y059302D02*
Y059673D01*
Y057523D02*
X052668D01*
X049713Y059673D02*
X049913Y059473D01*
Y058284D02*
Y059473D01*
X048563Y057844D02*
Y059302D01*
Y059673D02*
X049713D01*
X049913Y057523D02*
Y058284D01*
X048563Y057523D02*
Y057844D01*
Y059302D02*
Y059673D01*
Y057523D02*
X049913D01*
X046957Y059673D02*
X047157Y059473D01*
Y058284D02*
Y059473D01*
X045807Y057844D02*
Y059302D01*
Y059673D02*
X046957D01*
X047157Y057523D02*
Y058284D01*
X045807Y057523D02*
Y057844D01*
Y059302D02*
Y059673D01*
Y057523D02*
X047157D01*
X044201Y059673D02*
X044401Y059473D01*
Y058284D02*
Y059473D01*
X043051Y057844D02*
Y059302D01*
Y059673D02*
X044201D01*
X044401Y057523D02*
Y058284D01*
X043051Y057523D02*
Y057844D01*
Y059302D02*
Y059673D01*
Y057523D02*
X044401D01*
X041445Y059673D02*
X041645Y059473D01*
Y058284D02*
Y059473D01*
X040295Y057844D02*
Y059302D01*
Y059673D02*
X041445D01*
X041645Y057523D02*
Y058284D01*
X040295Y057523D02*
Y057844D01*
Y059302D02*
Y059673D01*
Y057523D02*
X041645D01*
X038689Y059673D02*
X038889Y059473D01*
Y058284D02*
Y059473D01*
X037539Y057844D02*
Y059302D01*
Y059673D02*
X038689D01*
X038889Y057523D02*
Y058284D01*
X037539Y057523D02*
Y057844D01*
Y059302D02*
Y059673D01*
Y057523D02*
X038889D01*
X035933Y059673D02*
X036133Y059473D01*
Y058284D02*
Y059473D01*
X034783Y057844D02*
Y059302D01*
Y059673D02*
X035933D01*
X036133Y057523D02*
Y058284D01*
X034783Y057523D02*
Y057844D01*
Y059302D02*
Y059673D01*
Y057523D02*
X036133D01*
X070232Y02094D02*
X070432Y02114D01*
X069044Y02094D02*
X070232D01*
X068604Y02229D02*
X070061D01*
X070432Y02114D02*
Y02229D01*
X068282Y02094D02*
X069044D01*
X068282Y02229D02*
X068604D01*
X070061D02*
X070432D01*
X068282Y02094D02*
Y02229D01*
X070178Y06352D02*
X070378Y06372D01*
X068989Y06352D02*
X070178D01*
X068549Y06487D02*
X070006D01*
X070378Y06372D02*
Y06487D01*
X068228Y06352D02*
X068989D01*
X068228Y06487D02*
X068549D01*
X070006D02*
X070378D01*
X068228Y06352D02*
Y06487D01*
X038729Y021471D02*
Y024148D01*
X044871Y021471D02*
Y024148D01*
X038729Y021471D02*
X044871D01*
X038729Y024148D02*
X044871D01*
X066721Y032641D02*
X069399D01*
X066721Y026499D02*
X069399D01*
X066721D02*
Y032641D01*
X069399Y026499D02*
Y032641D01*
X066772Y052835D02*
X069449D01*
X066772Y058976D02*
X069449D01*
Y052835D02*
Y058976D01*
X066772Y052835D02*
Y058976D01*
X028976Y052835D02*
X031654D01*
X028976Y058976D02*
X031654D01*
Y052835D02*
Y058976D01*
X028976Y052835D02*
Y058976D01*
X0454Y023915D02*
Y023652D01*
X045452Y0236D01*
X045557D01*
X04561Y023652D01*
Y023915D01*
X045715Y023862D02*
X045767Y023915D01*
X045872D01*
X045925Y023862D01*
Y02381D01*
X045872Y023757D01*
X04582D01*
X045872D01*
X045925Y023705D01*
Y023652D01*
X045872Y0236D01*
X045767D01*
X045715Y023652D01*
X0666Y033315D02*
Y033052D01*
X066652Y033D01*
X066757D01*
X06681Y033052D01*
Y033315D01*
X067072Y033D02*
Y033315D01*
X066915Y033157D01*
X067125D01*
X0672Y059715D02*
Y059452D01*
X067252Y0594D01*
X067357D01*
X06741Y059452D01*
Y059715D01*
X067725Y0594D02*
X067515D01*
X067725Y05961D01*
Y059662D01*
X067672Y059715D01*
X067567D01*
X067515Y059662D01*
X0288Y059715D02*
Y059452D01*
X028852Y0594D01*
X028957D01*
X02901Y059452D01*
Y059715D01*
X029115Y0594D02*
X02922D01*
X029167D01*
Y059715D01*
X029115Y059662D01*
X06652Y02452D02*
Y024835D01*
X066677D01*
X06673Y024782D01*
Y024677D01*
X066677Y024625D01*
X06652D01*
X066625D02*
X06673Y02452D01*
X066992D02*
Y024835D01*
X066835Y024677D01*
X067045D01*
X04Y0198D02*
Y020115D01*
X040157D01*
X04021Y020062D01*
Y019957D01*
X040157Y019905D01*
X04D01*
X040105D02*
X04021Y0198D01*
X040315Y020062D02*
X040367Y020115D01*
X040472D01*
X040525Y020062D01*
Y02001D01*
X040472Y019957D01*
X04042D01*
X040472D01*
X040525Y019905D01*
Y019852D01*
X040472Y0198D01*
X040367D01*
X040315Y019852D01*
X0664Y0608D02*
Y061115D01*
X066557D01*
X06661Y061062D01*
Y060957D01*
X066557Y060905D01*
X0664D01*
X066505D02*
X06661Y0608D01*
X066925D02*
X066715D01*
X066925Y06101D01*
Y061062D01*
X066872Y061115D01*
X066767D01*
X066715Y061062D01*
X0338Y0554D02*
Y055715D01*
X033957D01*
X03401Y055662D01*
Y055557D01*
X033957Y055505D01*
X0338D01*
X033905D02*
X03401Y0554D01*
X034115D02*
X03422D01*
X034167D01*
Y055715D01*
X034115Y055662D01*
X05848Y02234D02*
Y022655D01*
X058637D01*
X05869Y022602D01*
Y022497D01*
X058637Y022445D01*
X05848D01*
X058795Y02234D02*
X0589D01*
X058847D01*
Y022655D01*
X058795Y022602D01*
X04827Y065565D02*
Y06525D01*
X04848D01*
X048795Y065565D02*
X048585D01*
Y06525D01*
X048795D01*
X048585Y065407D02*
X04869D01*
X0489Y065565D02*
Y06525D01*
X049057D01*
X04911Y065302D01*
Y065512D01*
X049057Y065565D01*
X0489D01*
X049215Y065198D02*
X049424D01*
X049739Y065512D02*
X049687Y065565D01*
X049582D01*
X049529Y065512D01*
Y06546D01*
X049582Y065407D01*
X049687D01*
X049739Y065355D01*
Y065302D01*
X049687Y06525D01*
X049582D01*
X049529Y065302D01*
X049844Y06525D02*
X049949D01*
X049897D01*
Y065565D01*
X049844Y065512D01*
X02847Y023035D02*
Y02272D01*
X02868D01*
X028995Y023035D02*
X028785D01*
Y02272D01*
X028995D01*
X028785Y022877D02*
X02889D01*
X0291Y023035D02*
Y02272D01*
X029257D01*
X02931Y022772D01*
Y022982D01*
X029257Y023035D01*
X0291D01*
X029415Y022668D02*
X029624D01*
X029729Y02272D02*
Y023035D01*
X029834Y02293D01*
X029939Y023035D01*
Y02272D01*
X030202D02*
Y023035D01*
X030044Y022877D01*
X030254D01*
X0684Y020315D02*
Y02D01*
X06861D01*
X068925Y020315D02*
X068715D01*
Y02D01*
X068925D01*
X068715Y020157D02*
X06882D01*
X06903Y020315D02*
Y02D01*
X069187D01*
X06924Y020052D01*
Y020262D01*
X069187Y020315D01*
X06903D01*
X069345Y019948D02*
X069554D01*
X069659Y02D02*
Y020315D01*
X069764Y02021D01*
X069869Y020315D01*
Y02D01*
X069974Y020262D02*
X070027Y020315D01*
X070132D01*
X070184Y020262D01*
Y02021D01*
X070132Y020157D01*
X070079D01*
X070132D01*
X070184Y020105D01*
Y020052D01*
X070132Y02D01*
X070027D01*
X069974Y020052D01*
X0684Y065515D02*
Y0652D01*
X06861D01*
X068925Y065515D02*
X068715D01*
Y0652D01*
X068925D01*
X068715Y065357D02*
X06882D01*
X06903Y065515D02*
Y0652D01*
X069187D01*
X06924Y065252D01*
Y065462D01*
X069187Y065515D01*
X06903D01*
X069345Y065148D02*
X069554D01*
X069659Y0652D02*
Y065515D01*
X069764Y06541D01*
X069869Y065515D01*
Y0652D01*
X070184D02*
X069974D01*
X070184Y06541D01*
Y065462D01*
X070132Y065515D01*
X070027D01*
X069974Y065462D01*
X02855Y065515D02*
Y0652D01*
X02876D01*
X029075Y065515D02*
X028865D01*
Y0652D01*
X029075D01*
X028865Y065357D02*
X02897D01*
X02918Y065515D02*
Y0652D01*
X029337D01*
X02939Y065252D01*
Y065462D01*
X029337Y065515D01*
X02918D01*
X029495Y065148D02*
X029704D01*
X029809Y0652D02*
Y065515D01*
X029914Y06541D01*
X030019Y065515D01*
Y0652D01*
X030124D02*
X030229D01*
X030177D01*
Y065515D01*
X030124Y065462D01*
X06237Y028805D02*
Y02849D01*
X06258D01*
X062895Y028805D02*
X062685D01*
Y02849D01*
X062895D01*
X062685Y028647D02*
X06279D01*
X063Y028805D02*
Y02849D01*
X063157D01*
X06321Y028542D01*
Y028752D01*
X063157Y028805D01*
X063D01*
X063315Y02849D02*
X06342D01*
X063367D01*
Y028805D01*
X063315Y028752D01*
X063787Y02849D02*
X063577D01*
X063787Y0287D01*
Y028752D01*
X063734Y028805D01*
X063629D01*
X063577Y028752D01*
X063892Y02849D02*
X063997D01*
X063944D01*
Y028805D01*
X063892Y028752D01*
X05962Y028805D02*
Y02849D01*
X05983D01*
X060145Y028805D02*
X059935D01*
Y02849D01*
X060145D01*
X059935Y028647D02*
X06004D01*
X06025Y028805D02*
Y02849D01*
X060407D01*
X06046Y028542D01*
Y028752D01*
X060407Y028805D01*
X06025D01*
X060565Y02849D02*
X06067D01*
X060617D01*
Y028805D01*
X060565Y028752D01*
X061037Y02849D02*
X060827D01*
X061037Y0287D01*
Y028752D01*
X060984Y028805D01*
X060879D01*
X060827Y028752D01*
X061142D02*
X061194Y028805D01*
X061299D01*
X061352Y028752D01*
Y028542D01*
X061299Y02849D01*
X061194D01*
X061142Y028542D01*
Y028752D01*
X05686Y028805D02*
Y02849D01*
X05707D01*
X057385Y028805D02*
X057175D01*
Y02849D01*
X057385D01*
X057175Y028647D02*
X05728D01*
X05749Y028805D02*
Y02849D01*
X057647D01*
X0577Y028542D01*
Y028752D01*
X057647Y028805D01*
X05749D01*
X057805Y02849D02*
X05791D01*
X057857D01*
Y028805D01*
X057805Y028752D01*
X058067Y02849D02*
X058172D01*
X058119D01*
Y028805D01*
X058067Y028752D01*
X058329Y028542D02*
X058382Y02849D01*
X058487D01*
X058539Y028542D01*
Y028752D01*
X058487Y028805D01*
X058382D01*
X058329Y028752D01*
Y0287D01*
X058382Y028647D01*
X058539D01*
X0541Y028805D02*
Y02849D01*
X05431D01*
X054625Y028805D02*
X054415D01*
Y02849D01*
X054625D01*
X054415Y028647D02*
X05452D01*
X05473Y028805D02*
Y02849D01*
X054887D01*
X05494Y028542D01*
Y028752D01*
X054887Y028805D01*
X05473D01*
X055045Y02849D02*
X05515D01*
X055097D01*
Y028805D01*
X055045Y028752D01*
X055307Y02849D02*
X055412D01*
X055359D01*
Y028805D01*
X055307Y028752D01*
X055569D02*
X055622Y028805D01*
X055727D01*
X055779Y028752D01*
Y0287D01*
X055727Y028647D01*
X055779Y028595D01*
Y028542D01*
X055727Y02849D01*
X055622D01*
X055569Y028542D01*
Y028595D01*
X055622Y028647D01*
X055569Y0287D01*
Y028752D01*
X055622Y028647D02*
X055727D01*
X05135Y028805D02*
Y02849D01*
X05156D01*
X051875Y028805D02*
X051665D01*
Y02849D01*
X051875D01*
X051665Y028647D02*
X05177D01*
X05198Y028805D02*
Y02849D01*
X052137D01*
X05219Y028542D01*
Y028752D01*
X052137Y028805D01*
X05198D01*
X052295Y02849D02*
X0524D01*
X052347D01*
Y028805D01*
X052295Y028752D01*
X052557Y02849D02*
X052662D01*
X052609D01*
Y028805D01*
X052557Y028752D01*
X052819Y028805D02*
X053029D01*
Y028752D01*
X052819Y028542D01*
Y02849D01*
X04859Y028805D02*
Y02849D01*
X0488D01*
X049115Y028805D02*
X048905D01*
Y02849D01*
X049115D01*
X048905Y028647D02*
X04901D01*
X04922Y028805D02*
Y02849D01*
X049377D01*
X04943Y028542D01*
Y028752D01*
X049377Y028805D01*
X04922D01*
X049535Y02849D02*
X04964D01*
X049587D01*
Y028805D01*
X049535Y028752D01*
X049797Y02849D02*
X049902D01*
X049849D01*
Y028805D01*
X049797Y028752D01*
X050269Y028805D02*
X050164Y028752D01*
X050059Y028647D01*
Y028542D01*
X050112Y02849D01*
X050217D01*
X050269Y028542D01*
Y028595D01*
X050217Y028647D01*
X050059D01*
X04584Y028805D02*
Y02849D01*
X04605D01*
X046365Y028805D02*
X046155D01*
Y02849D01*
X046365D01*
X046155Y028647D02*
X04626D01*
X04647Y028805D02*
Y02849D01*
X046627D01*
X04668Y028542D01*
Y028752D01*
X046627Y028805D01*
X04647D01*
X046785Y02849D02*
X04689D01*
X046837D01*
Y028805D01*
X046785Y028752D01*
X047047Y02849D02*
X047152D01*
X047099D01*
Y028805D01*
X047047Y028752D01*
X047519Y028805D02*
X047309D01*
Y028647D01*
X047414Y0287D01*
X047467D01*
X047519Y028647D01*
Y028542D01*
X047467Y02849D01*
X047362D01*
X047309Y028542D01*
X04308Y028805D02*
Y02849D01*
X04329D01*
X043605Y028805D02*
X043395D01*
Y02849D01*
X043605D01*
X043395Y028647D02*
X0435D01*
X04371Y028805D02*
Y02849D01*
X043867D01*
X04392Y028542D01*
Y028752D01*
X043867Y028805D01*
X04371D01*
X044025Y02849D02*
X04413D01*
X044077D01*
Y028805D01*
X044025Y028752D01*
X044287Y02849D02*
X044392D01*
X044339D01*
Y028805D01*
X044287Y028752D01*
X044707Y02849D02*
Y028805D01*
X044549Y028647D01*
X044759D01*
X04032Y028805D02*
Y02849D01*
X04053D01*
X040845Y028805D02*
X040635D01*
Y02849D01*
X040845D01*
X040635Y028647D02*
X04074D01*
X04095Y028805D02*
Y02849D01*
X041107D01*
X04116Y028542D01*
Y028752D01*
X041107Y028805D01*
X04095D01*
X041265Y02849D02*
X04137D01*
X041317D01*
Y028805D01*
X041265Y028752D01*
X041527Y02849D02*
X041632D01*
X041579D01*
Y028805D01*
X041527Y028752D01*
X041789D02*
X041842Y028805D01*
X041947D01*
X041999Y028752D01*
Y0287D01*
X041947Y028647D01*
X041894D01*
X041947D01*
X041999Y028595D01*
Y028542D01*
X041947Y02849D01*
X041842D01*
X041789Y028542D01*
X03757Y028805D02*
Y02849D01*
X03778D01*
X038095Y028805D02*
X037885D01*
Y02849D01*
X038095D01*
X037885Y028647D02*
X03799D01*
X0382Y028805D02*
Y02849D01*
X038357D01*
X03841Y028542D01*
Y028752D01*
X038357Y028805D01*
X0382D01*
X038515Y02849D02*
X03862D01*
X038567D01*
Y028805D01*
X038515Y028752D01*
X038777Y02849D02*
X038882D01*
X038829D01*
Y028805D01*
X038777Y028752D01*
X039249Y02849D02*
X039039D01*
X039249Y0287D01*
Y028752D01*
X039197Y028805D01*
X039092D01*
X039039Y028752D01*
X03481Y028805D02*
Y02849D01*
X03502D01*
X035335Y028805D02*
X035125D01*
Y02849D01*
X035335D01*
X035125Y028647D02*
X03523D01*
X03544Y028805D02*
Y02849D01*
X035597D01*
X03565Y028542D01*
Y028752D01*
X035597Y028805D01*
X03544D01*
X035755Y02849D02*
X03586D01*
X035807D01*
Y028805D01*
X035755Y028752D01*
X036017Y02849D02*
X036122D01*
X036069D01*
Y028805D01*
X036017Y028752D01*
X036279Y02849D02*
X036384D01*
X036332D01*
Y028805D01*
X036279Y028752D01*
X06237Y031955D02*
Y03164D01*
X06258D01*
X062895Y031955D02*
X062685D01*
Y03164D01*
X062895D01*
X062685Y031797D02*
X06279D01*
X063Y031955D02*
Y03164D01*
X063157D01*
X06321Y031692D01*
Y031902D01*
X063157Y031955D01*
X063D01*
X063315Y03164D02*
X06342D01*
X063367D01*
Y031955D01*
X063315Y031902D01*
X063577Y03164D02*
X063682D01*
X063629D01*
Y031955D01*
X063577Y031902D01*
X063839D02*
X063892Y031955D01*
X063997D01*
X064049Y031902D01*
Y031692D01*
X063997Y03164D01*
X063892D01*
X063839Y031692D01*
Y031902D01*
X05962Y031955D02*
Y03164D01*
X05983D01*
X060145Y031955D02*
X059935D01*
Y03164D01*
X060145D01*
X059935Y031797D02*
X06004D01*
X06025Y031955D02*
Y03164D01*
X060407D01*
X06046Y031692D01*
Y031902D01*
X060407Y031955D01*
X06025D01*
X060565Y03164D02*
X06067D01*
X060617D01*
Y031955D01*
X060565Y031902D01*
X060827D02*
X060879Y031955D01*
X060984D01*
X061037Y031902D01*
Y031692D01*
X060984Y03164D01*
X060879D01*
X060827Y031692D01*
Y031902D01*
X061142Y031692D02*
X061194Y03164D01*
X061299D01*
X061352Y031692D01*
Y031902D01*
X061299Y031955D01*
X061194D01*
X061142Y031902D01*
Y03185D01*
X061194Y031797D01*
X061352D01*
X05686Y031955D02*
Y03164D01*
X05707D01*
X057385Y031955D02*
X057175D01*
Y03164D01*
X057385D01*
X057175Y031797D02*
X05728D01*
X05749Y031955D02*
Y03164D01*
X057647D01*
X0577Y031692D01*
Y031902D01*
X057647Y031955D01*
X05749D01*
X057805Y03164D02*
X05791D01*
X057857D01*
Y031955D01*
X057805Y031902D01*
X058067D02*
X058119Y031955D01*
X058224D01*
X058277Y031902D01*
Y031692D01*
X058224Y03164D01*
X058119D01*
X058067Y031692D01*
Y031902D01*
X058382D02*
X058434Y031955D01*
X058539D01*
X058592Y031902D01*
Y03185D01*
X058539Y031797D01*
X058592Y031745D01*
Y031692D01*
X058539Y03164D01*
X058434D01*
X058382Y031692D01*
Y031745D01*
X058434Y031797D01*
X058382Y03185D01*
Y031902D01*
X058434Y031797D02*
X058539D01*
X0541Y031955D02*
Y03164D01*
X05431D01*
X054625Y031955D02*
X054415D01*
Y03164D01*
X054625D01*
X054415Y031797D02*
X05452D01*
X05473Y031955D02*
Y03164D01*
X054887D01*
X05494Y031692D01*
Y031902D01*
X054887Y031955D01*
X05473D01*
X055045Y03164D02*
X05515D01*
X055097D01*
Y031955D01*
X055045Y031902D01*
X055307D02*
X055359Y031955D01*
X055464D01*
X055517Y031902D01*
Y031692D01*
X055464Y03164D01*
X055359D01*
X055307Y031692D01*
Y031902D01*
X055622Y031955D02*
X055832D01*
Y031902D01*
X055622Y031692D01*
Y03164D01*
X05135Y031955D02*
Y03164D01*
X05156D01*
X051875Y031955D02*
X051665D01*
Y03164D01*
X051875D01*
X051665Y031797D02*
X05177D01*
X05198Y031955D02*
Y03164D01*
X052137D01*
X05219Y031692D01*
Y031902D01*
X052137Y031955D01*
X05198D01*
X052295Y03164D02*
X0524D01*
X052347D01*
Y031955D01*
X052295Y031902D01*
X052557D02*
X052609Y031955D01*
X052714D01*
X052767Y031902D01*
Y031692D01*
X052714Y03164D01*
X052609D01*
X052557Y031692D01*
Y031902D01*
X053082Y031955D02*
X052977Y031902D01*
X052872Y031797D01*
Y031692D01*
X052924Y03164D01*
X053029D01*
X053082Y031692D01*
Y031745D01*
X053029Y031797D01*
X052872D01*
X04859Y031955D02*
Y03164D01*
X0488D01*
X049115Y031955D02*
X048905D01*
Y03164D01*
X049115D01*
X048905Y031797D02*
X04901D01*
X04922Y031955D02*
Y03164D01*
X049377D01*
X04943Y031692D01*
Y031902D01*
X049377Y031955D01*
X04922D01*
X049535Y03164D02*
X04964D01*
X049587D01*
Y031955D01*
X049535Y031902D01*
X049797D02*
X049849Y031955D01*
X049954D01*
X050007Y031902D01*
Y031692D01*
X049954Y03164D01*
X049849D01*
X049797Y031692D01*
Y031902D01*
X050322Y031955D02*
X050112D01*
Y031797D01*
X050217Y03185D01*
X050269D01*
X050322Y031797D01*
Y031692D01*
X050269Y03164D01*
X050164D01*
X050112Y031692D01*
X04584Y031955D02*
Y03164D01*
X04605D01*
X046365Y031955D02*
X046155D01*
Y03164D01*
X046365D01*
X046155Y031797D02*
X04626D01*
X04647Y031955D02*
Y03164D01*
X046627D01*
X04668Y031692D01*
Y031902D01*
X046627Y031955D01*
X04647D01*
X046785Y03164D02*
X04689D01*
X046837D01*
Y031955D01*
X046785Y031902D01*
X047047D02*
X047099Y031955D01*
X047204D01*
X047257Y031902D01*
Y031692D01*
X047204Y03164D01*
X047099D01*
X047047Y031692D01*
Y031902D01*
X047519Y03164D02*
Y031955D01*
X047362Y031797D01*
X047572D01*
X04308Y031955D02*
Y03164D01*
X04329D01*
X043605Y031955D02*
X043395D01*
Y03164D01*
X043605D01*
X043395Y031797D02*
X0435D01*
X04371Y031955D02*
Y03164D01*
X043867D01*
X04392Y031692D01*
Y031902D01*
X043867Y031955D01*
X04371D01*
X044025Y03164D02*
X04413D01*
X044077D01*
Y031955D01*
X044025Y031902D01*
X044287D02*
X044339Y031955D01*
X044444D01*
X044497Y031902D01*
Y031692D01*
X044444Y03164D01*
X044339D01*
X044287Y031692D01*
Y031902D01*
X044602D02*
X044654Y031955D01*
X044759D01*
X044812Y031902D01*
Y03185D01*
X044759Y031797D01*
X044707D01*
X044759D01*
X044812Y031745D01*
Y031692D01*
X044759Y03164D01*
X044654D01*
X044602Y031692D01*
X04032Y031955D02*
Y03164D01*
X04053D01*
X040845Y031955D02*
X040635D01*
Y03164D01*
X040845D01*
X040635Y031797D02*
X04074D01*
X04095Y031955D02*
Y03164D01*
X041107D01*
X04116Y031692D01*
Y031902D01*
X041107Y031955D01*
X04095D01*
X041265Y03164D02*
X04137D01*
X041317D01*
Y031955D01*
X041265Y031902D01*
X041527D02*
X041579Y031955D01*
X041684D01*
X041737Y031902D01*
Y031692D01*
X041684Y03164D01*
X041579D01*
X041527Y031692D01*
Y031902D01*
X042052Y03164D02*
X041842D01*
X042052Y03185D01*
Y031902D01*
X041999Y031955D01*
X041894D01*
X041842Y031902D01*
X03757Y031955D02*
Y03164D01*
X03778D01*
X038095Y031955D02*
X037885D01*
Y03164D01*
X038095D01*
X037885Y031797D02*
X03799D01*
X0382Y031955D02*
Y03164D01*
X038357D01*
X03841Y031692D01*
Y031902D01*
X038357Y031955D01*
X0382D01*
X038515Y03164D02*
X03862D01*
X038567D01*
Y031955D01*
X038515Y031902D01*
X038777D02*
X038829Y031955D01*
X038934D01*
X038987Y031902D01*
Y031692D01*
X038934Y03164D01*
X038829D01*
X038777Y031692D01*
Y031902D01*
X039092Y03164D02*
X039197D01*
X039144D01*
Y031955D01*
X039092Y031902D01*
X03481Y031955D02*
Y03164D01*
X03502D01*
X035335Y031955D02*
X035125D01*
Y03164D01*
X035335D01*
X035125Y031797D02*
X03523D01*
X03544Y031955D02*
Y03164D01*
X035597D01*
X03565Y031692D01*
Y031902D01*
X035597Y031955D01*
X03544D01*
X035755Y03164D02*
X03586D01*
X035807D01*
Y031955D01*
X035755Y031902D01*
X036017D02*
X036069Y031955D01*
X036174D01*
X036227Y031902D01*
Y031692D01*
X036174Y03164D01*
X036069D01*
X036017Y031692D01*
Y031902D01*
X036332D02*
X036384Y031955D01*
X036489D01*
X036542Y031902D01*
Y031692D01*
X036489Y03164D01*
X036384D01*
X036332Y031692D01*
Y031902D01*
X06237Y035105D02*
Y03479D01*
X06258D01*
X062895Y035105D02*
X062685D01*
Y03479D01*
X062895D01*
X062685Y034947D02*
X06279D01*
X063Y035105D02*
Y03479D01*
X063157D01*
X06321Y034842D01*
Y035052D01*
X063157Y035105D01*
X063D01*
X063315Y034842D02*
X063367Y03479D01*
X063472D01*
X063524Y034842D01*
Y035052D01*
X063472Y035105D01*
X063367D01*
X063315Y035052D01*
Y035D01*
X063367Y034947D01*
X063524D01*
X063629Y034842D02*
X063682Y03479D01*
X063787D01*
X063839Y034842D01*
Y035052D01*
X063787Y035105D01*
X063682D01*
X063629Y035052D01*
Y035D01*
X063682Y034947D01*
X063839D01*
X05962Y035105D02*
Y03479D01*
X05983D01*
X060145Y035105D02*
X059935D01*
Y03479D01*
X060145D01*
X059935Y034947D02*
X06004D01*
X06025Y035105D02*
Y03479D01*
X060407D01*
X06046Y034842D01*
Y035052D01*
X060407Y035105D01*
X06025D01*
X060565Y034842D02*
X060617Y03479D01*
X060722D01*
X060774Y034842D01*
Y035052D01*
X060722Y035105D01*
X060617D01*
X060565Y035052D01*
Y035D01*
X060617Y034947D01*
X060774D01*
X060879Y035052D02*
X060932Y035105D01*
X061037D01*
X061089Y035052D01*
Y035D01*
X061037Y034947D01*
X061089Y034895D01*
Y034842D01*
X061037Y03479D01*
X060932D01*
X060879Y034842D01*
Y034895D01*
X060932Y034947D01*
X060879Y035D01*
Y035052D01*
X060932Y034947D02*
X061037D01*
X05686Y035105D02*
Y03479D01*
X05707D01*
X057385Y035105D02*
X057175D01*
Y03479D01*
X057385D01*
X057175Y034947D02*
X05728D01*
X05749Y035105D02*
Y03479D01*
X057647D01*
X0577Y034842D01*
Y035052D01*
X057647Y035105D01*
X05749D01*
X057805Y034842D02*
X057857Y03479D01*
X057962D01*
X058014Y034842D01*
Y035052D01*
X057962Y035105D01*
X057857D01*
X057805Y035052D01*
Y035D01*
X057857Y034947D01*
X058014D01*
X058119Y035105D02*
X058329D01*
Y035052D01*
X058119Y034842D01*
Y03479D01*
X0541Y035105D02*
Y03479D01*
X05431D01*
X054625Y035105D02*
X054415D01*
Y03479D01*
X054625D01*
X054415Y034947D02*
X05452D01*
X05473Y035105D02*
Y03479D01*
X054887D01*
X05494Y034842D01*
Y035052D01*
X054887Y035105D01*
X05473D01*
X055045Y034842D02*
X055097Y03479D01*
X055202D01*
X055254Y034842D01*
Y035052D01*
X055202Y035105D01*
X055097D01*
X055045Y035052D01*
Y035D01*
X055097Y034947D01*
X055254D01*
X055569Y035105D02*
X055464Y035052D01*
X055359Y034947D01*
Y034842D01*
X055412Y03479D01*
X055517D01*
X055569Y034842D01*
Y034895D01*
X055517Y034947D01*
X055359D01*
X05135Y035105D02*
Y03479D01*
X05156D01*
X051875Y035105D02*
X051665D01*
Y03479D01*
X051875D01*
X051665Y034947D02*
X05177D01*
X05198Y035105D02*
Y03479D01*
X052137D01*
X05219Y034842D01*
Y035052D01*
X052137Y035105D01*
X05198D01*
X052295Y034842D02*
X052347Y03479D01*
X052452D01*
X052504Y034842D01*
Y035052D01*
X052452Y035105D01*
X052347D01*
X052295Y035052D01*
Y035D01*
X052347Y034947D01*
X052504D01*
X052819Y035105D02*
X052609D01*
Y034947D01*
X052714Y035D01*
X052767D01*
X052819Y034947D01*
Y034842D01*
X052767Y03479D01*
X052662D01*
X052609Y034842D01*
X04859Y035105D02*
Y03479D01*
X0488D01*
X049115Y035105D02*
X048905D01*
Y03479D01*
X049115D01*
X048905Y034947D02*
X04901D01*
X04922Y035105D02*
Y03479D01*
X049377D01*
X04943Y034842D01*
Y035052D01*
X049377Y035105D01*
X04922D01*
X049535Y034842D02*
X049587Y03479D01*
X049692D01*
X049744Y034842D01*
Y035052D01*
X049692Y035105D01*
X049587D01*
X049535Y035052D01*
Y035D01*
X049587Y034947D01*
X049744D01*
X050007Y03479D02*
Y035105D01*
X049849Y034947D01*
X050059D01*
X04584Y035105D02*
Y03479D01*
X04605D01*
X046365Y035105D02*
X046155D01*
Y03479D01*
X046365D01*
X046155Y034947D02*
X04626D01*
X04647Y035105D02*
Y03479D01*
X046627D01*
X04668Y034842D01*
Y035052D01*
X046627Y035105D01*
X04647D01*
X046785Y034842D02*
X046837Y03479D01*
X046942D01*
X046994Y034842D01*
Y035052D01*
X046942Y035105D01*
X046837D01*
X046785Y035052D01*
Y035D01*
X046837Y034947D01*
X046994D01*
X047099Y035052D02*
X047152Y035105D01*
X047257D01*
X047309Y035052D01*
Y035D01*
X047257Y034947D01*
X047204D01*
X047257D01*
X047309Y034895D01*
Y034842D01*
X047257Y03479D01*
X047152D01*
X047099Y034842D01*
X04308Y035105D02*
Y03479D01*
X04329D01*
X043605Y035105D02*
X043395D01*
Y03479D01*
X043605D01*
X043395Y034947D02*
X0435D01*
X04371Y035105D02*
Y03479D01*
X043867D01*
X04392Y034842D01*
Y035052D01*
X043867Y035105D01*
X04371D01*
X044025Y034842D02*
X044077Y03479D01*
X044182D01*
X044234Y034842D01*
Y035052D01*
X044182Y035105D01*
X044077D01*
X044025Y035052D01*
Y035D01*
X044077Y034947D01*
X044234D01*
X044549Y03479D02*
X044339D01*
X044549Y035D01*
Y035052D01*
X044497Y035105D01*
X044392D01*
X044339Y035052D01*
X04032Y035105D02*
Y03479D01*
X04053D01*
X040845Y035105D02*
X040635D01*
Y03479D01*
X040845D01*
X040635Y034947D02*
X04074D01*
X04095Y035105D02*
Y03479D01*
X041107D01*
X04116Y034842D01*
Y035052D01*
X041107Y035105D01*
X04095D01*
X041265Y034842D02*
X041317Y03479D01*
X041422D01*
X041474Y034842D01*
Y035052D01*
X041422Y035105D01*
X041317D01*
X041265Y035052D01*
Y035D01*
X041317Y034947D01*
X041474D01*
X041579Y03479D02*
X041684D01*
X041632D01*
Y035105D01*
X041579Y035052D01*
X03757Y035105D02*
Y03479D01*
X03778D01*
X038095Y035105D02*
X037885D01*
Y03479D01*
X038095D01*
X037885Y034947D02*
X03799D01*
X0382Y035105D02*
Y03479D01*
X038357D01*
X03841Y034842D01*
Y035052D01*
X038357Y035105D01*
X0382D01*
X038515Y034842D02*
X038567Y03479D01*
X038672D01*
X038724Y034842D01*
Y035052D01*
X038672Y035105D01*
X038567D01*
X038515Y035052D01*
Y035D01*
X038567Y034947D01*
X038724D01*
X038829Y035052D02*
X038882Y035105D01*
X038987D01*
X039039Y035052D01*
Y034842D01*
X038987Y03479D01*
X038882D01*
X038829Y034842D01*
Y035052D01*
X03481Y035105D02*
Y03479D01*
X03502D01*
X035335Y035105D02*
X035125D01*
Y03479D01*
X035335D01*
X035125Y034947D02*
X03523D01*
X03544Y035105D02*
Y03479D01*
X035597D01*
X03565Y034842D01*
Y035052D01*
X035597Y035105D01*
X03544D01*
X035755Y035052D02*
X035807Y035105D01*
X035912D01*
X035964Y035052D01*
Y035D01*
X035912Y034947D01*
X035964Y034895D01*
Y034842D01*
X035912Y03479D01*
X035807D01*
X035755Y034842D01*
Y034895D01*
X035807Y034947D01*
X035755Y035D01*
Y035052D01*
X035807Y034947D02*
X035912D01*
X036069Y034842D02*
X036122Y03479D01*
X036227D01*
X036279Y034842D01*
Y035052D01*
X036227Y035105D01*
X036122D01*
X036069Y035052D01*
Y035D01*
X036122Y034947D01*
X036279D01*
X06237Y038255D02*
Y03794D01*
X06258D01*
X062895Y038255D02*
X062685D01*
Y03794D01*
X062895D01*
X062685Y038097D02*
X06279D01*
X063Y038255D02*
Y03794D01*
X063157D01*
X06321Y037992D01*
Y038202D01*
X063157Y038255D01*
X063D01*
X063315Y038202D02*
X063367Y038255D01*
X063472D01*
X063524Y038202D01*
Y03815D01*
X063472Y038097D01*
X063524Y038045D01*
Y037992D01*
X063472Y03794D01*
X063367D01*
X063315Y037992D01*
Y038045D01*
X063367Y038097D01*
X063315Y03815D01*
Y038202D01*
X063367Y038097D02*
X063472D01*
X063629Y038202D02*
X063682Y038255D01*
X063787D01*
X063839Y038202D01*
Y03815D01*
X063787Y038097D01*
X063839Y038045D01*
Y037992D01*
X063787Y03794D01*
X063682D01*
X063629Y037992D01*
Y038045D01*
X063682Y038097D01*
X063629Y03815D01*
Y038202D01*
X063682Y038097D02*
X063787D01*
X05962Y038255D02*
Y03794D01*
X05983D01*
X060145Y038255D02*
X059935D01*
Y03794D01*
X060145D01*
X059935Y038097D02*
X06004D01*
X06025Y038255D02*
Y03794D01*
X060407D01*
X06046Y037992D01*
Y038202D01*
X060407Y038255D01*
X06025D01*
X060565Y038202D02*
X060617Y038255D01*
X060722D01*
X060774Y038202D01*
Y03815D01*
X060722Y038097D01*
X060774Y038045D01*
Y037992D01*
X060722Y03794D01*
X060617D01*
X060565Y037992D01*
Y038045D01*
X060617Y038097D01*
X060565Y03815D01*
Y038202D01*
X060617Y038097D02*
X060722D01*
X060879Y038255D02*
X061089D01*
Y038202D01*
X060879Y037992D01*
Y03794D01*
X05686Y038255D02*
Y03794D01*
X05707D01*
X057385Y038255D02*
X057175D01*
Y03794D01*
X057385D01*
X057175Y038097D02*
X05728D01*
X05749Y038255D02*
Y03794D01*
X057647D01*
X0577Y037992D01*
Y038202D01*
X057647Y038255D01*
X05749D01*
X057805Y038202D02*
X057857Y038255D01*
X057962D01*
X058014Y038202D01*
Y03815D01*
X057962Y038097D01*
X058014Y038045D01*
Y037992D01*
X057962Y03794D01*
X057857D01*
X057805Y037992D01*
Y038045D01*
X057857Y038097D01*
X057805Y03815D01*
Y038202D01*
X057857Y038097D02*
X057962D01*
X058329Y038255D02*
X058224Y038202D01*
X058119Y038097D01*
Y037992D01*
X058172Y03794D01*
X058277D01*
X058329Y037992D01*
Y038045D01*
X058277Y038097D01*
X058119D01*
X0541Y038255D02*
Y03794D01*
X05431D01*
X054625Y038255D02*
X054415D01*
Y03794D01*
X054625D01*
X054415Y038097D02*
X05452D01*
X05473Y038255D02*
Y03794D01*
X054887D01*
X05494Y037992D01*
Y038202D01*
X054887Y038255D01*
X05473D01*
X055045Y038202D02*
X055097Y038255D01*
X055202D01*
X055254Y038202D01*
Y03815D01*
X055202Y038097D01*
X055254Y038045D01*
Y037992D01*
X055202Y03794D01*
X055097D01*
X055045Y037992D01*
Y038045D01*
X055097Y038097D01*
X055045Y03815D01*
Y038202D01*
X055097Y038097D02*
X055202D01*
X055569Y038255D02*
X055359D01*
Y038097D01*
X055464Y03815D01*
X055517D01*
X055569Y038097D01*
Y037992D01*
X055517Y03794D01*
X055412D01*
X055359Y037992D01*
X05135Y038255D02*
Y03794D01*
X05156D01*
X051875Y038255D02*
X051665D01*
Y03794D01*
X051875D01*
X051665Y038097D02*
X05177D01*
X05198Y038255D02*
Y03794D01*
X052137D01*
X05219Y037992D01*
Y038202D01*
X052137Y038255D01*
X05198D01*
X052295Y038202D02*
X052347Y038255D01*
X052452D01*
X052504Y038202D01*
Y03815D01*
X052452Y038097D01*
X052504Y038045D01*
Y037992D01*
X052452Y03794D01*
X052347D01*
X052295Y037992D01*
Y038045D01*
X052347Y038097D01*
X052295Y03815D01*
Y038202D01*
X052347Y038097D02*
X052452D01*
X052767Y03794D02*
Y038255D01*
X052609Y038097D01*
X052819D01*
X04859Y038255D02*
Y03794D01*
X0488D01*
X049115Y038255D02*
X048905D01*
Y03794D01*
X049115D01*
X048905Y038097D02*
X04901D01*
X04922Y038255D02*
Y03794D01*
X049377D01*
X04943Y037992D01*
Y038202D01*
X049377Y038255D01*
X04922D01*
X049535Y038202D02*
X049587Y038255D01*
X049692D01*
X049744Y038202D01*
Y03815D01*
X049692Y038097D01*
X049744Y038045D01*
Y037992D01*
X049692Y03794D01*
X049587D01*
X049535Y037992D01*
Y038045D01*
X049587Y038097D01*
X049535Y03815D01*
Y038202D01*
X049587Y038097D02*
X049692D01*
X049849Y038202D02*
X049902Y038255D01*
X050007D01*
X050059Y038202D01*
Y03815D01*
X050007Y038097D01*
X049954D01*
X050007D01*
X050059Y038045D01*
Y037992D01*
X050007Y03794D01*
X049902D01*
X049849Y037992D01*
X04584Y038255D02*
Y03794D01*
X04605D01*
X046365Y038255D02*
X046155D01*
Y03794D01*
X046365D01*
X046155Y038097D02*
X04626D01*
X04647Y038255D02*
Y03794D01*
X046627D01*
X04668Y037992D01*
Y038202D01*
X046627Y038255D01*
X04647D01*
X046785Y038202D02*
X046837Y038255D01*
X046942D01*
X046994Y038202D01*
Y03815D01*
X046942Y038097D01*
X046994Y038045D01*
Y037992D01*
X046942Y03794D01*
X046837D01*
X046785Y037992D01*
Y038045D01*
X046837Y038097D01*
X046785Y03815D01*
Y038202D01*
X046837Y038097D02*
X046942D01*
X047309Y03794D02*
X047099D01*
X047309Y03815D01*
Y038202D01*
X047257Y038255D01*
X047152D01*
X047099Y038202D01*
X04308Y038255D02*
Y03794D01*
X04329D01*
X043605Y038255D02*
X043395D01*
Y03794D01*
X043605D01*
X043395Y038097D02*
X0435D01*
X04371Y038255D02*
Y03794D01*
X043867D01*
X04392Y037992D01*
Y038202D01*
X043867Y038255D01*
X04371D01*
X044025Y038202D02*
X044077Y038255D01*
X044182D01*
X044234Y038202D01*
Y03815D01*
X044182Y038097D01*
X044234Y038045D01*
Y037992D01*
X044182Y03794D01*
X044077D01*
X044025Y037992D01*
Y038045D01*
X044077Y038097D01*
X044025Y03815D01*
Y038202D01*
X044077Y038097D02*
X044182D01*
X044339Y03794D02*
X044444D01*
X044392D01*
Y038255D01*
X044339Y038202D01*
X04032Y038255D02*
Y03794D01*
X04053D01*
X040845Y038255D02*
X040635D01*
Y03794D01*
X040845D01*
X040635Y038097D02*
X04074D01*
X04095Y038255D02*
Y03794D01*
X041107D01*
X04116Y037992D01*
Y038202D01*
X041107Y038255D01*
X04095D01*
X041265Y038202D02*
X041317Y038255D01*
X041422D01*
X041474Y038202D01*
Y03815D01*
X041422Y038097D01*
X041474Y038045D01*
Y037992D01*
X041422Y03794D01*
X041317D01*
X041265Y037992D01*
Y038045D01*
X041317Y038097D01*
X041265Y03815D01*
Y038202D01*
X041317Y038097D02*
X041422D01*
X041579Y038202D02*
X041632Y038255D01*
X041737D01*
X041789Y038202D01*
Y037992D01*
X041737Y03794D01*
X041632D01*
X041579Y037992D01*
Y038202D01*
X03757Y038255D02*
Y03794D01*
X03778D01*
X038095Y038255D02*
X037885D01*
Y03794D01*
X038095D01*
X037885Y038097D02*
X03799D01*
X0382Y038255D02*
Y03794D01*
X038357D01*
X03841Y037992D01*
Y038202D01*
X038357Y038255D01*
X0382D01*
X038515D02*
X038724D01*
Y038202D01*
X038515Y037992D01*
Y03794D01*
X038829Y037992D02*
X038882Y03794D01*
X038987D01*
X039039Y037992D01*
Y038202D01*
X038987Y038255D01*
X038882D01*
X038829Y038202D01*
Y03815D01*
X038882Y038097D01*
X039039D01*
X03481Y038255D02*
Y03794D01*
X03502D01*
X035335Y038255D02*
X035125D01*
Y03794D01*
X035335D01*
X035125Y038097D02*
X03523D01*
X03544Y038255D02*
Y03794D01*
X035597D01*
X03565Y037992D01*
Y038202D01*
X035597Y038255D01*
X03544D01*
X035755D02*
X035964D01*
Y038202D01*
X035755Y037992D01*
Y03794D01*
X036069Y038202D02*
X036122Y038255D01*
X036227D01*
X036279Y038202D01*
Y03815D01*
X036227Y038097D01*
X036279Y038045D01*
Y037992D01*
X036227Y03794D01*
X036122D01*
X036069Y037992D01*
Y038045D01*
X036122Y038097D01*
X036069Y03815D01*
Y038202D01*
X036122Y038097D02*
X036227D01*
X06237Y041405D02*
Y04109D01*
X06258D01*
X062895Y041405D02*
X062685D01*
Y04109D01*
X062895D01*
X062685Y041247D02*
X06279D01*
X063Y041405D02*
Y04109D01*
X063157D01*
X06321Y041142D01*
Y041352D01*
X063157Y041405D01*
X063D01*
X063315D02*
X063524D01*
Y041352D01*
X063315Y041142D01*
Y04109D01*
X063629Y041405D02*
X063839D01*
Y041352D01*
X063629Y041142D01*
Y04109D01*
X05962Y041405D02*
Y04109D01*
X05983D01*
X060145Y041405D02*
X059935D01*
Y04109D01*
X060145D01*
X059935Y041247D02*
X06004D01*
X06025Y041405D02*
Y04109D01*
X060407D01*
X06046Y041142D01*
Y041352D01*
X060407Y041405D01*
X06025D01*
X060565D02*
X060774D01*
Y041352D01*
X060565Y041142D01*
Y04109D01*
X061089Y041405D02*
X060984Y041352D01*
X060879Y041247D01*
Y041142D01*
X060932Y04109D01*
X061037D01*
X061089Y041142D01*
Y041195D01*
X061037Y041247D01*
X060879D01*
X05686Y041405D02*
Y04109D01*
X05707D01*
X057385Y041405D02*
X057175D01*
Y04109D01*
X057385D01*
X057175Y041247D02*
X05728D01*
X05749Y041405D02*
Y04109D01*
X057647D01*
X0577Y041142D01*
Y041352D01*
X057647Y041405D01*
X05749D01*
X057805D02*
X058014D01*
Y041352D01*
X057805Y041142D01*
Y04109D01*
X058329Y041405D02*
X058119D01*
Y041247D01*
X058224Y0413D01*
X058277D01*
X058329Y041247D01*
Y041142D01*
X058277Y04109D01*
X058172D01*
X058119Y041142D01*
X0541Y041405D02*
Y04109D01*
X05431D01*
X054625Y041405D02*
X054415D01*
Y04109D01*
X054625D01*
X054415Y041247D02*
X05452D01*
X05473Y041405D02*
Y04109D01*
X054887D01*
X05494Y041142D01*
Y041352D01*
X054887Y041405D01*
X05473D01*
X055045D02*
X055254D01*
Y041352D01*
X055045Y041142D01*
Y04109D01*
X055517D02*
Y041405D01*
X055359Y041247D01*
X055569D01*
X05135Y041405D02*
Y04109D01*
X05156D01*
X051875Y041405D02*
X051665D01*
Y04109D01*
X051875D01*
X051665Y041247D02*
X05177D01*
X05198Y041405D02*
Y04109D01*
X052137D01*
X05219Y041142D01*
Y041352D01*
X052137Y041405D01*
X05198D01*
X052295D02*
X052504D01*
Y041352D01*
X052295Y041142D01*
Y04109D01*
X052609Y041352D02*
X052662Y041405D01*
X052767D01*
X052819Y041352D01*
Y0413D01*
X052767Y041247D01*
X052714D01*
X052767D01*
X052819Y041195D01*
Y041142D01*
X052767Y04109D01*
X052662D01*
X052609Y041142D01*
X04859Y041405D02*
Y04109D01*
X0488D01*
X049115Y041405D02*
X048905D01*
Y04109D01*
X049115D01*
X048905Y041247D02*
X04901D01*
X04922Y041405D02*
Y04109D01*
X049377D01*
X04943Y041142D01*
Y041352D01*
X049377Y041405D01*
X04922D01*
X049535D02*
X049744D01*
Y041352D01*
X049535Y041142D01*
Y04109D01*
X050059D02*
X049849D01*
X050059Y0413D01*
Y041352D01*
X050007Y041405D01*
X049902D01*
X049849Y041352D01*
X04584Y041405D02*
Y04109D01*
X04605D01*
X046365Y041405D02*
X046155D01*
Y04109D01*
X046365D01*
X046155Y041247D02*
X04626D01*
X04647Y041405D02*
Y04109D01*
X046627D01*
X04668Y041142D01*
Y041352D01*
X046627Y041405D01*
X04647D01*
X046785D02*
X046994D01*
Y041352D01*
X046785Y041142D01*
Y04109D01*
X047099D02*
X047204D01*
X047152D01*
Y041405D01*
X047099Y041352D01*
X04308Y041405D02*
Y04109D01*
X04329D01*
X043605Y041405D02*
X043395D01*
Y04109D01*
X043605D01*
X043395Y041247D02*
X0435D01*
X04371Y041405D02*
Y04109D01*
X043867D01*
X04392Y041142D01*
Y041352D01*
X043867Y041405D01*
X04371D01*
X044025D02*
X044234D01*
Y041352D01*
X044025Y041142D01*
Y04109D01*
X044339Y041352D02*
X044392Y041405D01*
X044497D01*
X044549Y041352D01*
Y041142D01*
X044497Y04109D01*
X044392D01*
X044339Y041142D01*
Y041352D01*
X04032Y041405D02*
Y04109D01*
X04053D01*
X040845Y041405D02*
X040635D01*
Y04109D01*
X040845D01*
X040635Y041247D02*
X04074D01*
X04095Y041405D02*
Y04109D01*
X041107D01*
X04116Y041142D01*
Y041352D01*
X041107Y041405D01*
X04095D01*
X041474D02*
X04137Y041352D01*
X041265Y041247D01*
Y041142D01*
X041317Y04109D01*
X041422D01*
X041474Y041142D01*
Y041195D01*
X041422Y041247D01*
X041265D01*
X041579Y041142D02*
X041632Y04109D01*
X041737D01*
X041789Y041142D01*
Y041352D01*
X041737Y041405D01*
X041632D01*
X041579Y041352D01*
Y0413D01*
X041632Y041247D01*
X041789D01*
X03757Y041405D02*
Y04109D01*
X03778D01*
X038095Y041405D02*
X037885D01*
Y04109D01*
X038095D01*
X037885Y041247D02*
X03799D01*
X0382Y041405D02*
Y04109D01*
X038357D01*
X03841Y041142D01*
Y041352D01*
X038357Y041405D01*
X0382D01*
X038724D02*
X03862Y041352D01*
X038515Y041247D01*
Y041142D01*
X038567Y04109D01*
X038672D01*
X038724Y041142D01*
Y041195D01*
X038672Y041247D01*
X038515D01*
X038829Y041352D02*
X038882Y041405D01*
X038987D01*
X039039Y041352D01*
Y0413D01*
X038987Y041247D01*
X039039Y041195D01*
Y041142D01*
X038987Y04109D01*
X038882D01*
X038829Y041142D01*
Y041195D01*
X038882Y041247D01*
X038829Y0413D01*
Y041352D01*
X038882Y041247D02*
X038987D01*
X03481Y041405D02*
Y04109D01*
X03502D01*
X035335Y041405D02*
X035125D01*
Y04109D01*
X035335D01*
X035125Y041247D02*
X03523D01*
X03544Y041405D02*
Y04109D01*
X035597D01*
X03565Y041142D01*
Y041352D01*
X035597Y041405D01*
X03544D01*
X035964D02*
X03586Y041352D01*
X035755Y041247D01*
Y041142D01*
X035807Y04109D01*
X035912D01*
X035964Y041142D01*
Y041195D01*
X035912Y041247D01*
X035755D01*
X036069Y041405D02*
X036279D01*
Y041352D01*
X036069Y041142D01*
Y04109D01*
X06237Y044555D02*
Y04424D01*
X06258D01*
X062895Y044555D02*
X062685D01*
Y04424D01*
X062895D01*
X062685Y044397D02*
X06279D01*
X063Y044555D02*
Y04424D01*
X063157D01*
X06321Y044292D01*
Y044502D01*
X063157Y044555D01*
X063D01*
X063524D02*
X06342Y044502D01*
X063315Y044397D01*
Y044292D01*
X063367Y04424D01*
X063472D01*
X063524Y044292D01*
Y044345D01*
X063472Y044397D01*
X063315D01*
X063839Y044555D02*
X063734Y044502D01*
X063629Y044397D01*
Y044292D01*
X063682Y04424D01*
X063787D01*
X063839Y044292D01*
Y044345D01*
X063787Y044397D01*
X063629D01*
X05962Y044555D02*
Y04424D01*
X05983D01*
X060145Y044555D02*
X059935D01*
Y04424D01*
X060145D01*
X059935Y044397D02*
X06004D01*
X06025Y044555D02*
Y04424D01*
X060407D01*
X06046Y044292D01*
Y044502D01*
X060407Y044555D01*
X06025D01*
X060774D02*
X06067Y044502D01*
X060565Y044397D01*
Y044292D01*
X060617Y04424D01*
X060722D01*
X060774Y044292D01*
Y044345D01*
X060722Y044397D01*
X060565D01*
X061089Y044555D02*
X060879D01*
Y044397D01*
X060984Y04445D01*
X061037D01*
X061089Y044397D01*
Y044292D01*
X061037Y04424D01*
X060932D01*
X060879Y044292D01*
X05686Y044555D02*
Y04424D01*
X05707D01*
X057385Y044555D02*
X057175D01*
Y04424D01*
X057385D01*
X057175Y044397D02*
X05728D01*
X05749Y044555D02*
Y04424D01*
X057647D01*
X0577Y044292D01*
Y044502D01*
X057647Y044555D01*
X05749D01*
X058014D02*
X05791Y044502D01*
X057805Y044397D01*
Y044292D01*
X057857Y04424D01*
X057962D01*
X058014Y044292D01*
Y044345D01*
X057962Y044397D01*
X057805D01*
X058277Y04424D02*
Y044555D01*
X058119Y044397D01*
X058329D01*
X0541Y044555D02*
Y04424D01*
X05431D01*
X054625Y044555D02*
X054415D01*
Y04424D01*
X054625D01*
X054415Y044397D02*
X05452D01*
X05473Y044555D02*
Y04424D01*
X054887D01*
X05494Y044292D01*
Y044502D01*
X054887Y044555D01*
X05473D01*
X055254D02*
X05515Y044502D01*
X055045Y044397D01*
Y044292D01*
X055097Y04424D01*
X055202D01*
X055254Y044292D01*
Y044345D01*
X055202Y044397D01*
X055045D01*
X055359Y044502D02*
X055412Y044555D01*
X055517D01*
X055569Y044502D01*
Y04445D01*
X055517Y044397D01*
X055464D01*
X055517D01*
X055569Y044345D01*
Y044292D01*
X055517Y04424D01*
X055412D01*
X055359Y044292D01*
X05135Y044555D02*
Y04424D01*
X05156D01*
X051875Y044555D02*
X051665D01*
Y04424D01*
X051875D01*
X051665Y044397D02*
X05177D01*
X05198Y044555D02*
Y04424D01*
X052137D01*
X05219Y044292D01*
Y044502D01*
X052137Y044555D01*
X05198D01*
X052504D02*
X0524Y044502D01*
X052295Y044397D01*
Y044292D01*
X052347Y04424D01*
X052452D01*
X052504Y044292D01*
Y044345D01*
X052452Y044397D01*
X052295D01*
X052819Y04424D02*
X052609D01*
X052819Y04445D01*
Y044502D01*
X052767Y044555D01*
X052662D01*
X052609Y044502D01*
X04859Y044555D02*
Y04424D01*
X0488D01*
X049115Y044555D02*
X048905D01*
Y04424D01*
X049115D01*
X048905Y044397D02*
X04901D01*
X04922Y044555D02*
Y04424D01*
X049377D01*
X04943Y044292D01*
Y044502D01*
X049377Y044555D01*
X04922D01*
X049744D02*
X04964Y044502D01*
X049535Y044397D01*
Y044292D01*
X049587Y04424D01*
X049692D01*
X049744Y044292D01*
Y044345D01*
X049692Y044397D01*
X049535D01*
X049849Y04424D02*
X049954D01*
X049902D01*
Y044555D01*
X049849Y044502D01*
X04584Y044555D02*
Y04424D01*
X04605D01*
X046365Y044555D02*
X046155D01*
Y04424D01*
X046365D01*
X046155Y044397D02*
X04626D01*
X04647Y044555D02*
Y04424D01*
X046627D01*
X04668Y044292D01*
Y044502D01*
X046627Y044555D01*
X04647D01*
X046994D02*
X04689Y044502D01*
X046785Y044397D01*
Y044292D01*
X046837Y04424D01*
X046942D01*
X046994Y044292D01*
Y044345D01*
X046942Y044397D01*
X046785D01*
X047099Y044502D02*
X047152Y044555D01*
X047257D01*
X047309Y044502D01*
Y044292D01*
X047257Y04424D01*
X047152D01*
X047099Y044292D01*
Y044502D01*
X04308Y044555D02*
Y04424D01*
X04329D01*
X043605Y044555D02*
X043395D01*
Y04424D01*
X043605D01*
X043395Y044397D02*
X0435D01*
X04371Y044555D02*
Y04424D01*
X043867D01*
X04392Y044292D01*
Y044502D01*
X043867Y044555D01*
X04371D01*
X044234D02*
X044025D01*
Y044397D01*
X04413Y04445D01*
X044182D01*
X044234Y044397D01*
Y044292D01*
X044182Y04424D01*
X044077D01*
X044025Y044292D01*
X044339D02*
X044392Y04424D01*
X044497D01*
X044549Y044292D01*
Y044502D01*
X044497Y044555D01*
X044392D01*
X044339Y044502D01*
Y04445D01*
X044392Y044397D01*
X044549D01*
X04032Y044555D02*
Y04424D01*
X04053D01*
X040845Y044555D02*
X040635D01*
Y04424D01*
X040845D01*
X040635Y044397D02*
X04074D01*
X04095Y044555D02*
Y04424D01*
X041107D01*
X04116Y044292D01*
Y044502D01*
X041107Y044555D01*
X04095D01*
X041474D02*
X041265D01*
Y044397D01*
X04137Y04445D01*
X041422D01*
X041474Y044397D01*
Y044292D01*
X041422Y04424D01*
X041317D01*
X041265Y044292D01*
X041579Y044502D02*
X041632Y044555D01*
X041737D01*
X041789Y044502D01*
Y04445D01*
X041737Y044397D01*
X041789Y044345D01*
Y044292D01*
X041737Y04424D01*
X041632D01*
X041579Y044292D01*
Y044345D01*
X041632Y044397D01*
X041579Y04445D01*
Y044502D01*
X041632Y044397D02*
X041737D01*
X03757Y044555D02*
Y04424D01*
X03778D01*
X038095Y044555D02*
X037885D01*
Y04424D01*
X038095D01*
X037885Y044397D02*
X03799D01*
X0382Y044555D02*
Y04424D01*
X038357D01*
X03841Y044292D01*
Y044502D01*
X038357Y044555D01*
X0382D01*
X038724D02*
X038515D01*
Y044397D01*
X03862Y04445D01*
X038672D01*
X038724Y044397D01*
Y044292D01*
X038672Y04424D01*
X038567D01*
X038515Y044292D01*
X038829Y044555D02*
X039039D01*
Y044502D01*
X038829Y044292D01*
Y04424D01*
X03481Y044555D02*
Y04424D01*
X03502D01*
X035335Y044555D02*
X035125D01*
Y04424D01*
X035335D01*
X035125Y044397D02*
X03523D01*
X03544Y044555D02*
Y04424D01*
X035597D01*
X03565Y044292D01*
Y044502D01*
X035597Y044555D01*
X03544D01*
X035964D02*
X035755D01*
Y044397D01*
X03586Y04445D01*
X035912D01*
X035964Y044397D01*
Y044292D01*
X035912Y04424D01*
X035807D01*
X035755Y044292D01*
X036279Y044555D02*
X036174Y044502D01*
X036069Y044397D01*
Y044292D01*
X036122Y04424D01*
X036227D01*
X036279Y044292D01*
Y044345D01*
X036227Y044397D01*
X036069D01*
X06237Y047705D02*
Y04739D01*
X06258D01*
X062895Y047705D02*
X062685D01*
Y04739D01*
X062895D01*
X062685Y047547D02*
X06279D01*
X063Y047705D02*
Y04739D01*
X063157D01*
X06321Y047442D01*
Y047652D01*
X063157Y047705D01*
X063D01*
X063524D02*
X063315D01*
Y047547D01*
X06342Y0476D01*
X063472D01*
X063524Y047547D01*
Y047442D01*
X063472Y04739D01*
X063367D01*
X063315Y047442D01*
X063839Y047705D02*
X063629D01*
Y047547D01*
X063734Y0476D01*
X063787D01*
X063839Y047547D01*
Y047442D01*
X063787Y04739D01*
X063682D01*
X063629Y047442D01*
X05962Y047705D02*
Y04739D01*
X05983D01*
X060145Y047705D02*
X059935D01*
Y04739D01*
X060145D01*
X059935Y047547D02*
X06004D01*
X06025Y047705D02*
Y04739D01*
X060407D01*
X06046Y047442D01*
Y047652D01*
X060407Y047705D01*
X06025D01*
X060774D02*
X060565D01*
Y047547D01*
X06067Y0476D01*
X060722D01*
X060774Y047547D01*
Y047442D01*
X060722Y04739D01*
X060617D01*
X060565Y047442D01*
X061037Y04739D02*
Y047705D01*
X060879Y047547D01*
X061089D01*
X05686Y047705D02*
Y04739D01*
X05707D01*
X057385Y047705D02*
X057175D01*
Y04739D01*
X057385D01*
X057175Y047547D02*
X05728D01*
X05749Y047705D02*
Y04739D01*
X057647D01*
X0577Y047442D01*
Y047652D01*
X057647Y047705D01*
X05749D01*
X058014D02*
X057805D01*
Y047547D01*
X05791Y0476D01*
X057962D01*
X058014Y047547D01*
Y047442D01*
X057962Y04739D01*
X057857D01*
X057805Y047442D01*
X058119Y047652D02*
X058172Y047705D01*
X058277D01*
X058329Y047652D01*
Y0476D01*
X058277Y047547D01*
X058224D01*
X058277D01*
X058329Y047495D01*
Y047442D01*
X058277Y04739D01*
X058172D01*
X058119Y047442D01*
X0541Y047705D02*
Y04739D01*
X05431D01*
X054625Y047705D02*
X054415D01*
Y04739D01*
X054625D01*
X054415Y047547D02*
X05452D01*
X05473Y047705D02*
Y04739D01*
X054887D01*
X05494Y047442D01*
Y047652D01*
X054887Y047705D01*
X05473D01*
X055254D02*
X055045D01*
Y047547D01*
X05515Y0476D01*
X055202D01*
X055254Y047547D01*
Y047442D01*
X055202Y04739D01*
X055097D01*
X055045Y047442D01*
X055569Y04739D02*
X055359D01*
X055569Y0476D01*
Y047652D01*
X055517Y047705D01*
X055412D01*
X055359Y047652D01*
X05135Y047705D02*
Y04739D01*
X05156D01*
X051875Y047705D02*
X051665D01*
Y04739D01*
X051875D01*
X051665Y047547D02*
X05177D01*
X05198Y047705D02*
Y04739D01*
X052137D01*
X05219Y047442D01*
Y047652D01*
X052137Y047705D01*
X05198D01*
X052504D02*
X052295D01*
Y047547D01*
X0524Y0476D01*
X052452D01*
X052504Y047547D01*
Y047442D01*
X052452Y04739D01*
X052347D01*
X052295Y047442D01*
X052609Y04739D02*
X052714D01*
X052662D01*
Y047705D01*
X052609Y047652D01*
X04859Y047705D02*
Y04739D01*
X0488D01*
X049115Y047705D02*
X048905D01*
Y04739D01*
X049115D01*
X048905Y047547D02*
X04901D01*
X04922Y047705D02*
Y04739D01*
X049377D01*
X04943Y047442D01*
Y047652D01*
X049377Y047705D01*
X04922D01*
X049744D02*
X049535D01*
Y047547D01*
X04964Y0476D01*
X049692D01*
X049744Y047547D01*
Y047442D01*
X049692Y04739D01*
X049587D01*
X049535Y047442D01*
X049849Y047652D02*
X049902Y047705D01*
X050007D01*
X050059Y047652D01*
Y047442D01*
X050007Y04739D01*
X049902D01*
X049849Y047442D01*
Y047652D01*
X04584Y047705D02*
Y04739D01*
X04605D01*
X046365Y047705D02*
X046155D01*
Y04739D01*
X046365D01*
X046155Y047547D02*
X04626D01*
X04647Y047705D02*
Y04739D01*
X046627D01*
X04668Y047442D01*
Y047652D01*
X046627Y047705D01*
X04647D01*
X046942Y04739D02*
Y047705D01*
X046785Y047547D01*
X046994D01*
X047099Y047442D02*
X047152Y04739D01*
X047257D01*
X047309Y047442D01*
Y047652D01*
X047257Y047705D01*
X047152D01*
X047099Y047652D01*
Y0476D01*
X047152Y047547D01*
X047309D01*
X04308Y047705D02*
Y04739D01*
X04329D01*
X043605Y047705D02*
X043395D01*
Y04739D01*
X043605D01*
X043395Y047547D02*
X0435D01*
X04371Y047705D02*
Y04739D01*
X043867D01*
X04392Y047442D01*
Y047652D01*
X043867Y047705D01*
X04371D01*
X044182Y04739D02*
Y047705D01*
X044025Y047547D01*
X044234D01*
X044339Y047652D02*
X044392Y047705D01*
X044497D01*
X044549Y047652D01*
Y0476D01*
X044497Y047547D01*
X044549Y047495D01*
Y047442D01*
X044497Y04739D01*
X044392D01*
X044339Y047442D01*
Y047495D01*
X044392Y047547D01*
X044339Y0476D01*
Y047652D01*
X044392Y047547D02*
X044497D01*
X04032Y047705D02*
Y04739D01*
X04053D01*
X040845Y047705D02*
X040635D01*
Y04739D01*
X040845D01*
X040635Y047547D02*
X04074D01*
X04095Y047705D02*
Y04739D01*
X041107D01*
X04116Y047442D01*
Y047652D01*
X041107Y047705D01*
X04095D01*
X041422Y04739D02*
Y047705D01*
X041265Y047547D01*
X041474D01*
X041579Y047705D02*
X041789D01*
Y047652D01*
X041579Y047442D01*
Y04739D01*
X03757Y047705D02*
Y04739D01*
X03778D01*
X038095Y047705D02*
X037885D01*
Y04739D01*
X038095D01*
X037885Y047547D02*
X03799D01*
X0382Y047705D02*
Y04739D01*
X038357D01*
X03841Y047442D01*
Y047652D01*
X038357Y047705D01*
X0382D01*
X038672Y04739D02*
Y047705D01*
X038515Y047547D01*
X038724D01*
X039039Y047705D02*
X038934Y047652D01*
X038829Y047547D01*
Y047442D01*
X038882Y04739D01*
X038987D01*
X039039Y047442D01*
Y047495D01*
X038987Y047547D01*
X038829D01*
X03481Y047705D02*
Y04739D01*
X03502D01*
X035335Y047705D02*
X035125D01*
Y04739D01*
X035335D01*
X035125Y047547D02*
X03523D01*
X03544Y047705D02*
Y04739D01*
X035597D01*
X03565Y047442D01*
Y047652D01*
X035597Y047705D01*
X03544D01*
X035912Y04739D02*
Y047705D01*
X035755Y047547D01*
X035964D01*
X036279Y047705D02*
X036069D01*
Y047547D01*
X036174Y0476D01*
X036227D01*
X036279Y047547D01*
Y047442D01*
X036227Y04739D01*
X036122D01*
X036069Y047442D01*
X06237Y050855D02*
Y05054D01*
X06258D01*
X062895Y050855D02*
X062685D01*
Y05054D01*
X062895D01*
X062685Y050697D02*
X06279D01*
X063Y050855D02*
Y05054D01*
X063157D01*
X06321Y050592D01*
Y050802D01*
X063157Y050855D01*
X063D01*
X063472Y05054D02*
Y050855D01*
X063315Y050697D01*
X063524D01*
X063787Y05054D02*
Y050855D01*
X063629Y050697D01*
X063839D01*
X05962Y050855D02*
Y05054D01*
X05983D01*
X060145Y050855D02*
X059935D01*
Y05054D01*
X060145D01*
X059935Y050697D02*
X06004D01*
X06025Y050855D02*
Y05054D01*
X060407D01*
X06046Y050592D01*
Y050802D01*
X060407Y050855D01*
X06025D01*
X060722Y05054D02*
Y050855D01*
X060565Y050697D01*
X060774D01*
X060879Y050802D02*
X060932Y050855D01*
X061037D01*
X061089Y050802D01*
Y05075D01*
X061037Y050697D01*
X060984D01*
X061037D01*
X061089Y050645D01*
Y050592D01*
X061037Y05054D01*
X060932D01*
X060879Y050592D01*
X05686Y050855D02*
Y05054D01*
X05707D01*
X057385Y050855D02*
X057175D01*
Y05054D01*
X057385D01*
X057175Y050697D02*
X05728D01*
X05749Y050855D02*
Y05054D01*
X057647D01*
X0577Y050592D01*
Y050802D01*
X057647Y050855D01*
X05749D01*
X057962Y05054D02*
Y050855D01*
X057805Y050697D01*
X058014D01*
X058329Y05054D02*
X058119D01*
X058329Y05075D01*
Y050802D01*
X058277Y050855D01*
X058172D01*
X058119Y050802D01*
X0541Y050855D02*
Y05054D01*
X05431D01*
X054625Y050855D02*
X054415D01*
Y05054D01*
X054625D01*
X054415Y050697D02*
X05452D01*
X05473Y050855D02*
Y05054D01*
X054887D01*
X05494Y050592D01*
Y050802D01*
X054887Y050855D01*
X05473D01*
X055202Y05054D02*
Y050855D01*
X055045Y050697D01*
X055254D01*
X055359Y05054D02*
X055464D01*
X055412D01*
Y050855D01*
X055359Y050802D01*
X05135Y050855D02*
Y05054D01*
X05156D01*
X051875Y050855D02*
X051665D01*
Y05054D01*
X051875D01*
X051665Y050697D02*
X05177D01*
X05198Y050855D02*
Y05054D01*
X052137D01*
X05219Y050592D01*
Y050802D01*
X052137Y050855D01*
X05198D01*
X052452Y05054D02*
Y050855D01*
X052295Y050697D01*
X052504D01*
X052609Y050802D02*
X052662Y050855D01*
X052767D01*
X052819Y050802D01*
Y050592D01*
X052767Y05054D01*
X052662D01*
X052609Y050592D01*
Y050802D01*
X04859Y050855D02*
Y05054D01*
X0488D01*
X049115Y050855D02*
X048905D01*
Y05054D01*
X049115D01*
X048905Y050697D02*
X04901D01*
X04922Y050855D02*
Y05054D01*
X049377D01*
X04943Y050592D01*
Y050802D01*
X049377Y050855D01*
X04922D01*
X049535Y050802D02*
X049587Y050855D01*
X049692D01*
X049744Y050802D01*
Y05075D01*
X049692Y050697D01*
X04964D01*
X049692D01*
X049744Y050645D01*
Y050592D01*
X049692Y05054D01*
X049587D01*
X049535Y050592D01*
X049849D02*
X049902Y05054D01*
X050007D01*
X050059Y050592D01*
Y050802D01*
X050007Y050855D01*
X049902D01*
X049849Y050802D01*
Y05075D01*
X049902Y050697D01*
X050059D01*
X04584Y050855D02*
Y05054D01*
X04605D01*
X046365Y050855D02*
X046155D01*
Y05054D01*
X046365D01*
X046155Y050697D02*
X04626D01*
X04647Y050855D02*
Y05054D01*
X046627D01*
X04668Y050592D01*
Y050802D01*
X046627Y050855D01*
X04647D01*
X046785Y050802D02*
X046837Y050855D01*
X046942D01*
X046994Y050802D01*
Y05075D01*
X046942Y050697D01*
X04689D01*
X046942D01*
X046994Y050645D01*
Y050592D01*
X046942Y05054D01*
X046837D01*
X046785Y050592D01*
X047099Y050802D02*
X047152Y050855D01*
X047257D01*
X047309Y050802D01*
Y05075D01*
X047257Y050697D01*
X047309Y050645D01*
Y050592D01*
X047257Y05054D01*
X047152D01*
X047099Y050592D01*
Y050645D01*
X047152Y050697D01*
X047099Y05075D01*
Y050802D01*
X047152Y050697D02*
X047257D01*
X04308Y050855D02*
Y05054D01*
X04329D01*
X043605Y050855D02*
X043395D01*
Y05054D01*
X043605D01*
X043395Y050697D02*
X0435D01*
X04371Y050855D02*
Y05054D01*
X043867D01*
X04392Y050592D01*
Y050802D01*
X043867Y050855D01*
X04371D01*
X044025Y050802D02*
X044077Y050855D01*
X044182D01*
X044234Y050802D01*
Y05075D01*
X044182Y050697D01*
X04413D01*
X044182D01*
X044234Y050645D01*
Y050592D01*
X044182Y05054D01*
X044077D01*
X044025Y050592D01*
X044339Y050855D02*
X044549D01*
Y050802D01*
X044339Y050592D01*
Y05054D01*
X04032Y050855D02*
Y05054D01*
X04053D01*
X040845Y050855D02*
X040635D01*
Y05054D01*
X040845D01*
X040635Y050697D02*
X04074D01*
X04095Y050855D02*
Y05054D01*
X041107D01*
X04116Y050592D01*
Y050802D01*
X041107Y050855D01*
X04095D01*
X041265Y050802D02*
X041317Y050855D01*
X041422D01*
X041474Y050802D01*
Y05075D01*
X041422Y050697D01*
X04137D01*
X041422D01*
X041474Y050645D01*
Y050592D01*
X041422Y05054D01*
X041317D01*
X041265Y050592D01*
X041789Y050855D02*
X041684Y050802D01*
X041579Y050697D01*
Y050592D01*
X041632Y05054D01*
X041737D01*
X041789Y050592D01*
Y050645D01*
X041737Y050697D01*
X041579D01*
X03757Y050855D02*
Y05054D01*
X03778D01*
X038095Y050855D02*
X037885D01*
Y05054D01*
X038095D01*
X037885Y050697D02*
X03799D01*
X0382Y050855D02*
Y05054D01*
X038357D01*
X03841Y050592D01*
Y050802D01*
X038357Y050855D01*
X0382D01*
X038515Y050802D02*
X038567Y050855D01*
X038672D01*
X038724Y050802D01*
Y05075D01*
X038672Y050697D01*
X03862D01*
X038672D01*
X038724Y050645D01*
Y050592D01*
X038672Y05054D01*
X038567D01*
X038515Y050592D01*
X039039Y050855D02*
X038829D01*
Y050697D01*
X038934Y05075D01*
X038987D01*
X039039Y050697D01*
Y050592D01*
X038987Y05054D01*
X038882D01*
X038829Y050592D01*
X03481Y050855D02*
Y05054D01*
X03502D01*
X035335Y050855D02*
X035125D01*
Y05054D01*
X035335D01*
X035125Y050697D02*
X03523D01*
X03544Y050855D02*
Y05054D01*
X035597D01*
X03565Y050592D01*
Y050802D01*
X035597Y050855D01*
X03544D01*
X035755Y050802D02*
X035807Y050855D01*
X035912D01*
X035964Y050802D01*
Y05075D01*
X035912Y050697D01*
X03586D01*
X035912D01*
X035964Y050645D01*
Y050592D01*
X035912Y05054D01*
X035807D01*
X035755Y050592D01*
X036227Y05054D02*
Y050855D01*
X036069Y050697D01*
X036279D01*
X06237Y054005D02*
Y05369D01*
X06258D01*
X062895Y054005D02*
X062685D01*
Y05369D01*
X062895D01*
X062685Y053847D02*
X06279D01*
X063Y054005D02*
Y05369D01*
X063157D01*
X06321Y053742D01*
Y053952D01*
X063157Y054005D01*
X063D01*
X063315Y053952D02*
X063367Y054005D01*
X063472D01*
X063524Y053952D01*
Y0539D01*
X063472Y053847D01*
X06342D01*
X063472D01*
X063524Y053795D01*
Y053742D01*
X063472Y05369D01*
X063367D01*
X063315Y053742D01*
X063629Y053952D02*
X063682Y054005D01*
X063787D01*
X063839Y053952D01*
Y0539D01*
X063787Y053847D01*
X063734D01*
X063787D01*
X063839Y053795D01*
Y053742D01*
X063787Y05369D01*
X063682D01*
X063629Y053742D01*
X05962Y054005D02*
Y05369D01*
X05983D01*
X060145Y054005D02*
X059935D01*
Y05369D01*
X060145D01*
X059935Y053847D02*
X06004D01*
X06025Y054005D02*
Y05369D01*
X060407D01*
X06046Y053742D01*
Y053952D01*
X060407Y054005D01*
X06025D01*
X060565Y053952D02*
X060617Y054005D01*
X060722D01*
X060774Y053952D01*
Y0539D01*
X060722Y053847D01*
X06067D01*
X060722D01*
X060774Y053795D01*
Y053742D01*
X060722Y05369D01*
X060617D01*
X060565Y053742D01*
X061089Y05369D02*
X060879D01*
X061089Y0539D01*
Y053952D01*
X061037Y054005D01*
X060932D01*
X060879Y053952D01*
X05686Y054005D02*
Y05369D01*
X05707D01*
X057385Y054005D02*
X057175D01*
Y05369D01*
X057385D01*
X057175Y053847D02*
X05728D01*
X05749Y054005D02*
Y05369D01*
X057647D01*
X0577Y053742D01*
Y053952D01*
X057647Y054005D01*
X05749D01*
X057805Y053952D02*
X057857Y054005D01*
X057962D01*
X058014Y053952D01*
Y0539D01*
X057962Y053847D01*
X05791D01*
X057962D01*
X058014Y053795D01*
Y053742D01*
X057962Y05369D01*
X057857D01*
X057805Y053742D01*
X058119Y05369D02*
X058224D01*
X058172D01*
Y054005D01*
X058119Y053952D01*
X0541Y054005D02*
Y05369D01*
X05431D01*
X054625Y054005D02*
X054415D01*
Y05369D01*
X054625D01*
X054415Y053847D02*
X05452D01*
X05473Y054005D02*
Y05369D01*
X054887D01*
X05494Y053742D01*
Y053952D01*
X054887Y054005D01*
X05473D01*
X055045Y053952D02*
X055097Y054005D01*
X055202D01*
X055254Y053952D01*
Y0539D01*
X055202Y053847D01*
X05515D01*
X055202D01*
X055254Y053795D01*
Y053742D01*
X055202Y05369D01*
X055097D01*
X055045Y053742D01*
X055359Y053952D02*
X055412Y054005D01*
X055517D01*
X055569Y053952D01*
Y053742D01*
X055517Y05369D01*
X055412D01*
X055359Y053742D01*
Y053952D01*
X05135Y054005D02*
Y05369D01*
X05156D01*
X051875Y054005D02*
X051665D01*
Y05369D01*
X051875D01*
X051665Y053847D02*
X05177D01*
X05198Y054005D02*
Y05369D01*
X052137D01*
X05219Y053742D01*
Y053952D01*
X052137Y054005D01*
X05198D01*
X052504Y05369D02*
X052295D01*
X052504Y0539D01*
Y053952D01*
X052452Y054005D01*
X052347D01*
X052295Y053952D01*
X052609Y053742D02*
X052662Y05369D01*
X052767D01*
X052819Y053742D01*
Y053952D01*
X052767Y054005D01*
X052662D01*
X052609Y053952D01*
Y0539D01*
X052662Y053847D01*
X052819D01*
X04859Y054005D02*
Y05369D01*
X0488D01*
X049115Y054005D02*
X048905D01*
Y05369D01*
X049115D01*
X048905Y053847D02*
X04901D01*
X04922Y054005D02*
Y05369D01*
X049377D01*
X04943Y053742D01*
Y053952D01*
X049377Y054005D01*
X04922D01*
X049744Y05369D02*
X049535D01*
X049744Y0539D01*
Y053952D01*
X049692Y054005D01*
X049587D01*
X049535Y053952D01*
X049849D02*
X049902Y054005D01*
X050007D01*
X050059Y053952D01*
Y0539D01*
X050007Y053847D01*
X050059Y053795D01*
Y053742D01*
X050007Y05369D01*
X049902D01*
X049849Y053742D01*
Y053795D01*
X049902Y053847D01*
X049849Y0539D01*
Y053952D01*
X049902Y053847D02*
X050007D01*
X04584Y054005D02*
Y05369D01*
X04605D01*
X046365Y054005D02*
X046155D01*
Y05369D01*
X046365D01*
X046155Y053847D02*
X04626D01*
X04647Y054005D02*
Y05369D01*
X046627D01*
X04668Y053742D01*
Y053952D01*
X046627Y054005D01*
X04647D01*
X046994Y05369D02*
X046785D01*
X046994Y0539D01*
Y053952D01*
X046942Y054005D01*
X046837D01*
X046785Y053952D01*
X047099Y054005D02*
X047309D01*
Y053952D01*
X047099Y053742D01*
Y05369D01*
X04308Y054005D02*
Y05369D01*
X04329D01*
X043605Y054005D02*
X043395D01*
Y05369D01*
X043605D01*
X043395Y053847D02*
X0435D01*
X04371Y054005D02*
Y05369D01*
X043867D01*
X04392Y053742D01*
Y053952D01*
X043867Y054005D01*
X04371D01*
X044234Y05369D02*
X044025D01*
X044234Y0539D01*
Y053952D01*
X044182Y054005D01*
X044077D01*
X044025Y053952D01*
X044549Y054005D02*
X044444Y053952D01*
X044339Y053847D01*
Y053742D01*
X044392Y05369D01*
X044497D01*
X044549Y053742D01*
Y053795D01*
X044497Y053847D01*
X044339D01*
X04032Y054005D02*
Y05369D01*
X04053D01*
X040845Y054005D02*
X040635D01*
Y05369D01*
X040845D01*
X040635Y053847D02*
X04074D01*
X04095Y054005D02*
Y05369D01*
X041107D01*
X04116Y053742D01*
Y053952D01*
X041107Y054005D01*
X04095D01*
X041474Y05369D02*
X041265D01*
X041474Y0539D01*
Y053952D01*
X041422Y054005D01*
X041317D01*
X041265Y053952D01*
X041789Y054005D02*
X041579D01*
Y053847D01*
X041684Y0539D01*
X041737D01*
X041789Y053847D01*
Y053742D01*
X041737Y05369D01*
X041632D01*
X041579Y053742D01*
X03757Y054005D02*
Y05369D01*
X03778D01*
X038095Y054005D02*
X037885D01*
Y05369D01*
X038095D01*
X037885Y053847D02*
X03799D01*
X0382Y054005D02*
Y05369D01*
X038357D01*
X03841Y053742D01*
Y053952D01*
X038357Y054005D01*
X0382D01*
X038724Y05369D02*
X038515D01*
X038724Y0539D01*
Y053952D01*
X038672Y054005D01*
X038567D01*
X038515Y053952D01*
X038987Y05369D02*
Y054005D01*
X038829Y053847D01*
X039039D01*
X03481Y054005D02*
Y05369D01*
X03502D01*
X035335Y054005D02*
X035125D01*
Y05369D01*
X035335D01*
X035125Y053847D02*
X03523D01*
X03544Y054005D02*
Y05369D01*
X035597D01*
X03565Y053742D01*
Y053952D01*
X035597Y054005D01*
X03544D01*
X035964Y05369D02*
X035755D01*
X035964Y0539D01*
Y053952D01*
X035912Y054005D01*
X035807D01*
X035755Y053952D01*
X036069D02*
X036122Y054005D01*
X036227D01*
X036279Y053952D01*
Y0539D01*
X036227Y053847D01*
X036174D01*
X036227D01*
X036279Y053795D01*
Y053742D01*
X036227Y05369D01*
X036122D01*
X036069Y053742D01*
X06237Y057155D02*
Y05684D01*
X06258D01*
X062895Y057155D02*
X062685D01*
Y05684D01*
X062895D01*
X062685Y056997D02*
X06279D01*
X063Y057155D02*
Y05684D01*
X063157D01*
X06321Y056892D01*
Y057102D01*
X063157Y057155D01*
X063D01*
X063524Y05684D02*
X063315D01*
X063524Y05705D01*
Y057102D01*
X063472Y057155D01*
X063367D01*
X063315Y057102D01*
X063839Y05684D02*
X063629D01*
X063839Y05705D01*
Y057102D01*
X063787Y057155D01*
X063682D01*
X063629Y057102D01*
X05962Y057155D02*
Y05684D01*
X05983D01*
X060145Y057155D02*
X059935D01*
Y05684D01*
X060145D01*
X059935Y056997D02*
X06004D01*
X06025Y057155D02*
Y05684D01*
X060407D01*
X06046Y056892D01*
Y057102D01*
X060407Y057155D01*
X06025D01*
X060774Y05684D02*
X060565D01*
X060774Y05705D01*
Y057102D01*
X060722Y057155D01*
X060617D01*
X060565Y057102D01*
X060879Y05684D02*
X060984D01*
X060932D01*
Y057155D01*
X060879Y057102D01*
X05686Y057155D02*
Y05684D01*
X05707D01*
X057385Y057155D02*
X057175D01*
Y05684D01*
X057385D01*
X057175Y056997D02*
X05728D01*
X05749Y057155D02*
Y05684D01*
X057647D01*
X0577Y056892D01*
Y057102D01*
X057647Y057155D01*
X05749D01*
X058014Y05684D02*
X057805D01*
X058014Y05705D01*
Y057102D01*
X057962Y057155D01*
X057857D01*
X057805Y057102D01*
X058119D02*
X058172Y057155D01*
X058277D01*
X058329Y057102D01*
Y056892D01*
X058277Y05684D01*
X058172D01*
X058119Y056892D01*
Y057102D01*
X0541Y057155D02*
Y05684D01*
X05431D01*
X054625Y057155D02*
X054415D01*
Y05684D01*
X054625D01*
X054415Y056997D02*
X05452D01*
X05473Y057155D02*
Y05684D01*
X054887D01*
X05494Y056892D01*
Y057102D01*
X054887Y057155D01*
X05473D01*
X055045Y05684D02*
X05515D01*
X055097D01*
Y057155D01*
X055045Y057102D01*
X055307Y056892D02*
X055359Y05684D01*
X055464D01*
X055517Y056892D01*
Y057102D01*
X055464Y057155D01*
X055359D01*
X055307Y057102D01*
Y05705D01*
X055359Y056997D01*
X055517D01*
X05135Y057155D02*
Y05684D01*
X05156D01*
X051875Y057155D02*
X051665D01*
Y05684D01*
X051875D01*
X051665Y056997D02*
X05177D01*
X05198Y057155D02*
Y05684D01*
X052137D01*
X05219Y056892D01*
Y057102D01*
X052137Y057155D01*
X05198D01*
X052295Y05684D02*
X0524D01*
X052347D01*
Y057155D01*
X052295Y057102D01*
X052557D02*
X052609Y057155D01*
X052714D01*
X052767Y057102D01*
Y05705D01*
X052714Y056997D01*
X052767Y056945D01*
Y056892D01*
X052714Y05684D01*
X052609D01*
X052557Y056892D01*
Y056945D01*
X052609Y056997D01*
X052557Y05705D01*
Y057102D01*
X052609Y056997D02*
X052714D01*
X04859Y057155D02*
Y05684D01*
X0488D01*
X049115Y057155D02*
X048905D01*
Y05684D01*
X049115D01*
X048905Y056997D02*
X04901D01*
X04922Y057155D02*
Y05684D01*
X049377D01*
X04943Y056892D01*
Y057102D01*
X049377Y057155D01*
X04922D01*
X049535Y05684D02*
X04964D01*
X049587D01*
Y057155D01*
X049535Y057102D01*
X049797Y057155D02*
X050007D01*
Y057102D01*
X049797Y056892D01*
Y05684D01*
X04584Y057155D02*
Y05684D01*
X04605D01*
X046365Y057155D02*
X046155D01*
Y05684D01*
X046365D01*
X046155Y056997D02*
X04626D01*
X04647Y057155D02*
Y05684D01*
X046627D01*
X04668Y056892D01*
Y057102D01*
X046627Y057155D01*
X04647D01*
X046785Y05684D02*
X04689D01*
X046837D01*
Y057155D01*
X046785Y057102D01*
X047257Y057155D02*
X047152Y057102D01*
X047047Y056997D01*
Y056892D01*
X047099Y05684D01*
X047204D01*
X047257Y056892D01*
Y056945D01*
X047204Y056997D01*
X047047D01*
X04308Y057155D02*
Y05684D01*
X04329D01*
X043605Y057155D02*
X043395D01*
Y05684D01*
X043605D01*
X043395Y056997D02*
X0435D01*
X04371Y057155D02*
Y05684D01*
X043867D01*
X04392Y056892D01*
Y057102D01*
X043867Y057155D01*
X04371D01*
X044025Y05684D02*
X04413D01*
X044077D01*
Y057155D01*
X044025Y057102D01*
X044497Y057155D02*
X044287D01*
Y056997D01*
X044392Y05705D01*
X044444D01*
X044497Y056997D01*
Y056892D01*
X044444Y05684D01*
X044339D01*
X044287Y056892D01*
X04032Y057155D02*
Y05684D01*
X04053D01*
X040845Y057155D02*
X040635D01*
Y05684D01*
X040845D01*
X040635Y056997D02*
X04074D01*
X04095Y057155D02*
Y05684D01*
X041107D01*
X04116Y056892D01*
Y057102D01*
X041107Y057155D01*
X04095D01*
X041265Y05684D02*
X04137D01*
X041317D01*
Y057155D01*
X041265Y057102D01*
X041684Y05684D02*
Y057155D01*
X041527Y056997D01*
X041737D01*
X03757Y057155D02*
Y05684D01*
X03778D01*
X038095Y057155D02*
X037885D01*
Y05684D01*
X038095D01*
X037885Y056997D02*
X03799D01*
X0382Y057155D02*
Y05684D01*
X038357D01*
X03841Y056892D01*
Y057102D01*
X038357Y057155D01*
X0382D01*
X038515Y05684D02*
X03862D01*
X038567D01*
Y057155D01*
X038515Y057102D01*
X038777D02*
X038829Y057155D01*
X038934D01*
X038987Y057102D01*
Y05705D01*
X038934Y056997D01*
X038882D01*
X038934D01*
X038987Y056945D01*
Y056892D01*
X038934Y05684D01*
X038829D01*
X038777Y056892D01*
X03481Y057155D02*
Y05684D01*
X03502D01*
X035335Y057155D02*
X035125D01*
Y05684D01*
X035335D01*
X035125Y056997D02*
X03523D01*
X03544Y057155D02*
Y05684D01*
X035597D01*
X03565Y056892D01*
Y057102D01*
X035597Y057155D01*
X03544D01*
X035755Y05684D02*
X03586D01*
X035807D01*
Y057155D01*
X035755Y057102D01*
X036227Y05684D02*
X036017D01*
X036227Y05705D01*
Y057102D01*
X036174Y057155D01*
X036069D01*
X036017Y057102D01*
X06237Y060305D02*
Y05999D01*
X06258D01*
X062895Y060305D02*
X062685D01*
Y05999D01*
X062895D01*
X062685Y060147D02*
X06279D01*
X063Y060305D02*
Y05999D01*
X063157D01*
X06321Y060042D01*
Y060252D01*
X063157Y060305D01*
X063D01*
X063315Y05999D02*
X06342D01*
X063367D01*
Y060305D01*
X063315Y060252D01*
X063577Y05999D02*
X063682D01*
X063629D01*
Y060305D01*
X063577Y060252D01*
X05962Y060305D02*
Y05999D01*
X05983D01*
X060145Y060305D02*
X059935D01*
Y05999D01*
X060145D01*
X059935Y060147D02*
X06004D01*
X06025Y060305D02*
Y05999D01*
X060407D01*
X06046Y060042D01*
Y060252D01*
X060407Y060305D01*
X06025D01*
X060565Y05999D02*
X06067D01*
X060617D01*
Y060305D01*
X060565Y060252D01*
X060827D02*
X060879Y060305D01*
X060984D01*
X061037Y060252D01*
Y060042D01*
X060984Y05999D01*
X060879D01*
X060827Y060042D01*
Y060252D01*
X05686Y060305D02*
Y05999D01*
X05707D01*
X057385Y060305D02*
X057175D01*
Y05999D01*
X057385D01*
X057175Y060147D02*
X05728D01*
X05749Y060305D02*
Y05999D01*
X057647D01*
X0577Y060042D01*
Y060252D01*
X057647Y060305D01*
X05749D01*
X057805Y060042D02*
X057857Y05999D01*
X057962D01*
X058014Y060042D01*
Y060252D01*
X057962Y060305D01*
X057857D01*
X057805Y060252D01*
Y0602D01*
X057857Y060147D01*
X058014D01*
X0541Y060305D02*
Y05999D01*
X05431D01*
X054625Y060305D02*
X054415D01*
Y05999D01*
X054625D01*
X054415Y060147D02*
X05452D01*
X05473Y060305D02*
Y05999D01*
X054887D01*
X05494Y060042D01*
Y060252D01*
X054887Y060305D01*
X05473D01*
X055045Y060252D02*
X055097Y060305D01*
X055202D01*
X055254Y060252D01*
Y0602D01*
X055202Y060147D01*
X055254Y060095D01*
Y060042D01*
X055202Y05999D01*
X055097D01*
X055045Y060042D01*
Y060095D01*
X055097Y060147D01*
X055045Y0602D01*
Y060252D01*
X055097Y060147D02*
X055202D01*
X05135Y060305D02*
Y05999D01*
X05156D01*
X051875Y060305D02*
X051665D01*
Y05999D01*
X051875D01*
X051665Y060147D02*
X05177D01*
X05198Y060305D02*
Y05999D01*
X052137D01*
X05219Y060042D01*
Y060252D01*
X052137Y060305D01*
X05198D01*
X052295D02*
X052504D01*
Y060252D01*
X052295Y060042D01*
Y05999D01*
X04859Y060305D02*
Y05999D01*
X0488D01*
X049115Y060305D02*
X048905D01*
Y05999D01*
X049115D01*
X048905Y060147D02*
X04901D01*
X04922Y060305D02*
Y05999D01*
X049377D01*
X04943Y060042D01*
Y060252D01*
X049377Y060305D01*
X04922D01*
X049744D02*
X04964Y060252D01*
X049535Y060147D01*
Y060042D01*
X049587Y05999D01*
X049692D01*
X049744Y060042D01*
Y060095D01*
X049692Y060147D01*
X049535D01*
X04584Y060305D02*
Y05999D01*
X04605D01*
X046365Y060305D02*
X046155D01*
Y05999D01*
X046365D01*
X046155Y060147D02*
X04626D01*
X04647Y060305D02*
Y05999D01*
X046627D01*
X04668Y060042D01*
Y060252D01*
X046627Y060305D01*
X04647D01*
X046994D02*
X046785D01*
Y060147D01*
X04689Y0602D01*
X046942D01*
X046994Y060147D01*
Y060042D01*
X046942Y05999D01*
X046837D01*
X046785Y060042D01*
X04308Y060305D02*
Y05999D01*
X04329D01*
X043605Y060305D02*
X043395D01*
Y05999D01*
X043605D01*
X043395Y060147D02*
X0435D01*
X04371Y060305D02*
Y05999D01*
X043867D01*
X04392Y060042D01*
Y060252D01*
X043867Y060305D01*
X04371D01*
X044182Y05999D02*
Y060305D01*
X044025Y060147D01*
X044234D01*
X04032Y060305D02*
Y05999D01*
X04053D01*
X040845Y060305D02*
X040635D01*
Y05999D01*
X040845D01*
X040635Y060147D02*
X04074D01*
X04095Y060305D02*
Y05999D01*
X041107D01*
X04116Y060042D01*
Y060252D01*
X041107Y060305D01*
X04095D01*
X041265Y060252D02*
X041317Y060305D01*
X041422D01*
X041474Y060252D01*
Y0602D01*
X041422Y060147D01*
X04137D01*
X041422D01*
X041474Y060095D01*
Y060042D01*
X041422Y05999D01*
X041317D01*
X041265Y060042D01*
X03757Y060305D02*
Y05999D01*
X03778D01*
X038095Y060305D02*
X037885D01*
Y05999D01*
X038095D01*
X037885Y060147D02*
X03799D01*
X0382Y060305D02*
Y05999D01*
X038357D01*
X03841Y060042D01*
Y060252D01*
X038357Y060305D01*
X0382D01*
X038724Y05999D02*
X038515D01*
X038724Y0602D01*
Y060252D01*
X038672Y060305D01*
X038567D01*
X038515Y060252D01*
X03481Y060305D02*
Y05999D01*
X03502D01*
X035335Y060305D02*
X035125D01*
Y05999D01*
X035335D01*
X035125Y060147D02*
X03523D01*
X03544Y060305D02*
Y05999D01*
X035597D01*
X03565Y060042D01*
Y060252D01*
X035597Y060305D01*
X03544D01*
X035755Y05999D02*
X03586D01*
X035807D01*
Y060305D01*
X035755Y060252D01*
X07161Y055262D02*
X071557Y055315D01*
X071452D01*
X0714Y055262D01*
Y055052D01*
X071452Y055D01*
X071557D01*
X07161Y055052D01*
X071715Y055262D02*
X071767Y055315D01*
X071872D01*
X071925Y055262D01*
Y05521D01*
X071872Y055157D01*
X07182D01*
X071872D01*
X071925Y055105D01*
Y055052D01*
X071872Y055D01*
X071767D01*
X071715Y055052D01*
X07161Y057462D02*
X071557Y057515D01*
X071452D01*
X0714Y057462D01*
Y057252D01*
X071452Y0572D01*
X071557D01*
X07161Y057252D01*
X071872Y0572D02*
Y057515D01*
X071715Y057357D01*
X071925D01*
X04201Y019062D02*
X041957Y019115D01*
X041852D01*
X0418Y019062D01*
Y018852D01*
X041852Y0188D01*
X041957D01*
X04201Y018852D01*
X042115Y019115D02*
X042325D01*
Y019062D01*
X042115Y018852D01*
Y0188D01*
X04461Y020062D02*
X044557Y020115D01*
X044452D01*
X0444Y020062D01*
Y019852D01*
X044452Y0198D01*
X044557D01*
X04461Y019852D01*
X044715Y020062D02*
X044767Y020115D01*
X044872D01*
X044925Y020062D01*
Y02001D01*
X044872Y019957D01*
X044925Y019905D01*
Y019852D01*
X044872Y0198D01*
X044767D01*
X044715Y019852D01*
Y019905D01*
X044767Y019957D01*
X044715Y02001D01*
Y020062D01*
X044767Y019957D02*
X044872D01*
D27*
X0004Y0005D02*
X0003Y0006D01*
X0001D01*
X0Y0005D01*
Y0004D01*
X0001Y0003D01*
X0003D01*
X0004Y0002D01*
Y0001D01*
X0003Y0D01*
X0001D01*
X0Y0001D01*
X0007Y0005D02*
Y0004D01*
X0006D01*
X0008D01*
X0007D01*
Y0001D01*
X0008Y0D01*
X0011Y0004D02*
Y0D01*
Y0002D01*
X0012Y0003D01*
X0013Y0004D01*
X0014D01*
X001699Y0D02*
X001899D01*
X001799D01*
Y0004D01*
X001699D01*
X002199Y0D02*
Y0004D01*
X002499D01*
X002599Y0003D01*
Y0D01*
X002999Y-0002D02*
X003099D01*
X003199Y-0001D01*
Y0004D01*
X002899D01*
X002799Y0003D01*
Y0001D01*
X002899Y0D01*
X003199D01*
X06886Y01859D02*
Y01909D01*
X06911D01*
X069193Y019007D01*
Y01884D01*
X06911Y018757D01*
X06886D01*
X06936Y018923D02*
X069693Y01859D01*
X069526Y018757D01*
X069693Y018923D01*
X06936Y01859D01*
X070193Y01909D02*
X06986D01*
Y01884D01*
X070026D01*
X06986D01*
Y01859D01*
X070943Y019007D02*
Y018923D01*
X070859D01*
X071026D01*
X070943D01*
Y018673D01*
X071026Y01859D01*
X071526D02*
X071359D01*
X071276Y018673D01*
Y01884D01*
X071359Y018923D01*
X071526D01*
X071609Y01884D01*
Y018757D01*
X071276D01*
X071859Y018923D02*
X072026D01*
X072109Y01884D01*
Y01859D01*
X071859D01*
X071776Y018673D01*
X071859Y018757D01*
X072109D01*
X072276Y01859D02*
Y018923D01*
X072359D01*
X072442Y01884D01*
Y01859D01*
Y01884D01*
X072525Y018923D01*
X072609Y01884D01*
Y01859D01*
D28*
X0606Y06405D02*
Y0634D01*
X060817Y063617D01*
X061033Y0634D01*
Y06405D01*
X061575D02*
X061358D01*
X06125Y063941D01*
Y063508D01*
X061358Y0634D01*
X061575D01*
X061683Y063508D01*
Y063941D01*
X061575Y06405D01*
X0619Y0634D02*
Y06405D01*
X062224D01*
X062333Y063941D01*
Y063725D01*
X062224Y063617D01*
X0619D01*
X062116D02*
X062333Y0634D01*
X062549Y06405D02*
Y0634D01*
X062874D01*
X062983Y063508D01*
Y063941D01*
X062874Y06405D01*
X062549D01*
X060723Y062951D02*
X060615Y06306D01*
X060398D01*
X06029Y062951D01*
Y062518D01*
X060398Y06241D01*
X060615D01*
X060723Y062518D01*
X06094Y06306D02*
Y06241D01*
X061373D01*
X061914Y06306D02*
X061698D01*
X06159Y062951D01*
Y062518D01*
X061698Y06241D01*
X061914D01*
X062023Y062518D01*
Y062951D01*
X061914Y06306D01*
X062673Y062951D02*
X062564Y06306D01*
X062348D01*
X062239Y062951D01*
Y062518D01*
X062348Y06241D01*
X062564D01*
X062673Y062518D01*
X062889Y06306D02*
Y06241D01*
Y062627D01*
X063322Y06306D01*
X062997Y062735D01*
X063322Y06241D01*
M02*
