G04 Layer_Color=2752767*
%FSTAX24Y24*%
%MOIN*%
G70*
G01*
G75*
%ADD43C,0.0020*%
%ADD44C,0.0027*%
D43*
X06293Y02135D02*
Y02151D01*
X06309D01*
Y02135D01*
X06293D01*
X05893D02*
Y02151D01*
X05909D01*
Y02135D01*
X05893D01*
X05993D02*
Y02151D01*
X06009D01*
Y02135D01*
X05993D01*
X06093D02*
Y02151D01*
X06109D01*
Y02135D01*
X06093D01*
X06193D02*
Y02151D01*
X06209D01*
Y02135D01*
X06193D01*
D44*
X05605Y06418D02*
G03*
X05605Y06418I-00008J0D01*
G01*
X05622Y06074D02*
G03*
X05622Y06074I-00008J0D01*
G01*
X05556Y06076D02*
G03*
X05556Y06076I-00008J0D01*
G01*
X02594Y05373D02*
G03*
X02594Y05373I-00008J0D01*
G01*
X04485Y01919D02*
G03*
X04485Y01919I-00008J0D01*
G01*
X06481Y02977D02*
G03*
X06481Y02977I-00008J0D01*
G01*
X0313Y02484D02*
G03*
X0313Y02484I-00008J0D01*
G01*
X02674Y05509D02*
G03*
X02674Y05509I-00008J0D01*
G01*
X05328Y06073D02*
G03*
X05328Y06073I-00008J0D01*
G01*
X04654D02*
G03*
X04654Y06073I-00008J0D01*
G01*
X03943Y06075D02*
G03*
X03943Y06075I-00008J0D01*
G01*
X02669Y05669D02*
G03*
X02669Y05669I-00008J0D01*
G01*
X02934Y03491D02*
G03*
X02934Y03491I-00008J0D01*
G01*
X02951Y06226D02*
G03*
X02951Y06226I-00008J0D01*
G01*
X06633Y05989D02*
G03*
X06633Y05989I-00008J0D01*
G01*
X03662Y06048D02*
G03*
X03662Y06048I-00008J0D01*
G01*
X03454Y06094D02*
G03*
X03454Y06094I-00008J0D01*
G01*
X02999Y03507D02*
G03*
X02999Y03507I-00008J0D01*
G01*
X033Y05433D02*
G03*
X033Y05433I-00008J0D01*
G01*
X02775Y05612D02*
G03*
X02775Y05612I-00008J0D01*
G01*
X0273Y05362D02*
G03*
X0273Y05362I-00008J0D01*
G01*
X027854Y058156D02*
G03*
X027854Y058156I-00008J0D01*
G01*
X035513Y053993D02*
G03*
X035513Y053993I-00008J0D01*
G01*
X033006Y057156D02*
G03*
X033006Y057156I-00008J0D01*
G01*
X0343Y03605D02*
G03*
X0343Y03605I-00008J0D01*
G01*
X0315Y05521D02*
G03*
X0315Y05521I-00008J0D01*
G01*
X07007Y0595D02*
G03*
X07007Y0595I-00008J0D01*
G01*
X04834Y02492D02*
G03*
X04834Y02492I-00008J0D01*
G01*
X07141D02*
G03*
X07141Y02492I-00008J0D01*
G01*
X07Y06221D02*
G03*
X07Y06221I-00008J0D01*
G01*
X06534Y02436D02*
G03*
X06534Y02436I-00008J0D01*
G01*
X04549Y02143D02*
G03*
X04549Y02143I-00008J0D01*
G01*
X049293Y02395D02*
G03*
X049293Y02395I-00008J0D01*
G01*
X04261Y02249D02*
G03*
X04261Y02249I-00008J0D01*
G01*
X03911Y02207D02*
G03*
X03911Y02207I-00008J0D01*
G01*
X03811Y0248D02*
G03*
X03811Y0248I-00008J0D01*
G01*
X04277Y03198D02*
G03*
X04277Y03198I-00008J0D01*
G01*
X04361Y02329D02*
G03*
X04361Y02329I-00008J0D01*
G01*
X04163Y02379D02*
G03*
X04163Y02379I-00008J0D01*
G01*
X03965Y02595D02*
G03*
X03965Y02595I-00008J0D01*
G01*
X032265Y059755D02*
G03*
X032265Y059755I-00008J0D01*
G01*
X06963Y0419D02*
G03*
X06963Y0419I-00008J0D01*
G01*
X06478Y04166D02*
G03*
X06478Y04166I-00008J0D01*
G01*
Y04102D02*
G03*
X06478Y04102I-00008J0D01*
G01*
X06964D02*
G03*
X06964Y04102I-00008J0D01*
G01*
X06929Y05667D02*
G03*
X06929Y05667I-00008J0D01*
G01*
X06862Y03821D02*
G03*
X06862Y03821I-00008J0D01*
G01*
X06484D02*
G03*
X06484Y03821I-00008J0D01*
G01*
X06452Y03569D02*
G03*
X06452Y03569I-00008J0D01*
G01*
X06552Y04323D02*
G03*
X06552Y04323I-00008J0D01*
G01*
X06483Y04457D02*
G03*
X06483Y04457I-00008J0D01*
G01*
X06565Y05367D02*
G03*
X06565Y05367I-00008J0D01*
G01*
X07008Y02557D02*
G03*
X07008Y02557I-00008J0D01*
G01*
X07006Y05239D02*
G03*
X07006Y05239I-00008J0D01*
G01*
X06449Y03329D02*
G03*
X06449Y03329I-00008J0D01*
G01*
X06386Y027559D02*
G03*
X06386Y027559I-00008J0D01*
G01*
X0648Y02561D02*
G03*
X0648Y02561I-00008J0D01*
G01*
X06289Y02559D02*
G03*
X06289Y02559I-00008J0D01*
G01*
X06534Y02803D02*
G03*
X06534Y02803I-00008J0D01*
G01*
X06899Y02334D02*
G03*
X06899Y02334I-00008J0D01*
G01*
X07086Y06421D02*
G03*
X07086Y06421I-00008J0D01*
G01*
X06386Y030709D02*
G03*
X06386Y030709I-00008J0D01*
G01*
Y033858D02*
G03*
X06386Y033858I-00008J0D01*
G01*
X061497Y027559D02*
G03*
X061497Y027559I-00008J0D01*
G01*
Y030709D02*
G03*
X061497Y030709I-00008J0D01*
G01*
Y033858D02*
G03*
X061497Y033858I-00008J0D01*
G01*
Y037008D02*
G03*
X061497Y037008I-00008J0D01*
G01*
Y040157D02*
G03*
X061497Y040157I-00008J0D01*
G01*
Y043307D02*
G03*
X061497Y043307I-00008J0D01*
G01*
Y046457D02*
G03*
X061497Y046457I-00008J0D01*
G01*
Y049606D02*
G03*
X061497Y049606I-00008J0D01*
G01*
Y052756D02*
G03*
X061497Y052756I-00008J0D01*
G01*
Y055906D02*
G03*
X061497Y055906I-00008J0D01*
G01*
Y059055D02*
G03*
X061497Y059055I-00008J0D01*
G01*
X058741Y027559D02*
G03*
X058741Y027559I-00008J0D01*
G01*
Y030709D02*
G03*
X058741Y030709I-00008J0D01*
G01*
Y033858D02*
G03*
X058741Y033858I-00008J0D01*
G01*
Y037008D02*
G03*
X058741Y037008I-00008J0D01*
G01*
Y040157D02*
G03*
X058741Y040157I-00008J0D01*
G01*
Y043307D02*
G03*
X058741Y043307I-00008J0D01*
G01*
Y046457D02*
G03*
X058741Y046457I-00008J0D01*
G01*
Y049606D02*
G03*
X058741Y049606I-00008J0D01*
G01*
Y052756D02*
G03*
X058741Y052756I-00008J0D01*
G01*
Y055906D02*
G03*
X058741Y055906I-00008J0D01*
G01*
Y059055D02*
G03*
X058741Y059055I-00008J0D01*
G01*
X05323Y027559D02*
G03*
X05323Y027559I-00008J0D01*
G01*
Y030709D02*
G03*
X05323Y030709I-00008J0D01*
G01*
Y033858D02*
G03*
X05323Y033858I-00008J0D01*
G01*
Y037008D02*
G03*
X05323Y037008I-00008J0D01*
G01*
Y040157D02*
G03*
X05323Y040157I-00008J0D01*
G01*
Y043307D02*
G03*
X05323Y043307I-00008J0D01*
G01*
Y046457D02*
G03*
X05323Y046457I-00008J0D01*
G01*
Y049606D02*
G03*
X05323Y049606I-00008J0D01*
G01*
Y052756D02*
G03*
X05323Y052756I-00008J0D01*
G01*
Y055906D02*
G03*
X05323Y055906I-00008J0D01*
G01*
Y059055D02*
G03*
X05323Y059055I-00008J0D01*
G01*
X050474Y027559D02*
G03*
X050474Y027559I-00008J0D01*
G01*
Y030709D02*
G03*
X050474Y030709I-00008J0D01*
G01*
Y033858D02*
G03*
X050474Y033858I-00008J0D01*
G01*
Y037008D02*
G03*
X050474Y037008I-00008J0D01*
G01*
Y040157D02*
G03*
X050474Y040157I-00008J0D01*
G01*
Y043307D02*
G03*
X050474Y043307I-00008J0D01*
G01*
Y046457D02*
G03*
X050474Y046457I-00008J0D01*
G01*
Y049606D02*
G03*
X050474Y049606I-00008J0D01*
G01*
Y052756D02*
G03*
X050474Y052756I-00008J0D01*
G01*
Y055906D02*
G03*
X050474Y055906I-00008J0D01*
G01*
Y059055D02*
G03*
X050474Y059055I-00008J0D01*
G01*
X047718Y027559D02*
G03*
X047718Y027559I-00008J0D01*
G01*
Y030709D02*
G03*
X047718Y030709I-00008J0D01*
G01*
Y033858D02*
G03*
X047718Y033858I-00008J0D01*
G01*
Y037008D02*
G03*
X047718Y037008I-00008J0D01*
G01*
Y040157D02*
G03*
X047718Y040157I-00008J0D01*
G01*
Y043307D02*
G03*
X047718Y043307I-00008J0D01*
G01*
Y046457D02*
G03*
X047718Y046457I-00008J0D01*
G01*
Y049606D02*
G03*
X047718Y049606I-00008J0D01*
G01*
Y052756D02*
G03*
X047718Y052756I-00008J0D01*
G01*
Y055906D02*
G03*
X047718Y055906I-00008J0D01*
G01*
Y059055D02*
G03*
X047718Y059055I-00008J0D01*
G01*
X044962Y027559D02*
G03*
X044962Y027559I-00008J0D01*
G01*
Y030709D02*
G03*
X044962Y030709I-00008J0D01*
G01*
Y033858D02*
G03*
X044962Y033858I-00008J0D01*
G01*
Y037008D02*
G03*
X044962Y037008I-00008J0D01*
G01*
Y040157D02*
G03*
X044962Y040157I-00008J0D01*
G01*
Y043307D02*
G03*
X044962Y043307I-00008J0D01*
G01*
Y046457D02*
G03*
X044962Y046457I-00008J0D01*
G01*
Y049606D02*
G03*
X044962Y049606I-00008J0D01*
G01*
Y052756D02*
G03*
X044962Y052756I-00008J0D01*
G01*
Y055906D02*
G03*
X044962Y055906I-00008J0D01*
G01*
Y059055D02*
G03*
X044962Y059055I-00008J0D01*
G01*
X042206Y027559D02*
G03*
X042206Y027559I-00008J0D01*
G01*
Y030709D02*
G03*
X042206Y030709I-00008J0D01*
G01*
Y033858D02*
G03*
X042206Y033858I-00008J0D01*
G01*
Y037008D02*
G03*
X042206Y037008I-00008J0D01*
G01*
Y040157D02*
G03*
X042206Y040157I-00008J0D01*
G01*
Y043307D02*
G03*
X042206Y043307I-00008J0D01*
G01*
Y046457D02*
G03*
X042206Y046457I-00008J0D01*
G01*
Y049606D02*
G03*
X042206Y049606I-00008J0D01*
G01*
Y052756D02*
G03*
X042206Y052756I-00008J0D01*
G01*
Y055906D02*
G03*
X042206Y055906I-00008J0D01*
G01*
Y059055D02*
G03*
X042206Y059055I-00008J0D01*
G01*
X03945Y027559D02*
G03*
X03945Y027559I-00008J0D01*
G01*
Y030709D02*
G03*
X03945Y030709I-00008J0D01*
G01*
Y033858D02*
G03*
X03945Y033858I-00008J0D01*
G01*
Y037008D02*
G03*
X03945Y037008I-00008J0D01*
G01*
Y040157D02*
G03*
X03945Y040157I-00008J0D01*
G01*
Y043307D02*
G03*
X03945Y043307I-00008J0D01*
G01*
Y046457D02*
G03*
X03945Y046457I-00008J0D01*
G01*
Y049606D02*
G03*
X03945Y049606I-00008J0D01*
G01*
Y052756D02*
G03*
X03945Y052756I-00008J0D01*
G01*
Y055906D02*
G03*
X03945Y055906I-00008J0D01*
G01*
Y059055D02*
G03*
X03945Y059055I-00008J0D01*
G01*
X036694Y027559D02*
G03*
X036694Y027559I-00008J0D01*
G01*
Y030709D02*
G03*
X036694Y030709I-00008J0D01*
G01*
Y033858D02*
G03*
X036694Y033858I-00008J0D01*
G01*
Y037008D02*
G03*
X036694Y037008I-00008J0D01*
G01*
Y040157D02*
G03*
X036694Y040157I-00008J0D01*
G01*
Y043307D02*
G03*
X036694Y043307I-00008J0D01*
G01*
Y046457D02*
G03*
X036694Y046457I-00008J0D01*
G01*
Y049606D02*
G03*
X036694Y049606I-00008J0D01*
G01*
Y052756D02*
G03*
X036694Y052756I-00008J0D01*
G01*
Y055906D02*
G03*
X036694Y055906I-00008J0D01*
G01*
Y059055D02*
G03*
X036694Y059055I-00008J0D01*
G01*
X06211Y01971D02*
G03*
X06211Y01971I-00008J0D01*
G01*
X04778Y02072D02*
G03*
X04778Y02072I-00008J0D01*
G01*
X04065Y02164D02*
G03*
X04065Y02164I-00008J0D01*
G01*
X0701Y03307D02*
G03*
X0701Y03307I-00008J0D01*
G01*
X06566Y03491D02*
G03*
X06566Y03491I-00008J0D01*
G01*
X07078Y02859D02*
G03*
X07078Y02859I-00008J0D01*
G01*
X07082Y02985D02*
G03*
X07082Y02985I-00008J0D01*
G01*
X02978Y01873D02*
G03*
X02978Y01873I-00008J0D01*
G01*
X07065Y06297D02*
G03*
X07065Y06297I-00008J0D01*
G01*
X0698Y03731D02*
G03*
X0698Y03731I-00008J0D01*
G01*
X0662Y02439D02*
G03*
X0662Y02439I-00008J0D01*
G01*
X06617Y02173D02*
G03*
X06617Y02173I-00008J0D01*
G01*
X0302Y05764D02*
G03*
X0302Y05764I-00008J0D01*
G01*
X035513Y050933D02*
G03*
X035513Y050933I-00008J0D01*
G01*
X03453Y04238D02*
G03*
X03453Y04238I-00008J0D01*
G01*
X03097Y05361D02*
G03*
X03097Y05361I-00008J0D01*
G01*
X03208Y05091D02*
G03*
X03208Y05091I-00008J0D01*
G01*
X05935Y039193D02*
G03*
X05935Y039193I-00008J0D01*
G01*
X05929Y05661D02*
G03*
X05929Y05661I-00008J0D01*
G01*
X03438Y0392D02*
G03*
X03438Y0392I-00008J0D01*
G01*
X03318Y0424D02*
G03*
X03318Y0424I-00008J0D01*
G01*
X03268Y0221D02*
G03*
X03268Y0221I-00008J0D01*
G01*
X03378Y05692D02*
G03*
X03378Y05692I-00008J0D01*
G01*
X03428Y0584D02*
G03*
X03428Y0584I-00008J0D01*
G01*
Y0577D02*
G03*
X03428Y0577I-00008J0D01*
G01*
X03318Y0584D02*
G03*
X03318Y0584I-00008J0D01*
G01*
X06948Y0608D02*
G03*
X06948Y0608I-00008J0D01*
G01*
Y06D02*
G03*
X06948Y06I-00008J0D01*
G01*
X06748Y0516D02*
G03*
X06748Y0516I-00008J0D01*
G01*
X06688D02*
G03*
X06688Y0516I-00008J0D01*
G01*
X06748Y0522D02*
G03*
X06748Y0522I-00008J0D01*
G01*
Y051D02*
G03*
X06748Y051I-00008J0D01*
G01*
X06688D02*
G03*
X06688Y051I-00008J0D01*
G01*
Y0504D02*
G03*
X06688Y0504I-00008J0D01*
G01*
X06748D02*
G03*
X06748Y0504I-00008J0D01*
G01*
X06688Y0498D02*
G03*
X06688Y0498I-00008J0D01*
G01*
X06748D02*
G03*
X06748Y0498I-00008J0D01*
G01*
X06688Y0522D02*
G03*
X06688Y0522I-00008J0D01*
G01*
X05728Y0256D02*
G03*
X05728Y0256I-00008J0D01*
G01*
X03508Y0234D02*
G03*
X03508Y0234I-00008J0D01*
G01*
X03588D02*
G03*
X03588Y0234I-00008J0D01*
G01*
X03668D02*
G03*
X03668Y0234I-00008J0D01*
G01*
X03508Y0228D02*
G03*
X03508Y0228I-00008J0D01*
G01*
X03588D02*
G03*
X03588Y0228I-00008J0D01*
G01*
X03668D02*
G03*
X03668Y0228I-00008J0D01*
G01*
X07088Y0314D02*
G03*
X07088Y0314I-00008J0D01*
G01*
Y032D02*
G03*
X07088Y032I-00008J0D01*
G01*
Y0326D02*
G03*
X07088Y0326I-00008J0D01*
G01*
Y0308D02*
G03*
X07088Y0308I-00008J0D01*
G01*
X06724Y05412D02*
G03*
X06724Y05412I-00008J0D01*
G01*
X065686Y054656D02*
G03*
X065686Y054656I-00008J0D01*
G01*
X06567Y05717D02*
G03*
X06567Y05717I-00008J0D01*
G01*
X05908Y0256D02*
G03*
X05908Y0256I-00008J0D01*
G01*
X05788D02*
G03*
X05788Y0256I-00008J0D01*
G01*
X05848D02*
G03*
X05848Y0256I-00008J0D01*
G01*
X05968D02*
G03*
X05968Y0256I-00008J0D01*
G01*
X06028D02*
G03*
X06028Y0256I-00008J0D01*
G01*
X06088D02*
G03*
X06088Y0256I-00008J0D01*
G01*
X06148D02*
G03*
X06148Y0256I-00008J0D01*
G01*
X06208D02*
G03*
X06208Y0256I-00008J0D01*
G01*
X04412Y02535D02*
G03*
X04412Y02535I-00008J0D01*
G01*
X04208Y0256D02*
G03*
X04208Y0256I-00008J0D01*
G01*
X04268D02*
G03*
X04268Y0256I-00008J0D01*
G01*
X03768Y0234D02*
G03*
X03768Y0234I-00008J0D01*
G01*
Y0228D02*
G03*
X03768Y0228I-00008J0D01*
G01*
X03848D02*
G03*
X03848Y0228I-00008J0D01*
G01*
Y0234D02*
G03*
X03848Y0234I-00008J0D01*
G01*
X03648Y02207D02*
G03*
X03648Y02207I-00008J0D01*
G01*
X03508Y0214D02*
G03*
X03508Y0214I-00008J0D01*
G01*
X03588D02*
G03*
X03588Y0214I-00008J0D01*
G01*
X03668Y0208D02*
G03*
X03668Y0208I-00008J0D01*
G01*
X03588D02*
G03*
X03588Y0208I-00008J0D01*
G01*
X03508D02*
G03*
X03508Y0208I-00008J0D01*
G01*
X03128Y0214D02*
G03*
X03128Y0214I-00008J0D01*
G01*
X03188D02*
G03*
X03188Y0214I-00008J0D01*
G01*
X03248D02*
G03*
X03248Y0214I-00008J0D01*
G01*
X03308D02*
G03*
X03308Y0214I-00008J0D01*
G01*
X03128Y0208D02*
G03*
X03128Y0208I-00008J0D01*
G01*
X03188D02*
G03*
X03188Y0208I-00008J0D01*
G01*
X03248D02*
G03*
X03248Y0208I-00008J0D01*
G01*
X03308D02*
G03*
X03308Y0208I-00008J0D01*
G01*
X03128Y0202D02*
G03*
X03128Y0202I-00008J0D01*
G01*
X03188D02*
G03*
X03188Y0202I-00008J0D01*
G01*
X03248D02*
G03*
X03248Y0202I-00008J0D01*
G01*
X03308D02*
G03*
X03308Y0202I-00008J0D01*
G01*
X02968Y033D02*
G03*
X02968Y033I-00008J0D01*
G01*
X03028D02*
G03*
X03028Y033I-00008J0D01*
G01*
X03088D02*
G03*
X03088Y033I-00008J0D01*
G01*
X03148D02*
G03*
X03148Y033I-00008J0D01*
G01*
X02968Y0324D02*
G03*
X02968Y0324I-00008J0D01*
G01*
X03028D02*
G03*
X03028Y0324I-00008J0D01*
G01*
X03088D02*
G03*
X03088Y0324I-00008J0D01*
G01*
X03148D02*
G03*
X03148Y0324I-00008J0D01*
G01*
X02968Y0318D02*
G03*
X02968Y0318I-00008J0D01*
G01*
X03028D02*
G03*
X03028Y0318I-00008J0D01*
G01*
X03088D02*
G03*
X03088Y0318I-00008J0D01*
G01*
X03148D02*
G03*
X03148Y0318I-00008J0D01*
G01*
X02968Y0266D02*
G03*
X02968Y0266I-00008J0D01*
G01*
X03028D02*
G03*
X03028Y0266I-00008J0D01*
G01*
X03088D02*
G03*
X03088Y0266I-00008J0D01*
G01*
X03148D02*
G03*
X03148Y0266I-00008J0D01*
G01*
X02968Y0272D02*
G03*
X02968Y0272I-00008J0D01*
G01*
X03028D02*
G03*
X03028Y0272I-00008J0D01*
G01*
X03088D02*
G03*
X03088Y0272I-00008J0D01*
G01*
X03148D02*
G03*
X03148Y0272I-00008J0D01*
G01*
X02968Y0278D02*
G03*
X02968Y0278I-00008J0D01*
G01*
X03028D02*
G03*
X03028Y0278I-00008J0D01*
G01*
X03088D02*
G03*
X03088Y0278I-00008J0D01*
G01*
X03148D02*
G03*
X03148Y0278I-00008J0D01*
G01*
X07048Y0358D02*
G03*
X07048Y0358I-00008J0D01*
G01*
X07108D02*
G03*
X07108Y0358I-00008J0D01*
G01*
X07168D02*
G03*
X07168Y0358I-00008J0D01*
G01*
X07048Y0352D02*
G03*
X07048Y0352I-00008J0D01*
G01*
X07108D02*
G03*
X07108Y0352I-00008J0D01*
G01*
X07168D02*
G03*
X07168Y0352I-00008J0D01*
G01*
X07108Y0346D02*
G03*
X07108Y0346I-00008J0D01*
G01*
X07168D02*
G03*
X07168Y0346I-00008J0D01*
G01*
Y034D02*
G03*
X07168Y034I-00008J0D01*
G01*
X06688Y0358D02*
G03*
X06688Y0358I-00008J0D01*
G01*
X06748D02*
G03*
X06748Y0358I-00008J0D01*
G01*
X06808D02*
G03*
X06808Y0358I-00008J0D01*
G01*
X06868D02*
G03*
X06868Y0358I-00008J0D01*
G01*
X06688Y0352D02*
G03*
X06688Y0352I-00008J0D01*
G01*
X06748D02*
G03*
X06748Y0352I-00008J0D01*
G01*
X06808D02*
G03*
X06808Y0352I-00008J0D01*
G01*
X06868D02*
G03*
X06868Y0352I-00008J0D01*
G01*
X06688Y0402D02*
G03*
X06688Y0402I-00008J0D01*
G01*
X06748D02*
G03*
X06748Y0402I-00008J0D01*
G01*
X06808D02*
G03*
X06808Y0402I-00008J0D01*
G01*
X06688Y0396D02*
G03*
X06688Y0396I-00008J0D01*
G01*
X06748D02*
G03*
X06748Y0396I-00008J0D01*
G01*
X06808D02*
G03*
X06808Y0396I-00008J0D01*
G01*
X06688Y039D02*
G03*
X06688Y039I-00008J0D01*
G01*
X06748D02*
G03*
X06748Y039I-00008J0D01*
G01*
X06808D02*
G03*
X06808Y039I-00008J0D01*
G01*
X05768Y0642D02*
G03*
X05768Y0642I-00008J0D01*
G01*
Y0636D02*
G03*
X05768Y0636I-00008J0D01*
G01*
Y063D02*
G03*
X05768Y063I-00008J0D01*
G01*
Y0624D02*
G03*
X05768Y0624I-00008J0D01*
G01*
X05828D02*
G03*
X05828Y0624I-00008J0D01*
G01*
Y063D02*
G03*
X05828Y063I-00008J0D01*
G01*
Y0636D02*
G03*
X05828Y0636I-00008J0D01*
G01*
Y0642D02*
G03*
X05828Y0642I-00008J0D01*
G01*
X05888D02*
G03*
X05888Y0642I-00008J0D01*
G01*
Y0636D02*
G03*
X05888Y0636I-00008J0D01*
G01*
Y063D02*
G03*
X05888Y063I-00008J0D01*
G01*
Y0624D02*
G03*
X05888Y0624I-00008J0D01*
G01*
X06488Y0642D02*
G03*
X06488Y0642I-00008J0D01*
G01*
X06548D02*
G03*
X06548Y0642I-00008J0D01*
G01*
X06608D02*
G03*
X06608Y0642I-00008J0D01*
G01*
X06488Y0636D02*
G03*
X06488Y0636I-00008J0D01*
G01*
X06548D02*
G03*
X06548Y0636I-00008J0D01*
G01*
X06608D02*
G03*
X06608Y0636I-00008J0D01*
G01*
X06488Y063D02*
G03*
X06488Y063I-00008J0D01*
G01*
X06548D02*
G03*
X06548Y063I-00008J0D01*
G01*
X06608D02*
G03*
X06608Y063I-00008J0D01*
G01*
X06488Y0624D02*
G03*
X06488Y0624I-00008J0D01*
G01*
X06548D02*
G03*
X06548Y0624I-00008J0D01*
G01*
X06608D02*
G03*
X06608Y0624I-00008J0D01*
G01*
X02628Y0654D02*
G03*
X02628Y0654I-00008J0D01*
G01*
X02708D02*
G03*
X02708Y0654I-00008J0D01*
G01*
X02788D02*
G03*
X02788Y0654I-00008J0D01*
G01*
Y0648D02*
G03*
X02788Y0648I-00008J0D01*
G01*
X02708D02*
G03*
X02708Y0648I-00008J0D01*
G01*
X02628D02*
G03*
X02628Y0648I-00008J0D01*
G01*
Y0642D02*
G03*
X02628Y0642I-00008J0D01*
G01*
X02708D02*
G03*
X02708Y0642I-00008J0D01*
G01*
X02788D02*
G03*
X02788Y0642I-00008J0D01*
G01*
X03668Y0214D02*
G03*
X03668Y0214I-00008J0D01*
G01*
X07108Y0364D02*
G03*
X07108Y0364I-00008J0D01*
G01*
X07168D02*
G03*
X07168Y0364I-00008J0D01*
G01*
Y037D02*
G03*
X07168Y037I-00008J0D01*
G01*
X06408Y059D02*
G03*
X06408Y059I-00008J0D01*
G01*
Y0558D02*
G03*
X06408Y0558I-00008J0D01*
G01*
Y0528D02*
G03*
X06408Y0528I-00008J0D01*
G01*
X06428Y0534D02*
G03*
X06428Y0534I-00008J0D01*
G01*
X06408Y0496D02*
G03*
X06408Y0496I-00008J0D01*
G01*
Y0464D02*
G03*
X06408Y0464I-00008J0D01*
G01*
Y0432D02*
G03*
X06408Y0432I-00008J0D01*
G01*
Y0402D02*
G03*
X06408Y0402I-00008J0D01*
G01*
Y037D02*
G03*
X06408Y037I-00008J0D01*
G01*
X05568Y0558D02*
G03*
X05568Y0558I-00008J0D01*
G01*
X05566Y059123D02*
G03*
X05566Y059123I-00008J0D01*
G01*
X05568Y0528D02*
G03*
X05568Y0528I-00008J0D01*
G01*
Y0496D02*
G03*
X05568Y0496I-00008J0D01*
G01*
Y0464D02*
G03*
X05568Y0464I-00008J0D01*
G01*
Y0432D02*
G03*
X05568Y0432I-00008J0D01*
G01*
Y0402D02*
G03*
X05568Y0402I-00008J0D01*
G01*
Y037D02*
G03*
X05568Y037I-00008J0D01*
G01*
Y0338D02*
G03*
X05568Y0338I-00008J0D01*
G01*
Y0306D02*
G03*
X05568Y0306I-00008J0D01*
G01*
Y0276D02*
G03*
X05568Y0276I-00008J0D01*
G01*
M02*
